<svg width="1440" height="803" viewBox="0 0 1440 803" fill="none" xmlns="http://www.w3.org/2000/svg">
<path d="M1030.17 452C1030.17 452 1025.98 467.333 1033.46 480.909C1033.46 480.909 1038.28 486 1041.38 488.909C1041.38 488.909 1044.22 494.667 1045.12 497.152C1046.02 499.576 1045.12 498.242 1045.12 498.242C1045.12 498.242 1042.29 497.576 1040.03 500.667C1040.03 500.667 1036.43 499.758 1034.63 504C1034.63 504 1038.82 501.576 1040.62 504C1040.62 504 1054.4 516 1061.61 514.242C1061.61 514.242 1067.28 516 1068.81 516C1068.81 516 1063.14 512.667 1062.82 508C1062.51 503.333 1067.64 497.333 1071.38 497.333C1075.12 497.333 1081.11 497.576 1085.34 495.333C1089.53 493.091 1093 485.879 1093 485.879C1093 485.879 1087.14 494.909 1081.47 493.758C1075.79 492.667 1057.33 493.091 1055.53 498C1055.53 498 1054.49 500.242 1053.86 498.424C1053.27 496.667 1051.47 490.182 1042.02 480C1042.02 480 1038.55 470.242 1033.46 466C1028.37 461.758 1030.17 452 1030.17 452Z" fill="url(#paint0_linear_321_9)"/>
<path d="M431.014 747.797C430.087 748.238 428.945 749.328 428.265 749.024C406.547 739.302 383.607 735.73 360.98 730.447C345.48 726.829 330.165 722.026 314.923 717.1C309.432 715.326 304.307 711.741 304.1 701.535C307.347 702.764 309.963 703.429 312.334 704.709C323.006 710.469 338.458 709.424 343.618 700.163C350.576 687.673 354.258 673.201 353.241 657.969C352.468 646.4 345.662 636.269 337.744 633.923C325.72 630.361 316.082 621.682 304.688 617.863C295.475 614.775 283.353 626.812 280.847 639.459C280.487 641.275 280.44 643.175 280.029 647.156C268.684 634.786 257.619 627.09 242.113 634.575C225.068 642.803 227.293 658.403 229.283 674.527C220.139 671.809 215.553 664.812 214.541 655.653C212.544 637.588 220.599 626.035 232.289 616.645C239.618 610.758 246.022 604.301 248.183 593.504C251.145 578.709 243.043 564.734 230.058 563.796C225.158 563.442 222.469 562.337 220.297 556.359C213.719 538.257 190.842 535.236 180.703 551.062C177.225 556.491 174.96 556.247 170.838 552.705C158.911 542.454 145.34 549.399 138.998 561.201C132.773 572.784 137.284 591.524 148.453 598.173C158.385 604.085 168.959 608.537 179.238 613.666C180.933 614.512 182.565 615.529 184.024 617.494C167.794 620.18 151.418 621.802 137.632 609.036C125.302 597.618 114.382 584.165 102.267 572.407C88.546 559.091 74.1872 546.663 60.439 534.152C83.7516 512.811 83.7516 512.811 76.4573 484.854C92.2708 478.215 96.9656 472.324 95.4116 456.924C94.7804 450.67 90.2994 444.973 87.7205 438.935C86.6749 436.487 84.6483 432.833 85.4079 431.381C96.0393 411.059 83.9957 395.772 69.6494 386.409C51.0981 374.3 38.5626 377.117 19.7065 397.411C14.7186 382.35 6.30463 372.542 -8.17981 371.568C-23.0729 370.566 -31.59 379.994 -36.1601 391.794C-45.7548 391.669 -54.1161 389.95 -61.6737 392.081C-66.0306 393.309 -70.3713 400.084 -72.4997 405.534C-80.1107 425.02 -75.6356 440.009 -60.3765 449.831C-65.7154 455.816 -75.6191 456.229 -81.0576 448.81C-86.4126 441.504 -90.7968 432.849 -94.1587 424.04C-100.738 406.799 -101.567 386.306 -114.342 372.707C-118.57 368.207 -125.242 366.809 -131.474 364C-132.152 409.473 -132.152 454.937 -131.605 501.481C-121.386 509.823 -111.917 517.488 -102.005 524.278C-55.5034 556.132 -8.966 587.918 37.7462 619.352C54.3203 630.505 71.2079 641.1 88.3501 651.022C105.422 660.903 122.993 669.62 140.917 678.847C144.447 680.64 147.404 682.434 150.958 684.288C156.62 686.981 161.686 689.614 167.227 692.341C168.174 692.93 168.646 693.423 169.704 693.94C179.025 698.355 187.762 702.747 197.115 707.167C201.369 709.154 205.008 711.112 209.248 713.048C219.265 717.236 228.68 721.446 238.715 725.855C252.271 731.38 265.13 736.972 278.155 741.983C330.491 762.121 383.402 779.787 437.764 791.027C457.534 795.115 477.333 799.014 497.119 803C497.412 802.067 497.706 801.135 498 800.202C473.406 786.529 450.972 769.237 431.014 747.797Z" fill="#F0F9FF"/>
<path d="M1162.6 169C1162.6 169 1153.3 194.3 1169.9 216.7C1169.9 216.7 1180.6 225.1 1187.5 229.9C1187.5 229.9 1193.8 239.4 1195.8 243.5C1197.8 247.5 1195.8 245.3 1195.8 245.3C1195.8 245.3 1189.5 244.2 1184.5 249.3C1184.5 249.3 1176.5 247.8 1172.5 254.8C1172.5 254.8 1181.8 250.8 1185.8 254.8C1185.8 254.8 1216.4 274.6 1232.4 271.7C1232.4 271.7 1245 274.6 1248.4 274.6C1248.4 274.6 1235.8 269.1 1235.1 261.4C1234.4 253.7 1245.8 243.8 1254.1 243.8C1262.4 243.8 1275.7 244.2 1285.1 240.5C1294.4 236.8 1302.1 224.9 1302.1 224.9C1302.1 224.9 1289.1 239.8 1276.5 237.9C1263.9 236.1 1222.9 236.8 1218.9 244.9C1218.9 244.9 1216.6 248.6 1215.2 245.6C1213.9 242.7 1209.9 232 1188.9 215.2C1188.9 215.2 1181.2 199.1 1169.9 192.1C1158.6 185.1 1162.6 169 1162.6 169Z" fill="url(#paint1_linear_321_9)"/>
<path d="M426.956 0C426.956 0 434.306 23.8879 421.13 44.9753C421.13 44.9753 412.67 52.8831 407.122 57.4959C407.122 57.4959 402.129 66.5568 400.465 70.346C398.939 74.1351 400.465 72.1581 400.465 72.1581C400.465 72.1581 405.458 71.1696 409.48 75.9472C409.48 75.9472 415.86 74.6293 419.05 81.2191C419.05 81.2191 411.699 77.4299 408.509 81.2191C408.509 81.2191 384.099 100 371.478 97.1993C371.478 97.1993 361.353 100 358.718 100C358.718 100 368.843 94.7281 369.259 87.4793C369.814 80.2306 360.798 70.8402 354.141 70.8402C347.484 70.8402 336.943 71.1696 329.453 67.71C322.103 64.2504 316 53.0478 316 53.0478C316 53.0478 326.263 67.0511 336.388 65.4036C346.513 63.5914 378.967 64.4152 382.157 71.9934C382.157 71.9934 383.96 75.453 385.07 72.6523C386.179 69.8517 389.369 59.8023 406.013 43.822C406.013 43.822 412.115 28.5009 421.13 22.0758C430.146 15.3213 426.956 0 426.956 0Z" fill="url(#paint2_linear_321_9)"/>
<path d="M1138.56 454.963C1139.12 455.192 1139.82 455.76 1140.23 455.601C1153.38 450.536 1167.27 448.675 1180.97 445.923C1190.36 444.038 1199.63 441.535 1208.86 438.969C1212.18 438.045 1215.29 436.177 1215.41 430.859C1213.45 431.5 1211.86 431.846 1210.43 432.513C1203.97 435.514 1194.61 434.97 1191.48 430.145C1187.27 423.637 1185.04 416.097 1185.66 408.161C1186.13 402.133 1190.25 396.855 1195.04 395.633C1202.32 393.777 1208.16 389.255 1215.06 387.265C1220.64 385.656 1227.98 391.928 1229.49 398.517C1229.71 399.463 1229.74 400.453 1229.99 402.527C1236.86 396.082 1243.56 392.073 1252.95 395.972C1263.27 400.259 1261.92 408.387 1260.72 416.788C1266.26 415.372 1269.03 411.726 1269.65 406.954C1270.85 397.542 1265.98 391.523 1258.9 386.631C1254.46 383.564 1250.58 380.2 1249.27 374.574C1247.48 366.866 1252.39 359.585 1260.25 359.096C1263.22 358.911 1264.84 358.336 1266.16 355.221C1270.14 345.79 1284 344.216 1290.14 352.461C1292.24 355.29 1293.61 355.163 1296.11 353.317C1303.33 347.976 1311.55 351.595 1315.39 357.744C1319.16 363.779 1316.43 373.542 1309.66 377.007C1303.65 380.087 1297.25 382.406 1291.02 385.079C1290 385.52 1289.01 386.05 1288.12 387.073C1297.95 388.472 1307.87 389.318 1316.22 382.666C1323.68 376.718 1330.3 369.708 1337.63 363.582C1345.94 356.645 1354.63 350.169 1362.96 343.651C1348.84 332.532 1348.84 332.532 1353.26 317.966C1343.68 314.507 1340.84 311.438 1341.78 303.415C1342.16 300.156 1344.88 297.188 1346.44 294.042C1347.07 292.766 1348.3 290.863 1347.84 290.106C1341.4 279.518 1348.7 271.554 1357.38 266.675C1368.62 260.366 1376.21 261.834 1387.62 272.408C1390.65 264.56 1395.74 259.45 1404.51 258.943C1413.53 258.421 1418.69 263.333 1421.45 269.481C1427.26 269.416 1432.33 268.52 1436.9 269.63C1439.54 270.27 1442.17 273.8 1443.46 276.639C1448.07 286.792 1445.36 294.601 1436.12 299.719C1439.35 302.837 1445.35 303.052 1448.64 299.187C1451.88 295.38 1454.54 290.871 1456.57 286.282C1460.56 277.299 1461.06 266.622 1468.8 259.537C1471.36 257.192 1475.4 256.463 1479.17 255C1479.58 278.692 1479.58 302.379 1479.25 326.629C1473.06 330.975 1467.33 334.969 1461.33 338.506C1433.17 355.103 1404.99 371.664 1376.7 388.041C1366.66 393.852 1356.44 399.372 1346.06 404.541C1335.72 409.69 1325.08 414.231 1314.23 419.038C1312.09 419.973 1310.3 420.908 1308.15 421.874C1304.72 423.277 1301.65 424.648 1298.3 426.069C1297.72 426.376 1297.44 426.633 1296.8 426.902C1291.15 429.203 1285.86 431.491 1280.2 433.794C1277.62 434.829 1275.42 435.849 1272.85 436.858C1266.78 439.04 1261.08 441.233 1255.01 443.53C1246.8 446.409 1239.01 449.322 1231.12 451.933C1199.43 462.425 1167.39 471.629 1134.48 477.486C1122.5 479.615 1110.51 481.647 1098.53 483.724C1098.36 483.238 1098.18 482.752 1098 482.266C1112.89 475.142 1126.48 466.133 1138.56 454.963Z" fill="#F1F9FF"/>
<defs>
<linearGradient id="paint0_linear_321_9" x1="1029.01" y1="483.989" x2="1092.99" y2="483.989" gradientUnits="userSpaceOnUse">
<stop stop-color="#1D1F21"/>
<stop offset="0.9946" stop-color="#285A86"/>
</linearGradient>
<linearGradient id="paint1_linear_321_9" x1="1160.01" y1="221.782" x2="1302.07" y2="221.782" gradientUnits="userSpaceOnUse">
<stop stop-color="#16181B"/>
<stop offset="0.9946" stop-color="#285A86"/>
</linearGradient>
<linearGradient id="paint2_linear_321_9" x1="429.048" y1="49.9181" x2="316.062" y2="49.9181" gradientUnits="userSpaceOnUse">
<stop stop-color="#1E2022"/>
<stop offset="0.9946" stop-color="#285A86"/>
</linearGradient>
</defs>
</svg>
