<svg width="1440" height="1053" viewBox="0 0 1440 1053" fill="none" xmlns="http://www.w3.org/2000/svg">
<mask id="mask0_278_9" style="mask-type:alpha" maskUnits="userSpaceOnUse" x="-37" y="-20" width="1547" height="1073">
<path d="M-37 -20H1510V1053H-37V-20Z" fill="#D2D385"/>
</mask>
<g mask="url(#mask0_278_9)">
<g opacity="0.86">
<path d="M221.657 832.348L235.705 828.921C235.705 828.921 235.264 943.297 235.705 940.606C235.813 939.977 217.235 936.795 217.235 936.795L221.657 832.348Z" fill="#304851"/>
<path d="M258.431 603.896L245.716 624.392L226.096 635.872L216.954 391L258.431 603.896Z" fill="#3D754E"/>
<path d="M199.494 624.539L170.394 772.074L183.575 789.02L183.945 788.543C190.838 734.304 203.414 682.476 204.648 628.369L199.494 624.539Z" fill="#254C30"/>
<path d="M231.786 628.758L202.523 639.865L183.945 788.628L230.839 729.188L231.786 628.758Z" fill="#2C5B3C"/>
<path d="M230.839 729.188L267.174 754.667L273.602 750.656L247.427 621.333L230.839 628.669V729.188Z" fill="#3D754E"/>
<path d="M258.431 603.896L245.544 617.301L231.786 628.668L203.183 640.021L189.405 635.057L195.45 645.574L202.523 650.74L248.489 626.567L258.431 603.896Z" fill="#1F3A24"/>
<path d="M234.91 939.511L277.339 967.067C277.068 964.381 269.025 845.876 272.165 846.829L231.782 828.921L234.91 939.511Z" fill="#3D754E"/>
<path d="M271.433 961.715L279.42 1055.56L225.733 1066L217.24 935.288L234.91 937.999L271.433 961.715Z" fill="#3D754E"/>
<path d="M238.269 940.659L225.733 1066L143.061 1049.91C142.269 1051.51 157.683 951.81 157.683 951.81C159.66 951.206 238.269 940.659 238.269 940.659Z" fill="#2C5B3C"/>
<path d="M216.953 391L189.405 635.057L202.523 639.781L217.459 399.107L216.953 391Z" fill="#254C30"/>
<path d="M231.786 628.669L217.458 399.107C210.983 479.337 204.803 559.552 202.522 639.776L203.183 640.012L231.786 628.669Z" fill="#2C5B3C"/>
<path d="M272.034 967.072L279.421 1055.56L296.001 1029.78L286.139 971.295L277.411 962.874L272.034 967.072Z" fill="#5C966C"/>
<path d="M135.479 942.962L146.476 960.089L215.799 953.367L237.083 955.606L272.356 972.056L286.138 974.408L291.089 955.606L271.433 963.232L238.269 940.659L217.24 936.8L135.479 942.962Z" fill="#1F3A24"/>
<path d="M268.226 850.993L271.433 963.233L291.089 955.607L273.538 853.944L268.226 850.993Z" fill="#5C966C"/>
<path d="M175.369 781.03L157.687 844.344L178.843 846.828L184.833 789.889L175.369 781.03Z" fill="#254C30"/>
<path d="M238.269 940.659L157.925 945.658L178.843 846.828L231.786 833.703L238.269 940.659Z" fill="#2C5B3C"/>
<path d="M231.352 729.635L186.902 770.189C186.635 769.143 178.839 846.824 178.839 846.824L231.782 828.916L231.352 729.635Z" fill="#2C5B3C"/>
<path d="M245.062 628.369L267.369 755.802L273.602 750.656L248.489 626.567L245.062 628.369Z" fill="#5C966C"/>
<path d="M219.691 405.058L245.544 617.301L258.431 603.896L217.526 393.956L219.691 405.058Z" fill="#5C966C"/>
<path d="M170.394 772.069L183.945 788.627L230.838 729.188L267.174 754.667L273.601 750.655L270.178 765.416L231.352 737.982L183.523 800.834L172.769 790.331L170.394 772.069Z" fill="#1F3A24"/>
<path d="M168.058 849.318L178.843 846.828L157.925 945.658L135.479 942.962L168.058 849.318Z" fill="#254C30"/>
<path d="M146.476 960.089L157.118 957.084L143.065 1049.91L133 1027.62L146.476 960.089Z" fill="#254C30"/>
<path d="M157.687 844.344L178.178 846.632L231.786 828.926L287.057 838.948L273.538 856.89L231.786 833.703L177.446 853.865L157.687 844.344Z" fill="#1F3A24"/>
<path d="M231.352 737.982L230.728 829.274L272.324 846.829L287.216 838.947L269.674 762.096L231.352 737.982Z" fill="#3D754E"/>
<path d="M263.704 758.447L272.324 846.828L287.216 838.947L270.267 762.596L263.704 758.447Z" fill="#5C966C"/>
</g>
<g opacity="0.86">
<path d="M133.607 870.579L150.5 867.507C150.5 867.507 149.968 970.021 150.5 967.61C150.629 967.046 128.29 964.194 128.29 964.194L133.607 870.579Z" fill="#304851"/>
<path d="M177.825 665.818L162.535 684.188L138.943 694.478L127.95 475L177.825 665.818Z" fill="#3D754E"/>
<path d="M106.956 684.319L71.9648 816.554L87.8143 831.743L88.2595 831.316C96.548 782.701 111.67 736.248 113.154 687.752L106.956 684.319Z" fill="#254C30"/>
<path d="M145.785 688.101L110.598 698.057L88.2589 831.392L144.646 778.117L145.785 688.101Z" fill="#2C5B3C"/>
<path d="M144.646 778.116L188.338 800.953L196.067 797.358L164.593 681.446L144.646 688.021V778.116Z" fill="#3D754E"/>
<path d="M177.824 665.818L162.328 677.833L145.785 688.022L111.392 698.197L94.8242 693.748L102.093 703.175L110.597 707.805L165.87 686.138L177.824 665.818Z" fill="#1F3A24"/>
<path d="M149.543 966.628L200.561 991.327C200.236 988.92 190.564 882.704 194.34 883.558L145.781 867.507L149.543 966.628Z" fill="#3D754E"/>
<path d="M193.459 986.53L203.064 1070.64L138.507 1080L128.295 962.844L149.543 965.273L193.459 986.53Z" fill="#3D754E"/>
<path d="M153.582 967.657L138.507 1080L39.098 1065.58C38.1457 1067.01 56.68 977.652 56.68 977.652C59.0584 977.111 153.582 967.657 153.582 967.657Z" fill="#2C5B3C"/>
<path d="M127.95 475L94.8243 693.747L110.597 697.981L128.557 482.266L127.95 475Z" fill="#254C30"/>
<path d="M145.785 688.022L128.557 482.267C120.771 554.176 113.34 626.072 110.598 697.977L111.392 698.188L145.785 688.022Z" fill="#2C5B3C"/>
<path d="M194.182 991.331L203.064 1070.64L223 1047.53L211.141 995.116L200.647 987.568L194.182 991.331Z" fill="#5C966C"/>
<path d="M29.9814 969.722L43.2038 985.073L126.562 979.047L152.155 981.054L194.569 995.798L211.141 997.906L217.095 981.054L193.459 987.889L153.581 967.657L128.295 964.198L29.9814 969.722Z" fill="#1F3A24"/>
<path d="M189.603 887.29L193.46 987.89L217.095 981.055L195.991 889.935L189.603 887.29Z" fill="#5C966C"/>
<path d="M77.9457 824.582L56.6836 881.33L82.1234 883.557L89.3256 832.522L77.9457 824.582Z" fill="#254C30"/>
<path d="M153.581 967.658L56.9714 972.139L82.1241 883.558L145.786 871.794L153.581 967.658Z" fill="#2C5B3C"/>
<path d="M145.264 778.518L91.8146 814.866C91.4939 813.929 82.1191 883.554 82.1191 883.554L145.781 867.503L145.264 778.518Z" fill="#2C5B3C"/>
<path d="M161.75 687.753L188.573 801.97L196.067 797.358L165.87 686.138L161.75 687.753Z" fill="#5C966C"/>
<path d="M131.243 487.601L162.33 677.834L177.825 665.819L128.64 477.65L131.243 487.601Z" fill="#5C966C"/>
<path d="M71.9648 816.551L88.2595 831.391L144.647 778.116L188.339 800.953L196.067 797.358L191.952 810.587L145.264 785.998L87.7521 842.333L74.8217 832.919L71.9648 816.551Z" fill="#1F3A24"/>
<path d="M69.1556 885.789L82.1243 883.558L56.9716 972.138L29.9814 969.722L69.1556 885.789Z" fill="#254C30"/>
<path d="M43.2038 985.072L56.0003 982.379L39.1026 1065.58L27 1045.6L43.2038 985.072Z" fill="#254C30"/>
<path d="M56.6838 881.33L81.3245 883.381L145.785 867.51L212.246 876.493L195.99 892.575L145.785 871.793L80.4438 889.864L56.6838 881.33Z" fill="#1F3A24"/>
<path d="M145.264 785.998L144.513 867.823L194.531 883.557L212.438 876.493L191.344 807.612L145.264 785.998Z" fill="#3D754E"/>
<path d="M184.166 804.342L194.531 883.557L212.439 876.493L192.057 808.061L184.166 804.342Z" fill="#5C966C"/>
</g>
<g opacity="0.86">
<path d="M33.0461 801.848L50.8006 797.959C50.8006 797.959 50.2423 927.754 50.8006 924.701C50.9364 923.987 27.458 920.377 27.458 920.377L33.0461 801.848Z" fill="#304851"/>
<path d="M79.5197 542.598L63.4499 565.856L38.6537 578.884L27.1006 301L79.5197 542.598Z" fill="#3D754E"/>
<path d="M5.03542 566.023L-31.7414 733.448L-15.0832 752.678L-14.6154 752.138C-5.904 690.586 9.98971 631.771 11.5489 570.37L5.03542 566.023Z" fill="#254C30"/>
<path d="M45.8463 570.811L8.86321 583.415L-14.6152 752.233L44.649 684.781L45.8463 570.811Z" fill="#2C5B3C"/>
<path d="M44.6484 684.781L90.5693 713.696L98.6924 709.143L65.6122 562.386L44.6484 570.711V684.781Z" fill="#3D754E"/>
<path d="M79.5197 542.598L63.2335 557.81L45.8461 570.71L9.69787 583.593L-7.71484 577.959L-0.0747258 589.895L8.86302 595.757L66.9557 568.325L79.5197 542.598Z" fill="#1F3A24"/>
<path d="M49.7942 923.458L103.415 954.73C103.073 951.682 92.9086 817.2 96.877 818.281L45.8408 797.959L49.7942 923.458Z" fill="#3D754E"/>
<path d="M95.952 948.656L106.047 1055.15L38.1966 1067L27.4631 918.666L49.7948 921.742L95.952 948.656Z" fill="#3D754E"/>
<path d="M54.0394 924.762L38.1961 1067L-66.2851 1048.75C-67.286 1050.56 -47.806 937.416 -47.806 937.416C-45.3063 936.731 54.0394 924.762 54.0394 924.762Z" fill="#2C5B3C"/>
<path d="M27.1004 301L-7.71503 577.959L8.86284 583.32L27.739 310.2L27.1004 301Z" fill="#254C30"/>
<path d="M45.8462 570.71L27.7393 310.2C19.556 401.246 11.7452 492.274 8.86316 583.314L9.69801 583.582L45.8462 570.71Z" fill="#2C5B3C"/>
<path d="M96.7119 954.735L106.047 1055.15L127.001 1025.89L114.537 959.527L103.507 949.971L96.7119 954.735Z" fill="#5C966C"/>
<path d="M-75.8662 927.375L-61.9693 946.811L25.6423 939.183L52.541 941.724L97.1188 960.391L114.537 963.06L120.794 941.724L95.9519 950.377L54.0397 924.762L27.463 920.382L-75.8662 927.375Z" fill="#1F3A24"/>
<path d="M91.8984 823.007L95.9522 950.378L120.794 941.724L98.6128 826.356L91.8984 823.007Z" fill="#5C966C"/>
<path d="M54.0397 924.762L-47.499 930.435L-21.0631 818.281L45.8466 803.387L54.0397 924.762Z" fill="#2C5B3C"/>
<path d="M45.2981 685.287L-10.8783 731.309C-11.2152 730.122 -21.0684 818.275 -21.0684 818.275L45.8411 797.953L45.2981 685.287Z" fill="#2C5B3C"/>
<path d="M62.625 570.37L90.8162 714.982L98.6928 709.143L66.9557 568.325L62.625 570.37Z" fill="#5C966C"/>
<path d="M30.5614 316.953L63.2339 557.81L79.5201 542.598L27.8252 304.354L30.5614 316.953Z" fill="#5C966C"/>
<path d="M-31.7412 733.442L-14.6152 752.232L44.6491 684.779L90.5699 713.694L98.6931 709.141L94.3673 725.892L45.298 694.759L-15.1485 766.085L-28.7386 754.165L-31.7412 733.442Z" fill="#1F3A24"/>
<path d="M-47.8018 815.461L-21.9039 818.057L45.8456 797.964L115.698 809.337L98.6116 829.698L45.8456 803.386L-22.8295 826.265L-47.8018 815.461Z" fill="#1F3A24"/>
<path d="M45.2984 694.76L44.5088 798.36L97.0786 818.281L115.9 809.337L93.7291 722.125L45.2984 694.76Z" fill="#3D754E"/>
<path d="M86.1846 717.985L97.0786 818.281L115.9 809.337L94.4784 722.694L86.1846 717.985Z" fill="#5C966C"/>
</g>
<g opacity="0.86">
<path d="M1194.59 849.001L1212.43 845.568C1212.43 845.568 1211.87 960.113 1212.43 957.419C1212.57 956.789 1188.97 953.603 1188.97 953.603L1194.59 849.001Z" fill="#304851"/>
<path d="M1241.29 620.211L1225.14 640.737L1200.23 652.235L1188.62 407L1241.29 620.211Z" fill="#3D754E"/>
<path d="M1166.44 640.885L1129.49 788.638L1146.23 805.609L1146.7 805.132C1155.45 750.812 1171.42 698.907 1172.99 644.72L1166.44 640.885Z" fill="#254C30"/>
<path d="M1207.45 645.109L1170.29 656.233L1146.7 805.216L1206.25 745.689L1207.45 645.109Z" fill="#2C5B3C"/>
<path d="M1206.25 745.688L1252.39 771.206L1260.56 767.188L1227.31 637.674L1206.25 645.021V745.688Z" fill="#3D754E"/>
<path d="M1241.29 620.211L1224.92 633.636L1207.45 645.02L1171.13 656.39L1153.63 651.418L1161.31 661.951L1170.29 667.125L1228.66 642.915L1241.29 620.211Z" fill="#1F3A24"/>
<path d="M1211.42 956.322L1265.3 983.919C1264.96 981.23 1254.74 862.549 1258.73 863.503L1207.45 845.568L1211.42 956.322Z" fill="#3D754E"/>
<path d="M1257.8 978.561L1267.94 1072.54L1199.77 1083L1188.98 952.095L1211.42 954.809L1257.8 978.561Z" fill="#3D754E"/>
<path d="M1215.69 957.474L1199.77 1083L1094.78 1066.89C1093.77 1068.49 1113.35 968.641 1113.35 968.641C1115.86 968.037 1215.69 957.474 1215.69 957.474Z" fill="#2C5B3C"/>
<path d="M1188.62 407L1153.63 651.418L1170.29 656.149L1189.26 415.119L1188.62 407Z" fill="#254C30"/>
<path d="M1207.45 645.02L1189.26 415.118C1181.03 495.467 1173.19 575.8 1170.29 656.144L1171.13 656.38L1207.45 645.02Z" fill="#2C5B3C"/>
<path d="M1258.56 983.925L1267.94 1072.54L1289 1046.72L1276.48 988.154L1265.39 979.721L1258.56 983.925Z" fill="#5C966C"/>
<path d="M1085.15 959.781L1099.11 976.933L1187.15 970.201L1214.18 972.444L1258.97 988.918L1276.48 991.273L1282.76 972.444L1257.8 980.081L1215.69 957.474L1188.98 953.609L1085.15 959.781Z" fill="#1F3A24"/>
<path d="M1253.73 867.674L1257.8 980.08L1282.76 972.443L1260.47 870.629L1253.73 867.674Z" fill="#5C966C"/>
<path d="M1135.81 797.607L1113.35 861.015L1140.22 863.503L1147.82 806.479L1135.81 797.607Z" fill="#254C30"/>
<path d="M1215.68 957.474L1113.65 962.48L1140.22 863.504L1207.45 850.359L1215.68 957.474Z" fill="#2C5B3C"/>
<path d="M1206.9 746.136L1150.45 786.75C1150.11 785.703 1140.21 863.499 1140.21 863.499L1207.45 845.564L1206.9 746.136Z" fill="#2C5B3C"/>
<path d="M1224.31 644.721L1252.64 772.342L1260.56 767.188L1228.66 642.916L1224.31 644.721Z" fill="#5C966C"/>
<path d="M1192.09 421.08L1224.92 633.637L1241.29 620.212L1189.34 409.961L1192.09 421.08Z" fill="#5C966C"/>
<path d="M1129.49 788.633L1146.7 805.215L1206.25 745.688L1252.39 771.205L1260.55 767.187L1256.21 781.969L1206.9 754.495L1146.16 817.44L1132.5 806.921L1129.49 788.633Z" fill="#1F3A24"/>
<path d="M1126.52 865.996L1140.22 863.503L1113.65 962.479L1085.15 959.779L1126.52 865.996Z" fill="#254C30"/>
<path d="M1099.11 976.932L1112.63 973.923L1094.78 1066.89L1082 1044.56L1099.11 976.932Z" fill="#254C30"/>
<path d="M1113.35 861.014L1139.37 863.306L1207.45 845.573L1277.64 855.61L1260.47 873.579L1207.45 850.358L1138.44 870.549L1113.35 861.014Z" fill="#1F3A24"/>
<path d="M1206.9 754.496L1206.11 845.924L1258.93 863.504L1277.85 855.611L1255.57 778.646L1206.9 754.496Z" fill="#3D754E"/>
<path d="M1247.99 774.991L1258.93 863.503L1277.85 855.61L1256.32 779.147L1247.99 774.991Z" fill="#5C966C"/>
</g>
<g opacity="0.86">
<path d="M1430.82 767.325L1449.49 763.113C1449.49 763.113 1448.9 903.657 1449.49 900.351C1449.63 899.578 1424.94 895.669 1424.94 895.669L1430.82 767.325Z" fill="#304851"/>
<path d="M1479.69 486.605L1462.79 511.79L1436.72 525.897L1424.57 225L1479.69 486.605Z" fill="#3D754E"/>
<path d="M1401.37 511.971L1362.69 693.261L1380.21 714.083L1380.7 713.498C1389.86 646.849 1406.58 583.163 1408.22 516.677L1401.37 511.971Z" fill="#254C30"/>
<path d="M1444.28 517.154L1405.39 530.803L1380.7 713.601L1443.02 640.562L1444.28 517.154Z" fill="#2C5B3C"/>
<path d="M1479.69 486.604L1462.56 503.077L1444.28 517.045L1406.27 530.995L1387.96 524.895L1395.99 537.819L1405.39 544.166L1466.48 514.462L1479.69 486.604Z" fill="#1F3A24"/>
<path d="M1496.97 926.29L1507.58 1041.6L1436.24 1054.43L1424.95 893.816L1448.43 897.147L1496.97 926.29Z" fill="#3D754E"/>
<path d="M1452.9 900.417L1436.24 1054.43L1326.37 1034.67C1325.32 1036.63 1345.8 914.12 1345.8 914.12C1348.43 913.377 1452.9 900.417 1452.9 900.417Z" fill="#2C5B3C"/>
<path d="M1424.57 225L1387.96 524.895L1405.39 530.7L1425.24 234.962L1424.57 225Z" fill="#254C30"/>
<path d="M1444.28 517.045L1425.24 234.962C1416.64 333.547 1408.42 432.114 1405.39 530.693L1406.27 530.983L1444.28 517.045Z" fill="#2C5B3C"/>
<path d="M1316.29 903.247L1330.91 924.292L1423.04 916.032L1451.32 918.784L1498.2 938.997L1516.51 941.887L1523.09 918.784L1496.97 928.154L1452.9 900.417L1424.95 895.675L1316.29 903.247Z" fill="#1F3A24"/>
<path d="M1369.31 704.266L1345.81 782.065L1373.92 785.118L1381.88 715.151L1369.31 704.266Z" fill="#254C30"/>
<path d="M1452.9 900.417L1346.12 906.559L1373.92 785.118L1444.28 768.99L1452.9 900.417Z" fill="#2C5B3C"/>
<path d="M1443.7 641.111L1384.63 690.944C1384.28 689.659 1373.92 785.113 1373.92 785.113L1444.28 763.108L1443.7 641.111Z" fill="#2C5B3C"/>
<path d="M1428.21 242.275L1462.56 503.078L1479.69 486.605L1425.33 228.633L1428.21 242.275Z" fill="#5C966C"/>
<path d="M1362.69 693.254L1380.7 713.6L1443.02 640.562L1491.31 671.871L1499.85 666.941L1495.3 685.078L1443.7 651.368L1380.14 728.6L1365.85 715.694L1362.69 693.254Z" fill="#1F3A24"/>
<path d="M1359.59 788.177L1373.92 785.118L1346.12 906.559L1316.29 903.247L1359.59 788.177Z" fill="#254C30"/>
<path d="M1330.91 924.292L1345.05 920.6L1326.38 1034.67L1313 1007.27L1330.91 924.292Z" fill="#254C30"/>
<path d="M1345.81 782.065L1373.04 784.877L1444.28 763.119L1517.73 775.434L1499.77 797.481L1444.28 768.99L1372.07 793.764L1345.81 782.065Z" fill="#1F3A24"/>
</g>
<g opacity="0.86">
<path d="M1321.74 841.232L1335.97 838.023C1335.97 838.023 1335.52 945.113 1335.97 942.594C1336.07 942.005 1317.27 939.026 1317.27 939.026L1321.74 841.232Z" fill="#304851"/>
<path d="M1358.97 627.334L1346.1 646.524L1326.24 657.273L1316.98 428L1358.97 627.334Z" fill="#3D754E"/>
<path d="M1299.31 646.662L1269.85 784.798L1283.19 800.664L1283.57 800.218C1290.55 749.434 1303.28 700.908 1304.53 650.248L1299.31 646.662Z" fill="#254C30"/>
<path d="M1332 650.611L1302.38 661.011L1283.57 800.297L1331.04 744.644L1332 650.611Z" fill="#2C5B3C"/>
<path d="M1331.04 744.644L1367.82 768.501L1374.33 764.745L1347.83 643.66L1331.04 650.529V744.644Z" fill="#3D754E"/>
<path d="M1358.97 627.333L1345.92 639.884L1332 650.527L1303.04 661.157L1289.1 656.509L1295.22 666.357L1302.38 671.193L1348.91 648.56L1358.97 627.333Z" fill="#1F3A24"/>
<path d="M1335.16 941.568L1378.11 967.37C1377.84 964.855 1369.69 853.899 1372.87 854.791L1331.99 838.023L1335.16 941.568Z" fill="#3D754E"/>
<path d="M1372.13 962.358L1380.22 1050.22L1325.87 1060L1317.27 937.614L1335.16 940.152L1372.13 962.358Z" fill="#3D754E"/>
<path d="M1338.56 942.644L1325.87 1060L1242.18 1044.94C1241.38 1046.43 1256.98 953.085 1256.98 953.085C1258.99 952.52 1338.56 942.644 1338.56 942.644Z" fill="#2C5B3C"/>
<path d="M1316.98 428L1289.1 656.51L1302.38 660.932L1317.49 435.59L1316.98 428Z" fill="#254C30"/>
<path d="M1332 650.528L1317.49 435.59C1310.94 510.708 1304.68 585.813 1302.37 660.927L1303.04 661.148L1332 650.528Z" fill="#2C5B3C"/>
<path d="M1372.74 967.374L1380.22 1050.22L1397 1026.08L1387.02 971.328L1378.18 963.443L1372.74 967.374Z" fill="#5C966C"/>
<path d="M1234.51 944.8L1245.64 960.836L1315.82 954.542L1337.36 956.639L1373.07 972.041L1387.02 974.243L1392.03 956.639L1372.13 963.779L1338.56 942.644L1317.27 939.031L1234.51 944.8Z" fill="#1F3A24"/>
<path d="M1368.88 858.69L1372.13 963.779L1392.03 956.639L1374.26 861.453L1368.88 858.69Z" fill="#5C966C"/>
<path d="M1274.89 793.184L1256.99 852.464L1278.41 854.79L1284.47 801.478L1274.89 793.184Z" fill="#254C30"/>
<path d="M1338.56 942.645L1257.23 947.325L1278.4 854.791L1332 842.502L1338.56 942.645Z" fill="#2C5B3C"/>
<path d="M1331.56 745.062L1286.56 783.032C1286.29 782.053 1278.4 854.785 1278.4 854.785L1331.99 838.018L1331.56 745.062Z" fill="#2C5B3C"/>
<path d="M1345.44 650.248L1368.02 769.562L1374.33 764.744L1348.91 648.561L1345.44 650.248Z" fill="#5C966C"/>
<path d="M1319.76 441.162L1345.93 639.885L1358.97 627.334L1317.56 430.768L1319.76 441.162Z" fill="#5C966C"/>
<path d="M1269.85 784.794L1283.57 800.296L1331.04 744.644L1367.82 768.5L1374.33 764.744L1370.86 778.564L1331.56 752.878L1283.14 811.726L1272.26 801.892L1269.85 784.794Z" fill="#1F3A24"/>
<path d="M1267.49 857.122L1278.41 854.791L1257.23 947.325L1234.51 944.801L1267.49 857.122Z" fill="#254C30"/>
<path d="M1245.64 960.836L1256.41 958.022L1242.19 1044.94L1232 1024.06L1245.64 960.836Z" fill="#254C30"/>
<path d="M1256.99 852.463L1277.73 854.606L1332 838.027L1387.95 847.411L1374.26 864.21L1332 842.501L1276.99 861.378L1256.99 852.463Z" fill="#1F3A24"/>
<path d="M1331.56 752.877L1330.93 838.354L1373.03 854.79L1388.11 847.411L1370.35 775.455L1331.56 752.877Z" fill="#3D754E"/>
<path d="M1364.31 772.04L1373.03 854.791L1388.11 847.412L1370.95 775.925L1364.31 772.04Z" fill="#5C966C"/>
</g>
<path d="M-37 -20H1510V1053H-37V-20Z" fill="#D2D385" fill-opacity="0.57"/>
<path d="M-494 1074.43C-494 1074.43 240.328 1028.45 842.063 1064.27C1407.81 1097.95 2469 1103 2469 1103C2469 1103 2206.15 1052.82 1802.96 1040.58C1399.81 1028.35 1182.91 969.579 1087.49 946.931C992.063 924.282 624.827 889.227 204.521 960.183C-83.2341 1008.77 72.7133 1014.59 -494 1074.43Z" fill="#FEFFEF"/>
<path d="M542.483 54.3346C542.483 54.3346 549.137 62.263 547.109 72.4825C547.109 72.4825 544.921 76.8913 543.42 79.512C543.42 79.512 542.796 83.7507 542.756 85.4875C542.701 87.1881 543.018 86.1368 543.018 86.1368C543.018 86.1368 544.867 84.9282 547.205 86.1238C547.205 86.1238 549.537 84.5519 551.833 86.5616C551.833 86.5616 548.284 86.317 547.592 88.2753C547.592 88.2753 540.72 99.3607 535.196 100.376C535.196 100.376 531.601 103.046 530.516 103.484C530.516 103.484 533.733 99.8764 532.833 97.0085C531.934 94.1406 526.856 92.0381 524.209 93.1076C521.563 94.177 517.38 96.035 513.843 95.9115C510.338 95.775 506.148 92.4743 506.148 92.4743C506.148 92.4743 512.465 96.1743 516.206 93.8654C519.962 91.5926 533.138 86.5623 535.594 88.9689C535.594 88.9689 536.867 90.0073 536.876 88.7447C536.868 87.531 536.584 83.1557 540.831 74.3895C540.831 74.3895 540.94 67.5894 543.523 63.6083C546.106 59.6271 542.483 54.3346 542.483 54.3346Z" fill="url(#paint0_linear_278_9)" fill-opacity="0.5"/>
</g>
<defs>
<linearGradient id="paint0_linear_278_9" x1="551.001" y1="73.0423" x2="505.702" y2="91.3462" gradientUnits="userSpaceOnUse">
<stop stop-color="#16181B"/>
<stop offset="0.9946" stop-color="#285A86"/>
</linearGradient>
</defs>
</svg>
