<svg width="1581" height="1191" viewBox="0 0 1581 1191" fill="none" xmlns="http://www.w3.org/2000/svg">
<path d="M1578.14 143L1452.68 444.563L1384.56 214.482L1314.25 451.488L1222.63 143L1053 714.853H1222.63H1236.03L1214.94 786.335H1384.56H1554.19L1536.39 726.022H1578.14V143Z" fill="#64DDDA"/>
<path d="M341.977 250.633L284.629 487.639L209.923 179.151L133.899 493.67L3.38281 134.475V583.469V715.264H80.0664L71.4972 751.004H209.923H220.909L203.551 822.486H341.977H480.403L341.977 250.633Z" fill="#64DDDA"/>
<path d="M1452.99 444.973L1384.87 214.892V786.745H1554.5L1536.7 726.432L1452.99 444.973Z" fill="#60C6C1"/>
<path d="M209.264 181.832L220.031 786.745H50.4038L209.264 181.832Z" fill="#60C6C1"/>
<path d="M1226.65 143.089L1182.57 341.21L1266.54 713.549L1279.91 712.614L1396.52 704.46L1226.65 143.089Z" fill="#60C6C1"/>
<path d="M912.6 196.128L871.951 324.572L769.12 0.223389L684.087 268.95L634.43 111.69L436.019 737.825H634.43H740.996L714.189 822.486H912.6H1110.79L912.6 196.128Z" fill="#64DDDA"/>
<path d="M625.86 134.475V706.328H436.019L625.86 134.475Z" fill="#60C6C1"/>
<path d="M810.209 129.561L871.951 324.572L810.428 706.328H797.025H654.425L810.209 129.561Z" fill="#60C6C1"/>
<path d="M634.43 111.69L633.331 115.041L607.184 197.245L625.641 173.567L634.43 220.476L640.802 184.736L648.492 195.905L657.501 184.512L634.43 111.69Z" fill="#9BF9F4"/>
<path d="M210.363 178.258L209.264 181.832L188.83 266.493L201.574 240.357L210.363 287.267L216.735 251.526L224.425 262.695L228.82 257.111L210.363 178.258Z" fill="#9BF9F4"/>
<path d="M342.197 250.186L341.098 253.536L320.664 338.198L333.408 312.062L342.197 358.972L348.569 323.231L356.259 334.4L360.654 328.816L342.197 250.186Z" fill="#9BF9F4"/>
<path d="M911.941 195.681L910.842 199.032L884.915 281.459L903.372 257.781L911.941 304.691L918.533 268.95L926.223 280.119L935.012 268.727L911.941 195.681Z" fill="#9BF9F4"/>
<path d="M769.34 0L768.241 3.3507L742.094 85.778L760.112 61.8763L769.34 108.786L776.371 73.0454L784.721 84.2144L792.631 74.609L769.34 0Z" fill="#9BF9F4"/>
<path d="M1224.71 143L1223.61 146.351L1199 229.001L1215.26 204.876L1224.71 251.786L1231.74 216.045L1239.87 227.214L1247.12 218.726L1224.71 143Z" fill="#9BF9F4"/>
<path d="M1385.77 214.705L1384.67 218.056L1360.72 301.153L1376.54 276.581L1385.77 323.491L1392.8 287.75L1401.15 298.919L1409.06 291.324L1385.77 214.705Z" fill="#9BF9F4"/>
<path d="M1581 420.077C1575.18 419.176 1570.61 423.571 1570.61 423.571C1570.61 423.571 1573.41 426.374 1577.82 431.428L1581 420.077Z" fill="#2C1C0D"/>
<path d="M3.38281 862.248L1581 856.5L1579 596.5C1576.92 595.68 1528.64 591.111 1526.87 590.132C1522.16 587.526 1521.41 584.377 1520.73 581.519C1520.02 578.546 1519.39 575.888 1514.45 574.484C1510.46 573.35 1505.2 575.623 1499.01 578.294C1490.19 582.105 1479.49 586.725 1467.96 583.399C1457.96 580.597 1451.11 584.459 1445.08 587.855C1439.31 591.11 1434.3 593.936 1428 590.051C1421.05 585.759 1423.67 582.444 1426.03 579.463C1428.04 576.93 1429.85 574.64 1425.44 572.197C1420.92 569.627 1417.76 569.374 1412.66 568.966C1406.88 568.504 1398.6 567.842 1383.03 563.372C1373.96 560.769 1370.51 559.777 1370.58 558.983C1370.63 558.494 1372.01 558.079 1374.24 557.41C1380.1 555.652 1391.81 552.137 1400.59 540.901C1406.14 533.802 1408.18 531.188 1407.86 531.001C1407.67 530.892 1406.68 531.606 1405.11 532.736C1400.86 535.807 1392.34 541.947 1384.08 542.993C1371.05 544.645 1370.52 540.231 1369.54 532.034L1369.54 532.032C1369.27 529.85 1368.98 527.4 1368.41 524.725C1368.32 524.308 1368.24 523.899 1368.15 523.499C1368.02 522.864 1367.89 522.25 1367.77 521.66C1365.65 511.256 1364.97 507.928 1355.47 519.351C1347.56 528.893 1332 531.415 1319.21 520.913C1316.09 518.308 1311.67 522.414 1307.79 526.019C1302.93 530.546 1298.91 534.282 1299.37 522.948C1300.17 507.611 1294.53 509.433 1285.98 512.197C1283.17 513.106 1280.04 514.116 1276.73 514.652C1271.17 515.558 1269.06 517.474 1267 519.346C1264.17 521.914 1261.43 524.402 1250 524.096C1236.14 523.725 1231.91 526.054 1224.8 529.976C1221.78 531.646 1218.23 533.603 1213.19 535.764C1196.32 543.002 1193.21 542.927 1183.9 527.354C1177.58 516.535 1165.66 521.549 1152.31 527.168C1146.42 529.645 1140.24 532.241 1134.15 533.648C1121.46 536.571 1110.61 527.5 1099.27 518.011C1098.5 517.371 1097.73 516.728 1096.96 516.087C1096.44 515.655 1095.92 515.224 1095.39 514.794C1086.31 507.268 1083.31 513.742 1080 520.874C1078.55 523.995 1077.05 527.243 1074.95 529.498C1073.13 531.498 1071 535.428 1068.47 540.071C1061.42 553.017 1051.36 571.513 1036.87 569.237C1027.03 567.691 1021.51 563.096 1016.77 559.154C1012.02 555.208 1008.07 551.918 1001.36 553.003C995.15 554.015 994.64 557.456 994.11 561.031C993.516 565.042 992.897 569.221 984.168 570.327C976.646 571.281 971.957 570.222 967.49 569.213C962.153 568.008 957.133 566.874 947.974 569.326C942.313 570.843 937.005 573.256 932.091 575.489C922.403 579.894 914.244 583.603 907.917 578.374C903.08 574.377 904.182 570.53 905.188 567.016C906.166 563.602 907.054 560.501 902.318 557.881C897.47 555.199 896.586 557.774 895.161 561.922C893.76 565.997 891.839 571.59 885.124 575.205C875.024 580.644 870.863 577.805 860.078 570.446C856.396 567.933 851.943 564.895 846.217 561.478C838.946 557.14 836.374 555.605 835.647 556.015C835.25 556.239 835.403 557.045 835.641 558.29C836.313 561.813 837.657 568.859 829.097 576.239C817.261 586.458 815.322 584.995 807.03 578.74C803.192 575.845 797.994 571.924 789.824 567.659C776.925 561.002 776.925 561.003 778.031 563.892C779.137 566.781 781.35 572.56 772.876 577.46C757.827 586.164 756.199 585.118 747.018 579.216C745.859 578.472 744.58 577.65 743.139 576.76C730.277 568.823 726.853 571.161 716.483 583.64C706.112 596.12 648.494 627.638 619.124 621.792L619.121 621.792L619.118 621.791L619.114 621.79C608.575 619.633 605.599 619.024 605.545 618.289C605.524 618 605.956 617.691 606.558 617.26C608.688 615.736 612.95 612.686 606.776 603.581C599.522 593.079 602.99 590.524 607.35 587.311C610.544 584.958 614.217 582.251 614.507 575.811V575.809C614.714 571.214 614.796 569.392 614.527 569.361C614.35 569.34 614.022 570.092 613.477 571.338C612.104 574.482 609.359 580.769 604.21 585.727C593.914 595.643 584.377 587.762 584.377 587.762C584.377 587.762 561.756 579.634 548.355 581.802C548.245 585.285 548.211 586.363 547.505 586.994C547.189 587.277 546.739 587.47 546.086 587.75C543.977 588.655 539.758 590.464 531.161 599.126C517.084 613.148 516.817 612.617 512.308 603.671C511.24 601.551 509.934 598.959 508.15 595.977L508.149 595.975C504.802 590.38 503.861 588.806 502.964 588.821C502.613 588.827 502.269 589.076 501.79 589.423C500.087 590.655 496.681 593.12 485.213 590.263L485.21 590.263L485.205 590.261C478.478 588.586 475.7 587.893 475.582 586.994C475.499 586.361 476.734 585.625 478.837 584.371C483.93 581.336 494.116 575.266 503.019 560.269C503.225 555.761 503.287 554.419 504.014 554.151C504.322 554.038 504.749 554.117 505.358 554.23C507.403 554.61 511.493 555.369 519.967 550.468C536.915 540.666 524.591 522.623 514.516 524.847C509.308 525.997 508.432 529.328 507.389 533.293C506.414 536.999 505.294 541.259 500.355 544.811C490.132 552.163 480.202 556.933 467.487 543.867C463.771 540.082 460.594 541.362 457.651 542.546C454.234 543.922 451.134 545.17 447.876 538.211C443.038 527.877 437.669 530.505 427.126 535.666L427.124 535.667L427.115 535.671C424.447 536.977 421.447 538.445 418.041 539.906C410.626 543.12 408.266 549.485 406.2 555.058C403.625 562.004 401.505 567.721 390.624 564.583C383.84 562.682 381.755 562.098 381.287 561.075C381.08 560.621 381.191 560.081 381.35 559.301C381.87 556.763 382.91 551.687 375.196 538.791C367.592 525.886 367.592 525.886 366.928 531.271C366.264 536.656 364.936 547.425 354.677 556.059C347.751 561.769 345.446 563.67 344.724 563.362C344.364 563.208 344.398 562.505 344.449 561.451C344.602 558.284 344.908 551.949 335.139 547.839C318.718 540.93 318.395 541.679 314.354 551.07C313.587 552.853 312.686 554.946 311.515 557.358C306.68 567.322 292.273 568.18 279.155 568.961C272.369 569.366 265.927 569.749 261.333 571.362C257.155 572.829 254.249 574.564 251.44 576.242C245.191 579.973 239.424 583.417 221.202 582.973C205.608 582.579 199.99 593.24 195.169 602.388C191.893 608.606 188.984 614.125 183.562 615.002C170.161 617.17 154.414 601.465 154.414 601.465C154.414 601.465 165.101 586.571 155.786 570.999C152.263 565.157 151.412 563.746 150.83 563.809C150.645 563.83 150.487 563.999 150.278 564.223C149.416 565.149 147.692 567.001 139.598 563.004C123.41 555.009 140.21 550.335 140.21 550.335L113.553 557.215C113.553 557.215 102.644 579.8 93.1817 569.355C89.8078 567.488 88.8028 566.932 88.0972 566.204C87.7978 565.895 87.5524 565.555 87.2027 565.07C86.0291 563.444 83.6818 560.192 74.1821 551.029C64.3115 541.509 61.364 536.965 60.8104 534.797L61.8339 532.818C61.8339 532.818 60.2983 532.791 60.8104 534.797L43.6614 567.958C43.031 569.203 42.5954 570.313 42.2004 571.32C40.2203 576.367 39.2587 578.818 19.8901 582.605C12.6859 583.959 9.94491 584.475 9.71246 584.09C9.56969 583.853 10.3731 583.277 11.67 582.348C15.0786 579.904 21.8959 575.017 23.9019 567.429C26.5214 556.962 24.078 556.033 15.985 552.959C12.7181 551.718 8.5293 550.127 3.38281 547.418V862.248Z" fill="#2C1C0D"/>
<path fill-rule="evenodd" clip-rule="evenodd" d="M337.401 392.007C340.209 391.92 342.14 392.621 344.949 394.637C346.967 396.04 349.074 398.057 349.513 399.021C350.039 399.986 350.39 401.476 350.39 402.353C350.39 403.142 348.723 407.175 346.616 411.296C344.598 415.416 341.35 421.115 339.419 424.009C337.488 426.902 333.275 431.987 324.147 441.544L324.06 452.065C323.972 457.851 323.621 465.917 323.357 469.863C322.831 475.649 322.392 477.49 320.988 478.718C319.934 479.595 316.16 480.559 311.333 481.26C307.032 481.874 301.064 482.751 292.901 484.154L290.444 496.165C289.127 502.741 287.723 511.421 287.372 515.454C287.021 519.399 286.494 522.643 286.143 522.643C285.704 522.643 285.441 523.257 285.441 523.958C285.441 524.66 284.739 525.186 283.949 525.098H280.877C279.999 525.186 279.297 525.975 279.297 526.851C279.385 528.079 279.121 528.167 278.244 527.202C277.366 526.413 276.488 526.413 274.733 527.027C272.626 527.728 272.1 527.641 271.398 526.15C270.871 525.186 269.467 524.134 268.15 523.871C266.307 523.52 265.166 523.871 263.674 525.449C262.621 526.501 261.743 527.991 261.743 528.605C261.743 529.131 260.426 529.92 258.934 530.183C257.354 530.534 255.687 531.235 255.336 531.761C254.809 532.463 254.458 532.463 254.195 531.674C254.019 530.972 252.264 530.534 249.894 530.534C246.734 530.534 245.944 530.797 245.944 532.112C245.903 532.772 245.881 533.122 245.76 533.16C245.623 533.204 245.361 532.855 244.803 532.112C244.189 531.235 243.399 530.622 242.872 530.534C242.346 530.534 241.468 525.361 240.854 518.961C240.152 512.56 239.098 506.248 238.396 504.933C237.694 503.53 236.992 502.565 236.816 502.741C236.641 502.829 235.237 505.897 233.657 509.492C231.024 515.717 230.76 516.857 230.234 530.534C229.883 540.003 229.97 545.263 230.585 545.614C231.024 545.965 232.34 546.315 233.481 546.315C235.061 546.315 235.5 545.702 235.851 542.808C236.114 540.88 236.816 539.038 237.431 538.775C237.957 538.425 239.362 538.425 240.503 538.775C242.258 539.214 242.346 539.74 241.995 543.247C241.731 545.439 241.819 547.017 242.258 546.841C242.609 546.666 243.399 544.737 244.014 542.458C244.803 539.389 245.506 538.425 246.822 538.425C247.788 538.425 248.753 537.899 249.016 537.372C249.367 536.496 249.543 536.496 249.894 537.372C250.157 537.899 251.737 538.425 253.405 538.425C255.424 538.425 256.828 537.899 257.442 536.934C258.057 535.794 258.408 535.707 258.759 536.496C258.934 537.022 259.9 537.548 260.865 537.548C261.831 537.548 262.796 537.899 263.06 538.425C263.323 538.951 264.376 539.652 265.517 540.09C266.658 540.529 268.238 540.441 269.467 539.827C270.52 539.301 271.398 538.6 271.398 538.249C271.398 537.811 272.451 536.408 273.855 535.005C275.435 533.31 276.518 532.755 277.103 533.339C277.688 533.924 278.858 533.807 280.614 532.989C282.018 532.375 283.422 530.885 283.773 529.657C284.388 527.553 284.388 527.553 284.475 529.482C284.563 530.534 284.826 531.411 285.265 531.411C285.616 531.411 286.406 536.846 287.021 543.422C287.723 550.085 288.513 555.784 288.776 556.135C289.127 556.486 296.324 558.151 304.75 559.905C313.176 561.658 320.724 563.237 321.426 563.5C322.129 563.675 323.796 565.341 325.113 567.182C325.289 567.417 325.477 567.666 325.676 567.931C326.961 569.639 328.725 571.984 331.081 575.248L317.477 581.561L306.506 578.317C300.449 576.563 294.481 574.722 293.165 574.284C291.76 573.845 290.707 573.758 290.707 574.196C290.707 574.547 291.673 583.49 292.901 594.098C293.651 600.571 294.466 607.924 295.127 613.889C295.55 617.701 295.909 620.946 296.149 623.031C296.939 631.097 296.851 633.114 295.798 635.306C295.008 636.796 293.077 638.637 291.058 639.602C288.864 640.654 286.67 641.004 285.002 640.654C283.598 640.391 281.316 639.076 279.911 637.76C277.805 635.656 277.366 634.078 276.313 626.538C275.611 621.716 273.767 606.46 272.1 592.52C270.081 574.547 268.852 567.357 268.15 567.357C267.36 567.357 267.185 568.322 267.448 570.689C267.711 572.443 267.975 575.336 267.975 577.002C268.062 578.755 265.517 587.172 262.27 596.29C259.022 605.233 256.214 612.685 255.95 612.948C255.687 613.211 255.687 611.809 256.038 609.88C256.301 607.951 257.091 601.025 257.793 594.537C258.391 589.632 259.088 583.123 259.62 578.155L259.628 578.089C259.797 576.512 259.949 575.093 260.075 573.933C260.514 569.111 260.778 564.99 260.514 564.727C260.163 564.464 259.724 564.639 259.373 565.078C258.934 565.429 257.003 580.684 254.985 598.833C252.878 616.981 251.035 632.588 250.86 633.552C250.596 634.516 249.367 636.445 247.963 637.76C246.647 639.076 244.365 640.391 242.872 640.741C241.205 641.004 239.011 640.566 236.816 639.602C234.622 638.55 232.867 636.884 231.989 635.043C230.673 632.237 230.76 630.483 233.481 606.986C234.481 598.217 235.622 588.745 236.48 581.618L236.481 581.615L236.481 581.611C236.979 577.483 237.381 574.141 237.606 572.179C238.308 566.831 239.098 561.658 239.362 560.606C239.625 559.467 239.449 558.59 238.923 558.59C238.396 558.59 237.782 559.993 237.431 561.746C236.992 563.5 236.553 565.078 236.29 565.165C236.026 565.341 234.71 565.165 233.306 564.902C231.111 564.376 230.848 564.026 231.287 561.658C231.367 561.32 231.451 560.96 231.536 560.593C231.828 559.342 232.137 558.02 232.34 557.275C232.779 555.96 232.428 555.434 230.848 554.995C229.531 554.644 228.039 555.083 226.635 556.135C225.406 557.012 223.475 557.801 222.247 557.713C221.018 557.713 219.175 557.012 218.209 556.135C217.156 555.346 215.927 553.855 215.401 552.891C214.962 551.927 213.733 550.874 212.68 550.524C211.626 550.085 210.837 550.173 210.837 550.699C210.837 551.225 210.047 551.576 209.081 551.576C208.116 551.576 207.15 551.225 206.887 550.699C206.624 550.173 207.15 547.28 208.028 544.123C208.993 540.266 209.871 538.512 210.661 538.863C211.188 539.126 212.153 539.301 212.592 539.301C213.119 539.301 213.47 539.915 213.47 540.616C213.47 541.318 213.908 541.932 214.347 541.932C214.874 541.932 215.401 540.616 215.664 539.126C215.839 537.548 216.19 531.148 216.366 524.835C216.717 513.613 216.805 513.262 224.88 494.149L232.955 493.973C234.134 493.95 235.479 493.884 236.889 493.786C253.356 508.346 258.584 513.701 258.568 516.073C258.525 516.349 258.5 516.5 258.5 516.5C258.544 516.369 258.567 516.228 258.568 516.073C258.905 513.899 260.332 503.995 259 500C257.828 496.483 257.572 491.746 257.516 489.843C259.087 489.337 260.554 488.826 261.743 488.362C265.342 486.959 270.871 484.329 273.943 482.576C277.015 480.734 281.755 477.227 284.475 474.772L284.652 474.614C289.392 470.386 289.508 470.283 299.045 468.811C304.399 468.021 308.875 467.145 309.139 466.882C309.402 466.619 309.665 463.024 310.016 451.626L304.575 454.169C301.503 455.572 295.885 457.588 292.024 458.553C286.582 459.955 284.826 460.131 284.388 459.254C284.037 458.728 283.685 457.939 283.685 457.588C283.685 457.15 285.178 456.448 287.021 455.922C288.776 455.309 292.638 453.73 295.534 452.328C298.431 450.837 302.819 448.207 305.189 446.453C308.612 443.911 309.753 442.42 310.28 439.965C310.631 437.949 311.772 436.02 313.352 434.968C314.668 433.916 316.424 433.127 317.301 433.215C318.179 433.215 319.934 431.286 321.778 428.217C323.445 425.411 325.99 420.151 327.483 416.556C328.887 412.962 330.73 406.474 331.52 402.09C331.672 401.333 331.821 400.586 331.964 399.866L331.965 399.862C332.653 396.415 333.218 393.582 333.363 393.147C333.539 392.446 335.206 392.007 337.401 392.007ZM336.786 392.884C337.488 392.884 339.156 393.322 340.56 393.848C341.877 394.287 344.247 396.04 345.826 397.531C347.406 399.109 348.635 401.213 348.635 402.265C348.635 403.931 348.108 404.282 345.739 404.282C343.983 404.282 341.526 403.317 339.156 401.652C337.137 400.249 335.206 398.145 334.943 397.005C334.592 395.953 334.68 394.55 334.943 393.936C335.294 393.41 336.172 392.884 336.786 392.884ZM263.937 548.069C266.307 548.069 267.097 548.507 267.448 549.822C267.711 550.787 267.536 551.751 267.009 552.014C266.483 552.277 265.956 552.102 265.693 551.576C265.429 551.05 264.288 550.699 263.06 550.699C261.655 550.699 260.865 550.173 260.865 549.384C260.865 548.507 261.831 548.069 263.937 548.069ZM276.401 556.047C257.706 552.102 242.083 548.946 241.644 548.946C241.205 548.946 240.59 549.647 240.327 550.524C239.976 551.313 239.888 552.014 239.976 552.102C240.113 552.17 252.102 555.118 268.697 559.199C273.381 560.351 278.431 561.593 283.685 562.886C307.559 568.76 327.219 573.407 327.307 573.319C327.395 573.144 325.99 571.303 324.147 569.111C321.251 565.692 320.198 564.99 315.634 564.113C313.949 563.798 306.928 562.347 297.525 560.403L297.513 560.401C291.242 559.105 283.913 557.59 276.401 556.047ZM240.415 553.417C240.854 553.417 260.514 558.239 327.131 574.985L322.304 577.265C317.828 579.281 317.214 579.369 313.527 578.317C311.333 577.703 299.133 574.196 286.319 570.426C279.974 568.603 272.897 566.543 266.581 564.705L266.573 564.702C260.136 562.829 254.488 561.185 251.211 560.256C244.716 558.327 239.186 556.573 238.923 556.398C238.66 556.135 238.747 555.346 239.098 554.645C239.449 553.943 240.064 553.329 240.415 553.417Z" fill="#2C1C0D"/>
<path d="M239.362 413.049C241.293 413.049 244.628 413.663 246.822 414.364C249.016 415.153 252.352 416.819 254.195 418.134C256.126 419.45 258.759 422.255 262.708 428.392L252.966 431.461L248.841 427.165C245.769 424.096 243.487 422.606 240.678 421.817C237.957 421.203 235.851 421.115 234.096 421.729C232.691 422.167 229.707 422.869 223.563 423.833L225.231 421.291C226.108 419.888 227.688 418.047 228.742 417.17C229.707 416.293 231.813 414.978 233.218 414.364C234.71 413.663 237.431 413.137 239.362 413.049Z" fill="#2C1C0D"/>
<path d="M241.117 426.727C239.186 425.85 235.412 425.061 232.779 424.885C230.146 424.71 226.547 424.885 224.88 425.324C223.212 425.762 220.842 426.902 219.614 427.779C218.385 428.655 216.542 430.76 215.401 432.425C214.26 434.091 212.943 436.985 212.416 438.913C211.978 440.842 211.714 444.437 211.978 446.804C212.153 449.259 213.206 453.204 214.26 455.572C215.313 458.027 217.419 461.271 218.999 462.849C220.579 464.427 221.983 465.654 222.247 465.654C222.51 465.654 221.369 462.936 219.789 459.692C217.858 455.835 216.717 452.065 216.454 448.558C216.103 444.525 216.366 442.596 217.595 440.316C218.472 438.65 220.316 436.458 221.632 435.494C223.475 434.179 225.319 433.653 228.654 433.741C231.199 433.741 234.096 434.267 235.237 434.793C236.29 435.406 238.747 437.248 240.678 438.913L244.189 441.982C243.048 454.081 243.224 455.133 245.33 459.517C246.559 462.147 248.753 465.391 250.07 466.706L252.527 469.161L260.778 458.202C258.759 450.048 258.408 447.506 258.759 447.243C259.11 446.979 261.919 446.103 265.166 445.226C268.326 444.437 273.241 443.736 276.049 443.736C278.77 443.736 281.052 443.472 281.052 443.122C281.052 442.683 279.911 440.755 278.419 438.738C277.015 436.634 274.119 434.091 272.1 433.039C269.467 431.724 266.658 431.11 263.06 431.11C259.637 431.023 256.828 431.549 254.985 432.601L252.088 434.091C246.296 429.444 243.048 427.516 241.117 426.727Z" fill="#2C1C0D"/>
<path d="M223.739 436.722C224.529 436.722 224.88 437.949 224.88 440.492C224.88 442.508 225.055 445.752 225.757 451.188L223.563 446.804C222.422 444.437 221.281 441.368 221.193 440.141C221.106 438.913 221.369 437.598 221.808 437.335C222.247 436.985 223.037 436.722 223.739 436.722Z" fill="#2C1C0D"/>
<path d="M281.667 449.873L280.614 445.927C272.451 445.664 268.589 446.015 266.834 446.453C264.99 446.892 262.708 447.681 261.743 448.119C260.075 448.996 260.075 449.171 261.304 453.818L262.621 458.64C256.477 466.794 254.721 469.337 254.721 469.6C254.721 469.863 256.126 470.652 257.793 471.353C259.461 472.055 262.357 472.668 264.201 472.668C265.956 472.668 269.555 471.704 272.1 470.476C275.084 469.074 277.454 467.145 278.858 465.041C279.999 463.199 281.316 459.955 281.842 457.764C282.369 455.046 282.369 452.591 281.667 449.873Z" fill="#2C1C0D"/>
<path d="M244.101 463.024C244.365 463.024 246.208 464.865 248.139 467.145C250.157 469.512 253.317 471.967 255.599 472.931C257.793 473.896 261.48 474.685 263.937 474.685C266.395 474.685 269.906 473.983 271.837 473.194C273.767 472.405 276.401 470.652 277.717 469.337C279.999 467.057 280.262 467.057 282.896 468.285C284.388 468.986 285.792 469.863 285.967 470.301C286.143 470.652 283.422 473.019 279.999 475.649C276.488 478.279 270.257 482.05 266.131 483.978C262.006 485.995 255.511 488.362 251.649 489.327C247.788 490.379 240.415 491.431 225.933 492.395L225.319 488.45C224.967 485.732 225.231 483.277 226.196 480.559C226.986 478.367 228.742 475.211 230.058 473.545C231.375 471.879 234.973 468.811 238.045 466.794C241.029 464.69 243.838 463.024 244.101 463.024Z" fill="#2C1C0D"/>
<path d="M230.321 470.301C232.34 468.197 233.393 466.531 232.691 466.531C231.989 466.619 228.478 467.758 224.88 469.074C221.281 470.476 214.523 473.37 209.959 475.474C205.395 477.666 196.618 482.225 190.474 485.644C184.242 489.151 174.588 494.762 168.97 498.269C163.265 501.689 152.908 508.264 145.887 512.823C138.514 517.558 133.511 521.328 134.038 521.766C134.284 521.93 135.389 522.761 137.014 523.984C138.874 525.383 141.415 527.295 144.131 529.306C149.222 533.076 157.56 540.353 162.651 545.439C167.742 550.524 173.622 557.187 175.729 560.343C177.835 563.5 180.644 568.409 182.048 571.303C183.365 574.196 185.032 579.544 185.734 583.139C186.349 586.734 187.665 591.117 188.455 592.783C189.333 594.449 192.054 597.868 194.511 600.236C196.969 602.69 202.147 606.285 206.009 608.302C209.871 610.23 216.717 613.211 221.106 614.877C225.582 616.455 229.444 617.595 229.619 617.332C229.883 617.069 230.848 609.967 231.813 601.551C232.867 593.134 234.096 583.051 234.534 579.193C235.061 575.336 235.412 571.127 235.412 569.812C235.412 567.708 234.973 567.27 231.901 566.481C229.093 565.779 228.478 565.253 228.917 564.113C229.18 563.237 229.707 561.22 229.97 559.642C230.321 557.976 230.234 556.836 229.707 556.836C229.268 556.836 228.039 557.45 227.074 558.151C226.108 558.941 223.826 559.467 222.071 559.467C219.614 559.467 218.034 558.765 216.278 557.099C214.874 555.697 213.47 554.031 213.206 553.329C212.767 552.365 212.504 552.277 212.153 553.154C211.802 553.943 210.837 554.031 208.203 553.329C205.746 552.716 204.693 552.014 204.78 550.962C204.78 550.085 205.483 546.666 206.36 543.247L206.399 543.1C207.94 537.196 207.962 537.112 210.661 537.372C213.382 537.548 213.47 537.372 213.557 534.304C213.557 532.463 213.908 526.676 214.26 521.328C214.874 512.473 215.225 510.895 219.087 502.039C222.422 494.412 223.3 491.343 223.388 487.398C223.475 484.592 224.178 480.471 225.143 478.192C226.021 475.825 228.39 472.318 230.321 470.301Z" fill="#2C1C0D"/>
<path d="M237.431 508.177C237.87 508.44 238.484 512.385 238.66 517.12C238.835 521.854 239.274 528.254 239.625 531.323C240.239 536.846 240.239 536.846 238.045 536.583C236.202 536.233 235.763 536.671 234.798 540.441C234.183 542.721 233.306 544.562 232.779 544.562C232.252 544.562 232.077 539.827 232.428 531.235C232.779 520.714 233.306 516.769 234.71 512.823C235.763 510.106 236.992 508.001 237.431 508.177Z" fill="#2C1C0D"/>
<path d="M270.081 527.29C269.379 526.15 268.15 525.273 267.448 525.273C266.834 525.273 265.605 526.15 264.815 527.202C263.937 528.254 263.323 530.446 263.411 532.024C263.498 533.602 263.937 535.707 264.376 536.671C264.903 537.636 266.131 538.425 267.272 538.425C268.326 538.337 269.642 537.723 270.257 536.846C270.871 536.057 271.398 533.953 271.398 532.287C271.398 530.622 270.783 528.342 270.081 527.29Z" fill="#2C1C0D"/>
<path d="M1581 878.576L1570.04 909.116C1559.08 938.925 1537.17 1001.1 1515.25 1024.88C1493.33 1048.65 1471.42 1037.68 1449.5 1030.91C1427.58 1024.88 1405.67 1024.88 1383.75 1000.56C1361.83 975.501 1339.92 927.953 1318 951.727C1296.08 975.501 1274.17 1074.26 1252.25 1091.99C1230.33 1110.83 1208.42 1048.65 1186.5 1024.88C1164.58 1001.1 1142.67 1012.08 1120.75 1049.2C1098.83 1085.23 1076.92 1147.41 1055 1165.15C1033.08 1183.98 1011.17 1158.38 989.25 1122.35C967.333 1085.23 945.417 1037.68 923.5 1012.63C901.583 988.302 879.667 988.302 857.75 1000.56C835.833 1012.08 813.917 1037.68 792 1024.88C770.083 1012.08 748.167 964.528 726.25 970.015C704.333 975.501 682.417 1037.68 660.5 1079.74C638.583 1121.8 616.667 1147.41 594.75 1152.89C572.833 1158.38 550.917 1147.41 529 1152.89C507.083 1158.38 485.167 1183.98 463.25 1189.47C441.333 1194.95 419.417 1183.98 397.5 1183.43C375.583 1183.98 353.667 1194.95 331.75 1158.93C309.833 1121.8 287.917 1037.68 266 1030.91C244.083 1024.88 222.167 1098.03 200.25 1091.99C178.333 1085.23 156.417 1001.1 134.5 1000.56C112.583 1001.1 90.6667 1085.23 68.75 1085.78C46.8334 1085.23 24.9167 1001.1 13.9584 957.762L3.00005 915.151V842H13.9584C24.9167 842 46.8334 842 68.75 842C90.6667 842 112.583 842 134.5 842C156.417 842 178.333 842 200.25 842C222.167 842 244.083 842 266 842C287.917 842 309.833 842 331.75 842C353.667 842 375.583 842 397.5 842C419.417 842 441.333 842 463.25 842C485.167 842 507.083 842 529 842C550.917 842 572.833 842 594.75 842C616.667 842 638.583 842 660.5 842C682.417 842 704.333 842 726.25 842C748.167 842 770.083 842 792 842C813.917 842 835.833 842 857.75 842C879.667 842 901.583 842 923.5 842C945.417 842 967.333 842 989.25 842C1011.17 842 1033.08 842 1055 842C1076.92 842 1098.83 842 1120.75 842C1142.67 842 1164.58 842 1186.5 842C1208.42 842 1230.33 842 1252.25 842C1274.17 842 1296.08 842 1318 842C1339.92 842 1361.83 842 1383.75 842C1405.67 842 1427.58 842 1449.5 842C1471.42 842 1493.33 842 1515.25 842C1537.17 842 1559.08 842 1570.04 842H1581V878.576Z" fill="url(#paint0_linear_296_9)"/>
<defs>
<linearGradient id="paint0_linear_296_9" x1="1581" y1="842" x2="1581" y2="1191" gradientUnits="userSpaceOnUse">
<stop stop-color="#2C1C0D"/>
<stop offset="1"/>
</linearGradient>
</defs>
</svg>
