<svg width="1440" height="1597" viewBox="0 0 1440 1597" fill="none" xmlns="http://www.w3.org/2000/svg">
<path d="M431.014 747.797C430.087 748.238 428.945 749.328 428.265 749.024C406.547 739.302 383.607 735.73 360.98 730.447C345.48 726.829 330.165 722.026 314.923 717.1C309.432 715.326 304.307 711.741 304.1 701.535C307.347 702.764 309.963 703.429 312.334 704.709C323.006 710.469 338.458 709.424 343.618 700.163C350.576 687.673 354.258 673.201 353.241 657.969C352.468 646.4 345.662 636.269 337.744 633.923C325.72 630.361 316.082 621.682 304.688 617.863C295.475 614.775 283.353 626.812 280.847 639.459C280.487 641.275 280.44 643.175 280.029 647.156C268.684 634.786 257.619 627.09 242.113 634.575C225.068 642.803 227.293 658.403 229.283 674.527C220.139 671.809 215.553 664.812 214.541 655.653C212.544 637.588 220.599 626.035 232.289 616.645C239.618 610.758 246.022 604.301 248.183 593.504C251.145 578.709 243.043 564.734 230.058 563.796C225.158 563.442 222.469 562.337 220.297 556.359C213.719 538.257 190.842 535.236 180.703 551.062C177.225 556.491 174.96 556.247 170.838 552.705C158.911 542.454 145.34 549.399 138.998 561.201C132.773 572.784 137.284 591.524 148.453 598.173C158.385 604.085 168.959 608.537 179.238 613.666C180.933 614.512 182.565 615.529 184.024 617.494C167.794 620.18 151.418 621.802 137.632 609.036C125.302 597.618 114.382 584.165 102.267 572.407C88.546 559.091 74.1872 546.663 60.439 534.152C83.7516 512.811 83.7516 512.811 76.4573 484.854C92.2708 478.215 96.9656 472.324 95.4116 456.924C94.7804 450.67 90.2994 444.973 87.7205 438.935C86.6749 436.487 84.6483 432.833 85.4079 431.381C96.0393 411.059 83.9957 395.772 69.6494 386.409C51.0981 374.3 38.5626 377.117 19.7065 397.411C14.7186 382.35 6.30463 372.542 -8.17981 371.568C-23.0729 370.566 -31.59 379.994 -36.1601 391.794C-45.7548 391.669 -54.1161 389.95 -61.6737 392.081C-66.0306 393.309 -70.3713 400.084 -72.4997 405.534C-80.1107 425.02 -75.6356 440.009 -60.3765 449.831C-65.7154 455.816 -75.6191 456.229 -81.0576 448.81C-86.4126 441.504 -90.7968 432.849 -94.1587 424.04C-100.738 406.799 -101.567 386.306 -114.342 372.707C-118.57 368.207 -125.242 366.809 -131.474 364C-132.152 409.473 -132.152 454.937 -131.605 501.481C-121.386 509.823 -111.917 517.488 -102.005 524.278C-55.5034 556.132 -8.966 587.918 37.7462 619.352C54.3203 630.505 71.2079 641.1 88.3501 651.022C105.422 660.903 122.993 669.62 140.917 678.847C144.447 680.64 147.404 682.434 150.958 684.288C156.62 686.981 161.686 689.614 167.227 692.341C168.174 692.93 168.646 693.423 169.704 693.94C179.025 698.355 187.762 702.747 197.115 707.167C201.369 709.154 205.008 711.112 209.248 713.048C219.265 717.236 228.68 721.446 238.715 725.855C252.271 731.38 265.13 736.972 278.155 741.983C330.491 762.121 383.402 779.787 437.764 791.027C457.534 795.115 477.333 799.014 497.119 803C497.412 802.067 497.706 801.135 498 800.202C473.406 786.529 450.972 769.237 431.014 747.797Z" fill="#F0F9FF"/>
<path d="M429 1137.84C427.428 1134.94 425.856 1132.05 424.284 1129.15C412.965 1108.72 403.533 1088.93 395.044 1067.22C391.586 1058.37 387.97 1050.65 379.795 1045.98C376.808 1044.21 370.206 1041.96 368.477 1038.42C367.376 1036.01 368.005 1031.34 368.162 1028.93C368.162 1022.33 368.162 1015.74 368.162 1009.3C368.162 1000.13 370.677 986.783 368.005 977.935C361.402 978.739 354.014 988.391 349.927 992.896C345.21 998.204 340.337 1003.67 336.093 1009.3C326.818 1022.01 319.743 1035.69 309.682 1047.91C303.551 1055.31 297.106 1057.4 287.988 1057.4C280.285 1057.4 275.884 1057.57 270.224 1063.36C266.766 1066.9 267.395 1069.79 262.679 1068.99C260.478 1068.67 256.233 1065.77 253.875 1064.64C246.487 1061.27 239.884 1055.8 235.325 1048.88C232.338 1044.21 232.338 1043.41 226.836 1042.77C223.692 1042.44 220.076 1042.28 217.404 1040.19C210.644 1034.88 209.072 1019.28 207.972 1011.23C207.343 1006.57 207.972 994.504 201.369 994.826C200.426 999.331 199.797 1002.39 198.225 1006.73C196.181 1012.2 194.452 1017.83 192.723 1023.46C191.622 1026.84 191.308 1033.43 189.264 1036.01C187.535 1038.42 185.02 1038.9 182.347 1040.67C177.946 1043.57 171.029 1050.49 168.199 1054.99C165.369 1059.66 164.112 1066.73 163.64 1073.17C163.483 1072.69 163.326 1072.37 163.326 1071.88C160.968 1062.55 157.981 1053.22 154.994 1044.21C152.479 1036.65 148.234 1029.41 149.335 1021.21C150.121 1015.9 153.108 1011.4 153.265 1005.93C153.579 997.078 149.02 987.909 147.134 979.222C144.147 964.583 144.304 949.944 144.304 934.983C144.619 904.9 146.662 873.852 142.26 844.092C139.588 825.752 132.985 808.379 129.213 790.2C127.641 782.318 119.78 742.744 114.435 744.031C110.82 744.996 108.776 756.096 107.99 759.313C105.789 767.196 106.89 775.883 106.732 784.087C106.575 796.635 104.217 808.379 102.645 820.765C100.601 836.37 103.746 852.457 101.388 867.9C100.759 872.244 98.8723 876.105 97.7718 880.287C94.1562 892.996 96.9858 906.509 94.7849 919.378C91.4837 937.878 92.7413 956.861 92.7413 975.844C92.7413 1003.67 92.4269 1031.34 92.5841 1059.17C92.5841 1070.27 93.2129 1081.21 93.6845 1092.31C91.4837 1091.35 89.44 1090.87 87.3964 1089.58C82.3659 1086.2 79.0646 1080.57 73.8769 1077.35C66.1739 1072.37 56.2701 1072.2 48.0955 1068.83C39.7637 1065.29 35.8336 1060.78 30.6458 1053.22C27.659 1048.72 25.9297 1046.14 21.3708 1043.89C13.5106 1039.71 11.467 1036.97 9.73774 1028.13C7.37969 1016.7 3.29239 1005.77 2.97798 994.022C2.82078 989.035 4.07842 983.244 2.82079 978.257C-8.65508 978.417 -3.93896 1011.56 -3.78176 1018.96C-3.46735 1058.69 -10.6987 1098.27 -14 1138H429V1137.84Z" fill="#291120"/>
<path d="M1526.06 1058.08C1530.94 1055.86 1533.39 1053.05 1533.71 1048.32C1534.36 1036.63 1533.71 1024.8 1533.71 1013.12C1533.71 1006.46 1533.39 1001.29 1531.76 995.073C1530.29 989.158 1528.99 981.171 1528.67 975.107C1528.34 969.339 1528.02 963.867 1527.53 958.395C1527.2 954.846 1526.55 951.148 1525.9 947.303C1524.27 939.021 1522.48 930.886 1520.21 922.604C1516.14 908.11 1510.77 893.912 1504.58 880.01C1498.4 866.108 1494.5 851.466 1484.25 839.782C1480.02 835.049 1474.97 830.76 1471.07 825.732C1467.81 821.443 1468.79 819.816 1468.14 815.231C1467.32 809.759 1464.07 805.174 1463.09 799.702C1462.12 793.934 1460.33 788.758 1458.21 783.138C1456.58 778.849 1454.63 774.559 1452.84 770.27C1452.35 769.087 1451.87 767.904 1451.38 766.721C1449.91 762.728 1448.61 761.249 1446.66 757.404C1444.87 754.15 1444.71 753.262 1441.94 750.304C1437.38 745.572 1436.9 739.804 1434.94 734.036C1431.85 725.162 1428.27 715.105 1421.93 707.858C1418.35 703.717 1408.75 694.547 1402.07 694.991C1395.89 695.435 1397.19 697.505 1399.15 702.386C1401.91 709.041 1405.33 715.401 1407.12 722.352C1410.37 734.184 1413.3 746.015 1419.16 757.108C1423.23 764.65 1427.13 770.418 1430.22 778.405C1435.76 793.194 1433.97 808.724 1433.97 824.253C1433.97 835.937 1432.18 848.804 1433.8 860.34C1435.11 868.622 1441.13 877.939 1446.66 883.855C1450.89 888.44 1451.05 891.398 1450.89 897.166C1450.89 902.342 1450.89 907.519 1450.89 912.843C1450.89 918.611 1450.89 924.379 1450.89 930.147V1012.67C1455.12 1004.54 1451.05 1013.56 1450.73 1023.32C1450.56 1028.35 1450.89 1033.53 1450.89 1038.7C1450.89 1044.32 1449.91 1049.5 1455.45 1052.75C1460.16 1055.42 1469.93 1056.45 1475.62 1057.63C1479.04 1058.37 1482.78 1059.11 1486.69 1059.85H1520.69C1522.65 1059.41 1524.6 1058.82 1526.06 1058.08Z" fill="#2B201F"/>
<path d="M1421.28 1035.15C1421.11 1036.48 1421.76 1038.11 1421.44 1039.44C1420.79 1042.1 1419.49 1043.58 1418.83 1045.95C1417.37 1051.42 1419.16 1054.53 1415.58 1059.7C1415.58 1059.85 1415.42 1060 1415.25 1060H1256.93C1258.72 1057.78 1259.86 1055.27 1260.51 1052.61C1262.14 1046.99 1262.3 1040.63 1263.77 1035.15C1268.65 1016.67 1281.99 1001.73 1288.01 983.685C1292.24 970.818 1294.68 961.649 1294.52 948.19C1294.52 937.098 1294.52 925.858 1294.52 914.765C1294.52 892.581 1296.47 869.657 1294.36 847.62C1292.57 829.133 1286.87 810.942 1285.25 792.307C1284.6 784.764 1282.81 772.341 1285.25 764.65C1291.43 765.538 1292.89 782.694 1294.52 786.687C1298.26 796.596 1302.66 805.914 1304.93 816.266C1306.89 825.14 1310.47 826.619 1316.49 833.127C1323.16 840.373 1325.11 850.874 1326.9 859.896C1329.99 877.052 1333.74 894.06 1338.45 910.92C1340.08 916.688 1341.38 922.456 1342.68 928.372C1343.99 933.844 1347.89 935.323 1352.61 931.034C1357.49 926.597 1355.54 918.463 1355.54 912.843C1355.54 902.786 1355.54 892.581 1355.54 882.524C1355.54 869.657 1354.56 858.713 1350.98 846.141C1347.89 834.901 1341.55 823.217 1340.73 811.534C1340.41 805.766 1341.38 799.85 1341.06 793.934C1340.24 779.884 1333.57 767.017 1333.41 752.523C1333.25 736.254 1335.52 720.577 1328.69 705.048C1323.81 693.956 1323.81 684.047 1323.81 672.511C1323.81 666.447 1320.07 652.988 1328.69 651.214C1334.39 650.03 1336.5 652.397 1338.45 656.982C1343.82 669.701 1343.5 684.342 1343.34 697.653C1343.17 709.633 1340.73 723.979 1346.26 735.367C1349.03 741.283 1354.4 745.72 1357.33 751.635C1361.88 760.805 1364.65 770.862 1367.74 780.475C1370.51 789.201 1376.2 796.152 1379.46 804.73C1382.55 812.865 1385.64 822.034 1389.71 829.577C1394.59 838.895 1398.5 848.508 1403.86 857.825C1409.56 867.882 1407.93 878.975 1412.33 889.475C1415.74 897.757 1418.35 905.892 1420.3 914.47C1423.23 927.928 1422.58 942.57 1424.53 956.472C1426.64 972.149 1428.11 989.01 1426.16 1004.83C1424.86 1014.74 1422.58 1024.95 1421.28 1035.15Z" fill="#2B201F"/>
<path d="M1400.45 882.968C1400.45 883.855 1400.45 884.594 1400.45 885.482C1400.45 889.919 1402.4 894.356 1403.21 898.793C1403.7 901.455 1404.52 904.117 1405.17 906.779C1405.33 907.814 1405.98 909.589 1405.98 910.624C1405.98 911.66 1405.49 911.807 1404.84 912.547C1403.7 913.73 1402.89 915.061 1401.75 916.244C1400.29 917.871 1398.82 919.35 1397.84 921.273C1397.52 921.864 1396.22 923.491 1396.22 924.083C1398.98 923.195 1401.1 920.681 1404.19 921.273C1406.14 921.569 1406.96 923.639 1407.61 925.266C1408.42 927.632 1409.23 930.147 1409.72 932.513C1410.05 934.288 1409.72 935.915 1410.54 937.542C1411.02 938.429 1411.67 939.168 1412.16 940.056C1412.98 941.683 1413.14 943.457 1413.14 945.232C1413.14 946.415 1413.14 946.267 1412.16 946.415C1410.54 946.859 1408.42 946.859 1406.63 946.859C1404.52 946.859 1403.05 947.598 1401.1 948.338C1400.61 948.486 1399.63 949.077 1398.98 949.225C1397.84 949.373 1396.87 949.225 1395.73 949.373C1394.1 949.521 1392.64 950.113 1391.01 950.409C1389.55 950.704 1388.24 950.556 1386.78 950.852C1382.22 951.74 1380.11 956.62 1376.37 958.691C1373.44 960.318 1369.86 960.613 1366.44 960.613C1361.23 960.613 1355.7 962.536 1350.98 964.459C1348.87 965.346 1346.59 965.938 1344.31 966.529C1342.68 966.973 1341.06 967.565 1339.27 967.86C1335.69 968.452 1331.95 969.487 1328.53 970.375C1325.27 971.114 1322.51 972.889 1319.25 973.48C1316.81 973.924 1314.21 974.368 1311.77 974.959C1310.3 975.403 1309 976.143 1307.7 976.882C1306.56 977.621 1305.91 978.509 1305.1 979.396C1303.96 980.727 1303.8 981.319 1302.01 981.319C1300.22 981.319 1298.26 981.911 1296.8 983.094C1295.33 984.425 1294.36 986.495 1293.22 988.122C1292.08 989.453 1290.45 990.784 1289.64 992.263C1288.99 993.299 1289.15 994.038 1289.15 995.369C1289.15 997.44 1288.5 999.362 1288.66 1001.43C1288.66 1003.36 1288.34 1005.13 1288.01 1007.05C1287.69 1008.83 1287.04 1010.6 1287.04 1012.38C1287.04 1014.3 1288.83 1016.67 1290.45 1017.85C1296.47 1022.29 1304.12 1025.24 1311.93 1026.28C1318.11 1027.02 1324.62 1027.02 1330.81 1026.43C1334.55 1026.13 1338.13 1025.69 1341.71 1024.65C1345.78 1023.47 1349.68 1021.69 1353.42 1020.07C1357 1018.44 1360.58 1016.81 1364.49 1015.93C1367.58 1015.19 1370.67 1014.74 1373.93 1014C1377.83 1013.12 1381.74 1012.08 1384.99 1009.86C1388.9 1007.05 1392.8 1003.5 1396.05 999.954C1398.82 996.996 1402.07 994.925 1405.17 992.263C1409.23 988.566 1414.28 985.904 1417.7 981.467C1419.16 979.396 1418.83 976.734 1418.83 974.368C1418.83 972.445 1418.83 970.375 1418.83 968.452C1418.83 965.494 1418.51 962.388 1418.83 959.43C1419 957.803 1419.32 955.733 1419.81 954.254C1419.97 953.81 1420.3 953.514 1420.46 953.071C1420.79 952.183 1420.46 951.444 1420.46 950.556C1420.62 949.521 1420.95 948.782 1421.11 947.746C1421.11 946.859 1421.11 946.12 1421.11 945.232C1421.11 943.014 1420.14 941.091 1419.97 938.873C1419.97 937.394 1419.65 936.21 1419.49 934.731C1419.32 933.4 1419.65 932.069 1419.32 930.738C1418.67 927.78 1418.02 924.674 1417.7 921.717C1417.53 920.09 1416.88 918.463 1416.56 916.836C1416.23 915.505 1416.39 914.026 1416.07 912.695C1415.74 911.512 1415.58 910.624 1415.58 909.441C1415.58 908.11 1415.58 907.223 1415.25 905.892C1414.77 904.561 1414.44 903.082 1413.95 901.751C1413.3 900.419 1412.16 899.828 1411.35 898.645C1410.21 897.018 1409.23 894.947 1409.23 893.173C1409.23 890.806 1408.58 888.144 1408.1 885.926C1407.93 884.89 1407.28 884.003 1406.96 883.116C1406.47 881.784 1406.31 880.601 1405.82 879.27C1405.17 877.2 1404.03 875.425 1402.73 873.798C1401.75 872.615 1400.29 869.065 1398.5 868.917C1398.01 870.396 1398.33 872.319 1398.33 873.798C1398.33 875.425 1398.33 876.46 1399.15 877.791C1399.8 878.826 1400.77 880.01 1401.26 881.045C1401.75 883.263 1401.1 886.369 1400.45 882.968Z" fill="#38192D"/>
<path d="M1260.51 1052.61C1260.51 1055.12 1260.51 1057.49 1260.51 1060H1134.25C1134.9 1053.79 1135.55 1047.58 1135.71 1041.37C1136.04 1025.24 1149.05 1008.98 1154.59 993.742C1160.12 978.657 1164.19 962.832 1171.51 948.486C1173.95 943.605 1178.83 939.908 1181.6 935.175C1186.8 926.301 1187.13 918.019 1187.13 908.258C1186.97 894.799 1187.46 881.193 1187.29 867.734C1187.13 857.677 1185.01 849.543 1176.07 843.183C1170.21 839.042 1160.77 833.57 1153.29 832.831C1150.19 822.33 1159.96 811.386 1166.95 803.991C1172.49 798.075 1177.37 793.786 1184.2 789.497C1189.57 786.095 1195.59 779.884 1197.06 773.524C1197.71 770.418 1197.22 764.207 1197.06 761.544C1196.89 757.551 1195.59 757.403 1195.1 755.185C1194.13 750.452 1194.29 744.98 1194.45 740.099C1194.78 734.775 1198.68 730.93 1199.5 725.606C1199.82 723.535 1199.82 721.76 1199.66 719.985C1199.17 716.88 1197.71 714.365 1195.1 711.112C1190.55 705.196 1185.18 698.097 1182.74 690.998C1180.78 685.378 1180.78 680.053 1175.09 675.469C1170.86 671.919 1165.65 671.328 1160.12 669.849C1151.5 667.63 1144.01 665.116 1137.34 659.644C1129.2 652.988 1124.97 645.446 1130.51 635.684C1134.25 629.029 1144.34 622.817 1150.68 618.233C1154.91 615.275 1159.47 612.612 1163.7 609.655C1176.72 600.633 1190.71 592.942 1204.21 584.512C1209.42 581.258 1217.56 579.632 1220.32 574.011C1220.97 572.68 1220.49 570.758 1221.14 569.575C1222.11 567.948 1222.76 567.356 1224.07 567.06C1224.72 566.912 1225.69 566.912 1226.99 566.765C1234.15 566.469 1247.82 563.363 1249.29 572.237C1249.94 575.934 1248.31 580.075 1247.98 583.773C1247.5 589.541 1247.82 595.456 1247.82 601.224C1247.82 606.845 1247.82 612.317 1247.82 617.789C1247.82 625.036 1246.03 628.733 1242.29 635.093C1240.17 638.642 1237.57 641.009 1234.97 644.41C1231.71 648.699 1231.71 652.84 1230.09 657.277C1229.27 659.939 1228.13 660.975 1228.13 664.376C1228.13 666.595 1228.13 668.813 1228.13 671.032C1228.13 675.764 1227.97 680.645 1228.13 685.526C1228.3 693.66 1232.53 701.055 1235.94 708.45C1238.38 713.774 1240.5 719.098 1240.34 724.866C1240.17 736.106 1240.5 747.494 1240.34 758.734C1240.34 764.946 1240.99 766.573 1246.52 769.975C1255.31 775.299 1259.7 778.7 1259.86 788.757C1260.19 809.167 1248.47 822.922 1233.18 837.12C1223.25 846.289 1225.86 857.825 1225.69 869.805C1225.53 881.637 1228.3 891.546 1233.01 902.638C1236.59 911.068 1239.04 919.794 1241.8 928.52C1245.06 938.281 1249.12 947.303 1250.91 957.36C1253.19 970.67 1253.19 984.129 1254.66 997.44C1256.28 1011.93 1259.7 1026.87 1259.86 1041.37C1260.51 1045.06 1260.51 1048.91 1260.51 1052.61Z" fill="#2B201F"/>
<path d="M1163.54 658.756C1167.12 658.756 1169.88 659.939 1173.46 660.531C1175.25 660.827 1177.69 660.975 1179.48 660.827C1182.25 660.531 1183.88 658.608 1186.32 658.017C1191.2 656.686 1194.61 659.348 1197.87 662.01C1199.33 663.193 1201.45 663.933 1202.59 665.116C1203.73 666.299 1204.54 669.257 1204.7 670.884C1205.19 674.433 1204.21 677.835 1205.35 681.532C1206.17 684.194 1207.96 686.709 1208.61 689.371C1209.26 691.589 1209.58 693.66 1211.05 695.582C1212.68 697.801 1215.12 700.019 1215.44 702.682C1216.42 709.633 1204.54 704.604 1202.26 702.238C1200.15 700.019 1200.63 697.653 1199.01 695.287C1198.03 693.808 1197.06 694.399 1195.59 693.364C1194.29 692.477 1194.61 692.477 1194.61 690.85C1194.45 685.969 1196.57 681.532 1195.75 676.504C1195.43 674.433 1195.75 674.877 1193.64 674.581C1192.66 674.433 1191.36 674.581 1190.38 674.581C1187.62 674.581 1185.83 676.208 1182.9 675.321C1183.22 674.285 1185.18 674.285 1186.15 673.546C1186.8 672.954 1188.27 671.771 1188.43 670.588C1188.76 667.186 1181.76 668.517 1179.16 668.517C1176.07 668.517 1173.14 667.63 1170.53 666.595C1169.07 666.003 1167.77 665.855 1166.3 665.559C1165.65 665.412 1165.49 664.82 1164.68 664.672C1163.7 664.524 1162.56 664.968 1161.58 664.524C1161.26 663.045 1161.1 662.158 1160.44 660.975C1163.05 660.235 1166.14 661.27 1168.91 660.679C1168.91 660.235 1168.91 659.939 1163.54 658.756Z" fill="#38192D"/>
<path d="M1238.55 826.323C1236.76 825.731 1234.64 826.619 1233.18 827.506C1228.46 830.316 1224.23 835.493 1218.21 836.232C1214.14 836.824 1209.91 835.64 1205.68 836.676C1199.82 838.007 1194.29 840.077 1188.43 841.408C1188.76 842.739 1191.2 842.148 1192.5 842.148C1196.4 842.148 1199.82 842.592 1203.56 843.183C1206.98 843.775 1207.79 843.627 1207.79 846.585C1207.79 848.36 1207.79 850.134 1207.79 852.057C1207.79 853.98 1206.98 855.163 1206.66 856.938C1206.33 858.417 1206.66 860.339 1206.66 861.818C1206.66 865.22 1206.66 868.769 1206.66 872.171C1206.66 875.425 1206.66 878.678 1206.66 882.08C1206.66 884.003 1206.66 885.777 1206.66 887.7C1206.66 888.735 1206.33 890.066 1206.66 890.954C1207.14 891.841 1207.96 891.841 1208.61 892.581C1211.54 895.982 1212.02 900.715 1214.47 904.412C1216.09 906.927 1218.37 908.997 1220 911.363C1221.3 913.138 1222.11 915.209 1223.58 916.984C1224.23 917.871 1226.18 920.829 1227.16 920.977C1228.95 915.209 1223.41 911.955 1221.3 907.222C1219.35 902.786 1219.84 898.053 1219.84 893.468C1219.84 887.552 1219.84 881.636 1219.84 875.72C1219.84 873.354 1219.02 872.023 1218.7 869.805C1218.53 868.473 1219.18 866.995 1218.7 865.811C1218.37 864.628 1217.72 864.332 1217.56 862.853C1216.91 858.86 1216.74 852.648 1218.37 848.951C1219.35 846.585 1221.62 845.845 1223.25 844.071C1225.37 841.852 1226.18 838.894 1228.46 836.676C1231.55 833.718 1236.76 832.83 1239.69 829.872C1240.66 828.837 1240.99 828.246 1239.85 827.21C1239.69 826.767 1239.2 826.471 1238.55 826.323Z" fill="#38192D"/>
<path d="M1231.88 722.795C1231.88 729.451 1233.99 735.958 1232.85 742.614C1232.36 745.867 1231.39 749.121 1231.88 752.523C1232.2 754.297 1233.18 755.776 1233.99 757.403C1235.78 760.657 1236.76 764.65 1239.04 767.46C1241.15 769.975 1244.57 771.749 1246.68 774.263C1249.94 778.109 1249.12 783.285 1249.12 787.87C1249.12 788.905 1249.12 789.793 1249.12 790.828C1249.12 792.307 1248.47 792.899 1248.31 794.082C1247.82 796.004 1248.15 797.927 1248.15 799.85C1247.98 802.216 1246.85 804.582 1245.71 806.505C1244.73 807.984 1244.4 809.759 1243.59 811.386C1242.78 813.308 1241.96 814.344 1241.48 816.266C1241.15 817.154 1240.83 817.154 1240.66 818.485C1240.5 819.964 1241.15 820.999 1239.85 822.182C1239.2 820.851 1239.52 818.928 1239.69 817.745C1239.69 814.787 1239.36 811.533 1239.69 808.576C1240.01 805.913 1241.31 803.695 1242.45 801.329C1244.24 797.187 1245.87 789.201 1242.78 785.356C1240.5 782.546 1236.92 780.919 1233.34 780.031C1229.76 779.144 1226.34 779.292 1222.76 779.292C1220.32 779.292 1216.26 780.031 1213.98 779.144C1213.81 775.151 1219.35 775.447 1222.11 775.299C1225.2 775.151 1228.78 773.968 1229.27 770.714C1229.92 765.39 1229.92 758.291 1227.81 753.558C1226.83 751.192 1225.86 748.677 1225.86 746.163C1226.02 742.909 1227.48 739.951 1228.13 736.846C1228.46 735.515 1228.3 734.183 1228.62 732.852C1229.11 731.226 1229.6 729.599 1230.09 727.972C1230.09 725.753 1230.25 722.352 1231.88 722.795Z" fill="#38192D"/>
<path d="M1240.01 604.774C1240.01 605.957 1240.01 606.992 1239.85 608.027C1239.36 611.281 1239.04 614.535 1238.71 617.789C1238.55 618.824 1238.55 620.007 1238.55 621.042C1238.55 621.782 1238.71 622.521 1238.55 623.261C1238.06 625.479 1235.46 627.402 1233.67 628.733C1229.92 631.839 1225.86 634.945 1222.76 638.642C1221.46 640.269 1220.32 641.896 1218.86 643.523C1217.07 645.445 1214.79 646.924 1212.51 648.551C1210.89 649.734 1209.1 650.77 1207.31 651.805C1206 652.544 1204.7 653.136 1203.89 654.319C1203.4 654.911 1202.91 656.242 1203.89 656.538C1205.52 656.981 1207.96 654.763 1208.93 654.023C1210.56 652.988 1212.02 651.953 1213.81 651.361C1214.79 650.917 1215.77 650.622 1216.58 650.03C1217.07 649.734 1217.88 649.586 1218.37 649.291C1217.88 652.692 1216.09 655.798 1215.93 659.348C1215.6 663.932 1214.3 668.369 1214.3 672.954C1214.3 674.137 1214.3 675.025 1214.95 676.208C1215.44 677.243 1216.26 677.835 1217.07 678.722C1218.7 680.645 1219.51 683.159 1221.14 684.934C1221.79 683.011 1220.81 680.645 1220.32 678.87C1219.35 674.877 1220 670.44 1220.65 666.447C1220.97 663.932 1221.46 661.418 1222.11 658.904C1222.28 657.869 1222.44 656.981 1222.76 655.946C1223.41 654.171 1224.55 652.544 1225.37 650.77C1225.69 650.03 1225.86 649.291 1226.02 648.699C1226.34 647.516 1226.99 646.628 1227.81 645.741C1228.62 644.558 1229.6 643.227 1230.57 642.192C1231.88 640.86 1233.18 639.529 1234.15 638.198C1234.8 637.163 1235.78 636.424 1236.43 635.388C1237.25 634.205 1237.9 633.022 1238.71 631.839C1240.01 630.064 1241.31 628.585 1241.96 626.662C1242.29 625.775 1242.29 624.888 1242.29 623.852C1242.29 621.486 1242.45 618.972 1241.96 616.605C1241.64 615.126 1241.8 613.352 1241.8 611.873C1241.8 610.246 1241.8 608.767 1241.8 607.14C1241.8 606.548 1242.13 604.922 1241.8 604.478C1241.15 603.295 1239.69 604.774 1240.01 604.774Z" fill="#38192D"/>
<path d="M1297.45 837.12C1297.29 839.634 1298.1 842 1298.43 844.662C1298.75 847.325 1298.91 849.987 1299.24 852.649C1299.57 855.459 1299.57 858.121 1299.57 860.783C1299.57 866.995 1299.08 873.206 1299.08 879.566C1299.08 888.292 1298.43 897.166 1299.73 905.892C1300.38 910.772 1301.68 915.653 1302.49 920.533C1302.66 921.864 1302.82 923.048 1303.47 924.379C1303.8 925.266 1304.28 927.337 1305.1 927.78C1306.07 927.484 1305.59 925.71 1305.75 924.97C1306.07 923.196 1306.24 921.421 1306.24 919.646C1306.24 915.801 1306.24 911.955 1306.24 908.11C1306.24 906.039 1306.4 904.117 1305.91 902.046C1305.42 900.419 1305.26 899.384 1305.26 897.757C1305.26 896.574 1305.1 895.391 1305.26 894.208C1305.59 891.546 1306.56 889.031 1306.89 886.369C1307.05 883.707 1307.7 881.637 1307.05 878.974C1306.72 877.791 1306.4 875.869 1305.59 874.981C1305.91 874.685 1306.24 874.538 1306.72 874.242C1308.03 873.502 1308.51 872.763 1309.49 871.727C1310.47 870.544 1310.95 869.953 1311.28 868.622C1310.47 868.326 1309.49 868.77 1308.51 868.622C1308.03 868.474 1307.38 868.178 1306.89 867.882C1305.1 866.699 1304.77 864.924 1304.28 863.002C1303.8 861.375 1304.12 859.304 1304.12 857.677C1304.12 856.05 1303.8 854.867 1303.47 853.24C1303.31 852.205 1302.98 851.466 1302.98 850.43C1302.98 849.395 1302.82 848.803 1302.49 847.916C1302.33 847.177 1302.49 846.437 1302.33 845.698C1302.17 845.106 1301.84 844.367 1301.52 843.775C1300.87 842.296 1299.89 841.113 1299.4 839.634C1299.24 839.042 1298.91 838.155 1298.43 837.711C1298.26 837.415 1298.43 837.12 1297.94 837.12C1297.45 837.12 1297.29 837.711 1297.45 837.12Z" fill="#38192D"/>
<path d="M1236.76 942.126C1236.76 944.049 1236.76 945.972 1236.76 947.894C1236.92 952.923 1236.27 957.36 1232.53 961.501C1229.6 964.755 1226.34 967.565 1222.11 969.339C1218.53 970.818 1215.12 971.114 1211.21 971.262C1206.49 971.41 1201.77 972.741 1197.38 973.776C1192.5 974.811 1188.43 977.622 1183.71 979.248C1181.6 979.988 1179.81 980.136 1177.53 980.136C1176.39 980.136 1175.41 980.579 1174.28 980.727C1172.49 980.875 1170.86 980.579 1169.07 981.023C1167.6 981.319 1166.3 981.467 1165 981.763C1164.35 981.91 1163.7 982.058 1163.05 982.206C1162.56 982.354 1161.75 982.798 1161.26 982.798C1161.42 984.868 1169.23 983.094 1170.37 982.798C1173.14 982.206 1175.58 982.354 1178.34 981.911C1179.64 981.763 1181.11 981.763 1182.41 981.615C1184.36 981.319 1186.32 980.727 1188.43 980.727C1190.71 980.579 1193.15 980.579 1195.43 980.727C1196.4 980.727 1197.22 981.171 1198.19 981.319C1199.17 981.467 1200.15 981.171 1201.29 981.319C1204.38 981.911 1207.31 982.058 1210.4 981.319C1212.35 980.875 1214.14 979.988 1216.26 979.84C1218.21 979.692 1220 979.396 1221.79 978.805C1224.55 977.917 1226.99 978.361 1229.76 979.248C1231.06 979.544 1232.36 979.692 1233.5 979.84C1234.8 980.136 1236.11 979.988 1237.25 980.284C1238.38 980.432 1239.69 980.875 1240.83 981.171C1241.96 981.615 1243.92 982.206 1244.89 981.467C1246.03 980.579 1246.03 977.917 1245.87 976.734C1245.87 974.811 1245.87 973.037 1246.36 971.114C1247.01 969.044 1247.01 967.121 1247.01 964.902C1247.01 961.944 1246.52 959.726 1245.54 957.064C1244.73 954.55 1243.75 952.035 1242.62 949.669C1241.96 948.338 1241.8 947.007 1241.15 945.676C1240.66 944.788 1240.5 943.605 1239.85 942.718C1239.69 942.422 1238.87 941.683 1238.55 941.683C1237.08 941.683 1238.38 945.084 1236.76 942.126Z" fill="#38192D"/>
<path d="M1336.5 915.505C1336.5 916.836 1336.5 918.019 1336.5 919.35C1336.5 922.16 1336.5 924.822 1336.5 927.632C1336.5 929.259 1336.66 930.738 1337.8 931.921C1339.1 933.105 1340.89 934.436 1342.52 935.175C1343.34 935.471 1347.08 936.802 1345.61 937.985C1344.31 938.873 1340.57 938.577 1339.1 938.281C1337.64 937.985 1336.83 936.802 1335.52 936.358C1334.55 936.063 1333.57 936.358 1332.76 935.767C1331.62 935.027 1331.46 934.14 1331.29 932.957C1330.81 930.442 1330.32 928.224 1329.5 925.71C1329.34 924.97 1328.85 924.083 1328.85 923.196C1328.85 922.456 1329.18 921.865 1328.37 921.569C1327.23 921.125 1324.46 921.569 1323.32 921.569C1321.53 921.569 1321.53 920.829 1323.32 920.385C1324.62 920.09 1326.09 919.498 1327.39 919.202C1329.02 918.907 1330.97 918.907 1331.95 917.575C1332.6 916.688 1333.57 915.209 1333.25 914.174C1333.08 913.139 1332.11 912.695 1331.78 911.66C1331.13 909.293 1330.64 907.223 1330.64 904.856C1330.64 902.49 1330.64 900.124 1330.64 897.905C1330.64 896.574 1330.32 894.799 1330.81 893.616C1331.62 893.764 1332.11 895.391 1332.27 896.13C1332.92 898.497 1334.06 900.567 1334.55 902.934C1335.36 905.892 1336.66 908.554 1336.66 911.512C1336.66 912.103 1336.66 912.843 1336.66 913.434C1336.5 914.026 1336.5 914.765 1336.5 915.505Z" fill="#38192D"/>
<path d="M1356.03 764.206C1356.35 767.312 1357.49 770.418 1357.82 773.524C1358.3 778.109 1358.14 782.693 1358.63 787.426C1358.96 790.384 1358.47 793.49 1359.77 796.3C1360.75 798.37 1362.05 800.293 1363.02 802.216C1364.16 804.138 1364.81 806.209 1366.12 808.132C1366.77 809.167 1367.58 810.054 1368.07 811.09C1368.72 812.273 1368.72 813.604 1369.04 814.935C1369.69 817.301 1370.67 819.372 1371.16 821.738C1371.65 824.548 1372.14 827.062 1372.3 829.872C1372.46 832.978 1373.6 836.232 1375.06 839.042C1376.69 842 1380.27 842.887 1382.71 845.106C1385.32 847.472 1386.45 850.726 1388.24 853.536C1389.38 855.311 1390.52 856.938 1391.82 858.564C1392.31 859.156 1392.47 860.043 1392.8 860.635C1393.29 861.522 1393.94 862.558 1394.59 863.445C1394.75 863.741 1395.57 864.628 1395.89 864.776C1397.52 865.368 1397.03 862.114 1396.87 861.374C1396.54 859.895 1395.4 858.564 1394.75 857.233C1394.1 855.902 1393.61 854.719 1392.64 853.536C1390.85 851.17 1389.38 848.951 1388.08 846.585C1386.94 844.662 1386.13 842.444 1385.15 840.373C1384.5 838.894 1384.18 837.415 1383.69 835.936C1382.71 832.091 1381.25 828.246 1380.11 824.4C1379.78 823.513 1379.3 822.626 1378.97 821.738C1378.64 820.851 1378.81 819.963 1378.48 818.928C1377.83 817.005 1377.18 815.231 1376.04 813.604C1373.6 810.35 1372.62 806.357 1371.65 802.659C1371.32 801.476 1371 800.441 1370.83 799.406C1370.67 798.814 1370.83 798.223 1370.67 797.483C1370.51 796.596 1369.86 795.856 1369.69 794.969C1369.21 793.342 1368.39 791.715 1368.23 790.088C1367.9 788.313 1368.07 786.391 1367.42 784.616C1366.77 782.989 1365.63 781.362 1364.65 779.883C1363.84 778.552 1363.35 776.925 1362.54 775.594C1361.23 773.376 1360.26 770.862 1359.44 768.643C1359.12 767.608 1358.47 766.721 1357.98 765.685C1357.33 764.798 1357.17 763.467 1356.03 764.206Z" fill="#38192D"/>
<path d="M1307.21 824.4C1305.91 826.767 1307.7 828.837 1309.17 831.056C1310.47 833.274 1311.77 835.493 1312.91 837.859C1313.88 839.782 1315.02 841.556 1316 843.479C1317.14 846.141 1318.6 848.508 1319.09 851.318C1319.58 853.536 1320.23 855.607 1320.72 857.825C1321.04 859.156 1320.88 860.635 1321.21 862.114C1321.53 863.593 1321.86 864.924 1322.18 866.255C1322.83 868.917 1323 871.727 1323.48 874.389C1323.65 875.129 1323.32 875.868 1323.48 876.608C1323.65 877.495 1324.46 878.531 1324.95 879.418C1325.44 880.305 1326.41 882.82 1327.88 883.115C1328.37 881.784 1327.55 880.897 1327.39 879.714C1326.9 876.756 1325.76 873.946 1325.11 870.988C1324.13 866.403 1322.51 861.67 1322.51 857.086C1322.51 855.754 1322.67 854.276 1322.51 852.944C1322.34 851.909 1321.86 850.874 1321.53 849.839C1321.21 848.803 1321.04 848.212 1320.39 847.324C1319.74 846.437 1319.58 845.55 1318.93 844.81C1317.79 843.183 1316.98 840.965 1316.49 839.19C1316 837.415 1315.35 835.936 1314.37 834.457C1313.56 832.978 1312.26 831.795 1311.44 830.316C1310.63 828.246 1308.03 827.063 1307.21 824.4Z" fill="#38192D"/>
<path d="M1174.44 617.494C1175.74 616.163 1176.88 614.24 1178.34 613.205C1181.76 610.543 1186.8 609.507 1188.43 605.366C1185.5 604.627 1181.76 605.218 1178.83 605.218C1176.88 605.218 1176.23 605.218 1174.6 606.106C1172.81 607.141 1171.35 609.064 1172.32 613.057C1166.95 615.571 1163.54 619.86 1159.47 623.853C1153.45 629.621 1145.8 633.762 1139.78 639.53C1137.34 642.045 1135.39 644.263 1135.39 647.517C1135.39 648.848 1134.9 651.51 1137.66 650.623C1138.8 650.179 1139.45 647.813 1139.78 646.629C1140.43 643.967 1140.43 640.714 1143.2 638.939C1143.68 638.643 1144.5 638.791 1144.99 638.495C1146.61 637.756 1147.92 636.72 1149.38 635.685C1152.31 633.614 1155.56 631.84 1158.17 629.473C1161.26 626.515 1165 625.036 1168.42 622.522C1170.7 621.043 1172.65 619.268 1174.44 617.494Z" fill="#38192D"/>
<path d="M1176.88 828.246C1178.99 827.95 1180.78 828.246 1182.74 827.802C1184.69 827.358 1186.64 827.506 1188.59 827.063C1189.73 826.767 1190.38 826.323 1191.85 826.323C1193.8 826.175 1197.71 826.915 1198.19 824.548C1196.73 824.253 1195.43 823.513 1194.13 823.365C1191.03 822.774 1187.29 823.217 1184.2 823.957C1182.41 824.401 1176.72 825.436 1175.58 823.957C1174.76 822.922 1175.25 817.006 1175.41 815.675C1175.9 813.16 1177.2 811.238 1179.32 809.907C1180.95 808.871 1182.9 807.984 1184.69 806.949C1186.15 806.209 1186.48 805.913 1187.29 804.435C1188.11 802.956 1187.78 802.512 1188.27 800.885C1188.76 798.962 1191.03 796.3 1192.34 794.821C1192.99 793.934 1194.61 793.046 1193.64 791.715C1192.82 790.384 1190.22 791.124 1192.66 788.166C1191.2 788.314 1190.71 790.236 1189.9 791.272C1188.11 793.342 1185.5 794.821 1183.71 797.04C1181.11 800.146 1178.18 802.216 1176.23 805.766C1175.58 807.097 1174.93 808.28 1174.28 809.463C1172.97 811.829 1171.18 813.456 1169.56 815.527C1168.09 817.302 1167.28 819.372 1166.14 821.443C1164.68 824.105 1163.7 826.767 1162.56 829.281C1164.84 829.873 1169.07 829.725 1171.35 829.577C1173.3 829.133 1174.93 828.394 1176.88 828.246Z" fill="#38192D"/>
<path d="M1209.58 944.64C1205.19 944.64 1201.29 944.936 1197.22 943.605C1194.78 942.865 1193.31 942.274 1192.82 939.612C1192.66 938.724 1192.5 936.358 1192.99 935.619C1193.8 934.583 1194.94 935.175 1195.92 934.583C1200.15 931.625 1198.36 923.195 1198.36 919.054C1198.36 916.392 1198.36 913.73 1198.36 911.068C1198.36 910.18 1198.68 908.849 1198.36 908.11C1198.03 907.074 1197.06 906.631 1197.06 905.3C1194.78 905.595 1195.27 907.814 1194.94 909.293C1194.61 911.068 1194.13 911.955 1194.13 913.878C1194.13 914.765 1194.45 916.244 1194.13 917.131C1193.96 918.019 1193.15 918.167 1192.99 919.054C1192.82 919.941 1193.15 920.829 1192.82 921.864C1192.34 923.491 1190.38 924.97 1192.01 924.97C1192.01 929.111 1191.69 933.844 1188.11 936.802C1186.15 938.429 1184.36 938.576 1183.06 940.647C1181.6 943.013 1179.97 945.084 1178.99 947.598C1177.37 952.035 1175.74 955.584 1172.97 959.578C1171.18 962.092 1170.53 964.31 1170.21 967.268C1170.04 969.339 1168.91 971.705 1169.07 973.776C1172.65 970.67 1172.32 965.937 1174.6 962.24C1175.74 960.465 1177.04 959.282 1178.83 958.099C1181.43 956.472 1183.88 954.401 1186.64 952.922C1190.87 950.556 1196.57 949.817 1201.61 949.373C1205.84 949.077 1210.23 948.485 1214.47 947.746C1216.91 947.302 1222.6 947.45 1224.07 945.528C1220.16 943.605 1213.81 944.64 1209.58 944.64Z" fill="#38192D"/>
<path d="M1231.06 569.723C1230.09 569.723 1229.11 569.575 1228.13 569.723C1227.32 569.871 1226.83 570.462 1226.99 571.202C1224.72 572.237 1224.88 574.16 1225.04 576.378C1225.04 576.822 1225.2 577.414 1225.04 577.857C1224.72 578.597 1223.41 579.484 1222.6 580.076C1220 581.85 1216.91 583.034 1214.14 584.513C1213.16 584.956 1212.35 585.4 1211.54 585.992C1210.4 587.027 1209.26 587.766 1207.96 588.654C1206.66 589.541 1205.19 590.429 1203.89 591.464C1203.08 592.055 1202.42 592.795 1201.61 593.386C1199.82 594.718 1197.71 595.309 1195.75 596.64C1194.61 597.38 1193.48 598.267 1192.66 599.302C1192.17 599.894 1191.2 600.633 1191.03 601.373C1191.85 601.964 1193.64 600.781 1194.29 600.338C1195.75 599.598 1197.06 598.711 1198.52 597.971C1199.66 597.38 1200.63 597.38 1201.61 596.936C1202.59 596.64 1203.4 596.196 1204.38 595.753C1206.82 594.717 1208.77 593.238 1211.05 592.055C1212.51 591.316 1213.49 589.985 1214.95 589.097C1217.07 587.914 1219.51 587.027 1221.46 585.548C1223.25 584.365 1225.04 583.034 1227.32 582.442C1228.46 582.146 1230.25 581.85 1231.22 581.259C1231.88 580.815 1232.53 580.076 1232.85 579.336C1233.5 578.005 1233.5 576.822 1233.01 575.491C1232.69 574.604 1232.2 574.012 1232.69 573.125C1233.01 572.533 1233.83 572.237 1234.48 571.941C1234.97 571.646 1235.13 571.646 1235.94 571.646C1236.27 571.646 1237.08 571.793 1237.08 571.35C1236.76 570.462 1232.04 569.723 1231.06 569.723Z" fill="#38192D"/>
<path d="M1203.89 733.592C1204.38 732.852 1204.21 732.113 1203.4 730.93C1201.77 731.965 1201.29 732.852 1199.98 734.331C1199.01 735.514 1197.71 736.55 1196.89 737.881C1195.59 739.951 1196.08 743.057 1196.08 745.423C1196.08 746.902 1196.57 747.494 1197.22 748.825C1197.71 750.008 1197.71 751.191 1197.71 752.375C1197.71 753.114 1198.03 753.706 1198.19 754.445C1198.36 755.333 1198.19 755.037 1199.01 755.48C1199.5 755.776 1199.5 756.22 1200.15 756.072C1201.29 755.924 1200.96 754.741 1200.96 754.001C1200.96 750.452 1200.96 747.05 1200.96 743.501C1200.96 742.022 1200.63 741.43 1202.1 740.839C1202.91 740.543 1203.56 740.099 1204.21 739.803C1205.03 739.36 1206.17 738.768 1206.49 738.029C1205.52 737.733 1204.21 738.176 1203.4 738.029C1202.42 737.733 1202.42 736.55 1202.59 735.81C1202.59 734.775 1203.4 734.479 1203.89 733.592Z" fill="#38192D"/>
<path d="M1356.03 834.457C1355.38 831.203 1354.72 828.097 1353.59 824.844C1353.26 824.104 1352.61 822.773 1352.77 821.886C1353.1 820.851 1358.63 817.449 1356.03 815.97C1355.21 815.526 1353.91 816.118 1352.94 815.97C1351.8 815.674 1352.28 815.083 1351.96 814.047C1351.63 813.012 1351.47 812.273 1351.47 811.089C1351.47 810.202 1351.63 809.167 1351.47 808.131C1351.15 806.209 1350.01 803.99 1349.36 802.216C1349.03 801.624 1348.54 800.737 1348.38 800.145C1348.22 799.701 1348.38 799.258 1348.22 798.814C1348.05 798.518 1347.73 798.37 1347.73 798.074C1347.57 797.483 1347.89 796.3 1347.08 796.004C1345.94 795.56 1345.61 797.631 1345.61 797.335C1346.75 797.483 1346.1 802.363 1346.1 803.103C1346.1 805.913 1346.1 808.427 1346.59 811.089C1347.08 813.752 1347.73 816.266 1347.73 818.928C1347.73 820.111 1347.73 821.294 1347.73 822.329C1347.73 824.252 1348.87 825.731 1349.68 827.654C1351.47 831.647 1351.8 836.232 1353.1 840.373C1354.07 843.183 1355.7 845.845 1357 848.507C1357.82 848.359 1357.49 845.254 1357.49 844.662C1357.65 841.26 1356.68 837.859 1356.03 834.457Z" fill="#38192D"/>
<path d="M1331.13 654.763C1329.99 654.911 1329.67 654.32 1328.69 654.32C1327.39 654.172 1327.39 654.468 1327.23 655.355C1327.06 656.686 1327.23 657.869 1326.74 659.052C1326.41 660.088 1325.76 661.123 1325.6 662.306C1325.27 665.708 1325.6 669.405 1325.6 672.955C1325.6 676.208 1325.6 679.462 1326.25 682.568C1326.74 684.786 1326.9 687.005 1327.39 689.223C1327.55 690.406 1327.71 691.737 1328.04 692.921C1328.2 693.512 1328.53 694.252 1329.02 694.695C1328.69 689.519 1329.83 684.047 1328.53 679.166C1328.04 677.539 1328.04 674.729 1329.02 673.398C1329.67 672.659 1330.16 672.363 1331.13 671.919C1331.78 671.623 1331.95 672.067 1332.27 671.328C1332.43 670.884 1332.11 670.44 1331.95 669.997C1331.29 668.37 1329.67 666.891 1329.5 665.116C1329.34 664.377 1329.5 663.489 1329.5 662.602C1329.5 661.567 1329.83 661.419 1330.32 660.679C1331.13 659.348 1330.81 658.017 1331.95 656.982C1332.43 656.686 1333.74 655.799 1333.74 655.207C1333.9 653.876 1332.43 654.32 1331.13 654.763Z" fill="#38192D"/>
<path d="M1288.01 768.791C1288.01 768.495 1287.85 767.017 1287.69 766.869C1287.36 766.573 1286.71 766.425 1286.71 767.164V767.608C1285.73 769.679 1286.22 772.489 1286.22 774.855C1286.22 775.742 1286.06 777.073 1286.22 777.961C1286.39 778.7 1286.87 779.144 1286.87 779.884C1287.36 779.884 1288.17 778.257 1288.34 777.961C1288.83 776.186 1288.5 773.968 1288.5 772.045C1288.34 771.01 1288.34 769.974 1288.01 768.791Z" fill="#38192D"/>
<path d="M1420.46 731.817C1419.81 728.12 1418.18 724.718 1415.91 721.612C1413.95 718.95 1413.63 714.661 1413.14 711.555C1412.81 709.781 1412.65 708.006 1411.84 706.231C1411.02 704.604 1409.89 703.717 1408.75 702.386C1407.93 701.35 1407.77 701.055 1406.47 701.055C1404.84 700.907 1404.84 701.646 1405.33 702.09C1405.17 702.09 1405 702.09 1404.84 702.09C1404.35 702.829 1404.68 704.752 1405 705.492C1406.14 709.189 1407.77 712.738 1409.23 716.288C1410.05 718.359 1410.54 720.725 1411.84 722.5C1412.98 724.127 1413.95 725.605 1414.6 727.38C1414.93 728.416 1417.86 737.881 1420.3 736.106C1421.28 735.662 1420.62 732.557 1420.46 731.817Z" fill="#38192D"/>
<path d="M2421 1030.35C2415.1 1030.52 2409.21 1030.61 2403.31 1030.6C2313.59 1030.74 2224.64 1009.56 2135.5 988.322C2089.9 977.46 2044.25 966.586 1998.42 958.549C1891.7 939.355 1783.86 935.486 1676.59 931.638L1676.55 931.636C1649.48 930.665 1622.46 929.695 1595.49 928.481C1576.9 927.695 1558.32 926.781 1539.76 925.868L1539.73 925.867L1539.71 925.866H1539.7C1422.88 920.122 1306.59 914.405 1190.6 940.538C1127.07 954.588 1063.85 977.865 1000.71 1001.11L1000.7 1001.11C929.044 1027.5 857.488 1053.84 785.709 1066.62C703.208 1081.28 619.958 1077.92 536.421 1074.56C484.627 1072.47 432.722 1070.38 380.818 1072.57C297.323 1076.34 213.291 1091.81 129.25 1107.29C78.7626 1116.58 28.2719 1125.88 -22.1079 1132.64C-157.727 1150.65 -292.167 1150.65 -359.583 1150.65H-427L-427 1495.73C-370.307 1489.77 -313.772 1475.31 -257.168 1460.84C-207.922 1448.24 -158.624 1435.64 -109.125 1428.6C-27.1689 1417.07 55.4221 1421.22 137.945 1425.36C196.357 1428.3 254.734 1431.23 312.829 1428.6C363.66 1426.21 414.385 1419.57 465.024 1412.95C555.872 1401.06 646.441 1389.21 736.84 1402.01C828.158 1414.82 918.88 1452.34 1009.61 1489.86L1009.63 1489.87C1060 1510.7 1110.37 1531.53 1160.85 1548.14C1300.82 1594.33 1442.84 1608.15 1584.86 1587.98C1671.77 1575.76 1759.23 1550.44 1846.71 1525.11C1900.11 1509.65 1953.52 1494.18 2006.82 1481.7C2148.84 1448.76 2289.63 1434.94 2360.23 1428.6L2421 1422.86V1030.35Z" fill="url(#paint0_linear_236_10)"/>
<path d="M1162.6 169C1162.6 169 1153.3 194.3 1169.9 216.7C1169.9 216.7 1180.6 225.1 1187.5 229.9C1187.5 229.9 1193.8 239.4 1195.8 243.5C1197.8 247.5 1195.8 245.3 1195.8 245.3C1195.8 245.3 1189.5 244.2 1184.5 249.3C1184.5 249.3 1176.5 247.8 1172.5 254.8C1172.5 254.8 1181.8 250.8 1185.8 254.8C1185.8 254.8 1216.4 274.6 1232.4 271.7C1232.4 271.7 1245 274.6 1248.4 274.6C1248.4 274.6 1235.8 269.1 1235.1 261.4C1234.4 253.7 1245.8 243.8 1254.1 243.8C1262.4 243.8 1275.7 244.2 1285.1 240.5C1294.4 236.8 1302.1 224.9 1302.1 224.9C1302.1 224.9 1289.1 239.8 1276.5 237.9C1263.9 236.1 1222.9 236.8 1218.9 244.9C1218.9 244.9 1216.6 248.6 1215.2 245.6C1213.9 242.7 1209.9 232 1188.9 215.2C1188.9 215.2 1181.2 199.1 1169.9 192.1C1158.6 185.1 1162.6 169 1162.6 169Z" fill="url(#paint1_linear_236_10)"/>
<path d="M426.956 0C426.956 0 434.306 23.8879 421.13 44.9753C421.13 44.9753 412.67 52.8831 407.122 57.4959C407.122 57.4959 402.129 66.5568 400.465 70.346C398.939 74.1351 400.465 72.1581 400.465 72.1581C400.465 72.1581 405.458 71.1696 409.48 75.9472C409.48 75.9472 415.86 74.6293 419.05 81.2191C419.05 81.2191 411.699 77.4299 408.509 81.2191C408.509 81.2191 384.099 100 371.478 97.1993C371.478 97.1993 361.353 100 358.718 100C358.718 100 368.843 94.7281 369.259 87.4793C369.814 80.2306 360.798 70.8402 354.141 70.8402C347.484 70.8402 336.943 71.1696 329.453 67.71C322.103 64.2504 316 53.0478 316 53.0478C316 53.0478 326.263 67.0511 336.388 65.4036C346.513 63.5914 378.967 64.4152 382.157 71.9934C382.157 71.9934 383.96 75.453 385.07 72.6523C386.179 69.8517 389.369 59.8023 406.013 43.822C406.013 43.822 412.115 28.5009 421.13 22.0758C430.146 15.3213 426.956 0 426.956 0Z" fill="url(#paint2_linear_236_10)"/>
<path d="M1138.56 454.963C1139.12 455.192 1139.82 455.76 1140.23 455.601C1153.38 450.536 1167.27 448.675 1180.97 445.923C1190.36 444.038 1199.63 441.535 1208.86 438.969C1212.18 438.045 1215.29 436.177 1215.41 430.859C1213.45 431.5 1211.86 431.846 1210.43 432.513C1203.97 435.514 1194.61 434.97 1191.48 430.145C1187.27 423.637 1185.04 416.097 1185.66 408.161C1186.13 402.133 1190.25 396.855 1195.04 395.633C1202.32 393.777 1208.16 389.255 1215.06 387.265C1220.64 385.656 1227.98 391.928 1229.49 398.517C1229.71 399.463 1229.74 400.453 1229.99 402.527C1236.86 396.082 1243.56 392.073 1252.95 395.972C1263.27 400.259 1261.92 408.387 1260.72 416.788C1266.26 415.372 1269.03 411.726 1269.65 406.954C1270.85 397.542 1265.98 391.523 1258.9 386.631C1254.46 383.564 1250.58 380.2 1249.27 374.574C1247.48 366.866 1252.39 359.585 1260.25 359.096C1263.22 358.911 1264.84 358.336 1266.16 355.221C1270.14 345.79 1284 344.216 1290.14 352.461C1292.24 355.29 1293.61 355.163 1296.11 353.317C1303.33 347.976 1311.55 351.595 1315.39 357.744C1319.16 363.779 1316.43 373.542 1309.66 377.007C1303.65 380.087 1297.25 382.406 1291.02 385.079C1290 385.52 1289.01 386.05 1288.12 387.073C1297.95 388.472 1307.87 389.318 1316.22 382.666C1323.68 376.718 1330.3 369.708 1337.63 363.582C1345.94 356.645 1354.63 350.169 1362.96 343.651C1348.84 332.532 1348.84 332.532 1353.26 317.966C1343.68 314.507 1340.84 311.438 1341.78 303.415C1342.16 300.156 1344.88 297.188 1346.44 294.042C1347.07 292.766 1348.3 290.863 1347.84 290.106C1341.4 279.518 1348.7 271.554 1357.38 266.675C1368.62 260.366 1376.21 261.834 1387.62 272.408C1390.65 264.56 1395.74 259.45 1404.51 258.943C1413.53 258.421 1418.69 263.333 1421.45 269.481C1427.26 269.416 1432.33 268.52 1436.9 269.63C1439.54 270.27 1442.17 273.8 1443.46 276.639C1448.07 286.792 1445.36 294.601 1436.12 299.719C1439.35 302.837 1445.35 303.052 1448.64 299.187C1451.88 295.38 1454.54 290.871 1456.57 286.282C1460.56 277.299 1461.06 266.622 1468.8 259.537C1471.36 257.192 1475.4 256.463 1479.17 255C1479.58 278.692 1479.58 302.379 1479.25 326.629C1473.06 330.975 1467.33 334.969 1461.33 338.506C1433.17 355.103 1404.99 371.664 1376.7 388.041C1366.66 393.852 1356.44 399.372 1346.06 404.541C1335.72 409.69 1325.08 414.231 1314.23 419.038C1312.09 419.973 1310.3 420.908 1308.15 421.874C1304.72 423.277 1301.65 424.648 1298.3 426.069C1297.72 426.376 1297.44 426.633 1296.8 426.902C1291.15 429.203 1285.86 431.491 1280.2 433.794C1277.62 434.829 1275.42 435.849 1272.85 436.858C1266.78 439.04 1261.08 441.233 1255.01 443.53C1246.8 446.409 1239.01 449.322 1231.12 451.933C1199.43 462.425 1167.39 471.629 1134.48 477.486C1122.5 479.615 1110.51 481.647 1098.53 483.724C1098.36 483.238 1098.18 482.752 1098 482.266C1112.89 475.142 1126.48 466.133 1138.56 454.963Z" fill="#F1F9FF"/>
<defs>
<linearGradient id="paint0_linear_236_10" x1="-427" y1="1597" x2="-427" y2="921" gradientUnits="userSpaceOnUse">
<stop offset="0.181785" stop-color="#2C1C0D"/>
<stop offset="0.476798" stop-color="#160E06"/>
<stop offset="0.856099" stop-color="#2E1C0C"/>
</linearGradient>
<linearGradient id="paint1_linear_236_10" x1="1160.01" y1="221.782" x2="1302.07" y2="221.782" gradientUnits="userSpaceOnUse">
<stop stop-color="#16181B"/>
<stop offset="0.9946" stop-color="#285A86"/>
</linearGradient>
<linearGradient id="paint2_linear_236_10" x1="429.048" y1="49.9181" x2="316.062" y2="49.9181" gradientUnits="userSpaceOnUse">
<stop stop-color="#1E2022"/>
<stop offset="0.9946" stop-color="#285A86"/>
</linearGradient>
</defs>
</svg>
