<svg width="1440" height="1223" viewBox="0 0 1440 1223" fill="none" xmlns="http://www.w3.org/2000/svg">
<path d="M1467.45 143.41L1341.99 444.974L1273.87 214.892L1203.56 451.898L1111.94 143.41L942.31 715.264H1111.94H1125.34L1104.25 786.745H1273.87H1443.5L1425.7 726.433H1467.45V143.41Z" fill="#64DDDA"/>
<path d="M267.977 250.633L210.629 487.639L135.923 179.151L59.8988 493.67L-70.6172 134.475V583.469V715.264H6.06643L-2.5028 751.004H135.923H146.909L129.551 822.486H267.977H406.403L267.977 250.633Z" fill="#64DDDA"/>
<path d="M1341.99 444.973L1273.87 214.892V786.745H1443.5L1425.7 726.432L1341.99 444.973Z" fill="#60C6C1"/>
<path d="M135.264 181.832L146.031 786.745H-23.5962L135.264 181.832Z" fill="#60C6C1"/>
<path d="M1111.94 143.41L1054.15 337.974L1111.94 715.264H1125.34H1242.23L1111.94 143.41Z" fill="#60C6C1"/>
<path d="M838.6 196.128L797.951 324.572L695.12 0.223389L610.087 268.95L560.43 111.69L362.019 737.825H560.43H666.996L640.189 822.486H838.6H1036.79L838.6 196.128Z" fill="#64DDDA"/>
<path d="M551.86 134.475V706.328H362.019L551.86 134.475Z" fill="#60C6C1"/>
<path d="M736.209 129.561L797.951 324.572L736.428 706.328H723.025H580.425L736.209 129.561Z" fill="#60C6C1"/>
<path d="M560.43 111.69L559.331 115.041L533.184 197.245L551.641 173.567L560.43 220.476L566.802 184.736L574.492 195.905L583.501 184.512L560.43 111.69Z" fill="#9BF9F4"/>
<path d="M136.363 178.258L135.264 181.832L114.83 266.493L127.574 240.357L136.363 287.267L142.735 251.526L150.425 262.695L154.82 257.111L136.363 178.258Z" fill="#9BF9F4"/>
<path d="M268.197 250.186L267.098 253.536L246.664 338.198L259.408 312.062L268.197 358.972L274.569 323.231L282.259 334.4L286.654 328.816L268.197 250.186Z" fill="#9BF9F4"/>
<path d="M837.941 195.681L836.842 199.032L810.915 281.459L829.372 257.781L837.941 304.691L844.533 268.95L852.223 280.119L861.012 268.727L837.941 195.681Z" fill="#9BF9F4"/>
<path d="M695.34 0L694.241 3.3507L668.094 85.778L686.112 61.8763L695.34 108.786L702.371 73.0454L710.721 84.2144L718.631 74.609L695.34 0Z" fill="#9BF9F4"/>
<path d="M1112.16 143.41L1111.06 146.761L1086.45 229.412L1102.71 205.286L1112.16 252.196L1119.19 216.455L1127.32 227.625L1134.57 219.136L1112.16 143.41Z" fill="#9BF9F4"/>
<path d="M1273.21 215.115L1272.12 218.466L1248.17 301.563L1263.99 276.992L1273.21 323.901L1280.24 288.161L1288.59 299.33L1296.5 291.735L1273.21 215.115Z" fill="#9BF9F4"/>
<path d="M1507 420.077C1501.18 419.176 1496.61 423.571 1496.61 423.571C1496.61 423.571 1499.41 426.374 1503.82 431.428L1507 420.077Z" fill="#2C1C0D"/>
<path d="M-70.6172 862.248H1458.72V592.832C1456.64 592.013 1454.64 591.111 1452.87 590.132C1448.16 587.526 1447.41 584.377 1446.73 581.519C1446.02 578.546 1445.39 575.888 1440.45 574.484C1436.46 573.35 1431.2 575.623 1425.01 578.294C1416.19 582.105 1405.49 586.725 1393.96 583.399C1383.96 580.597 1377.11 584.459 1371.08 587.855C1365.31 591.11 1360.3 593.936 1354 590.051C1347.05 585.759 1349.67 582.443 1352.03 579.463C1354.04 576.93 1355.85 574.639 1351.44 572.197C1346.92 569.627 1343.76 569.374 1338.66 568.966C1332.88 568.504 1324.6 567.842 1309.03 563.372C1299.96 560.769 1296.51 559.777 1296.58 558.982C1296.63 558.494 1298.01 558.079 1300.24 557.41C1306.1 555.652 1317.81 552.137 1326.59 540.901C1332.14 533.801 1334.18 531.188 1333.86 531.001C1333.67 530.892 1332.68 531.606 1331.11 532.736C1326.86 535.807 1318.34 541.947 1310.08 542.993C1297.05 544.645 1296.52 540.231 1295.54 532.034L1295.54 532.032C1295.27 529.85 1294.98 527.4 1294.41 524.725C1294.32 524.308 1294.24 523.899 1294.15 523.499C1294.02 522.864 1293.89 522.25 1293.77 521.659C1291.65 511.256 1290.97 507.928 1281.47 519.35C1273.56 528.892 1258 531.415 1245.21 520.913C1242.09 518.307 1237.67 522.414 1233.79 526.019C1228.93 530.546 1224.91 534.282 1225.37 522.948C1226.17 507.611 1220.53 509.433 1211.98 512.197C1209.17 513.105 1206.04 514.116 1202.73 514.652C1197.17 515.558 1195.06 517.473 1193 519.346C1190.17 521.914 1187.43 524.402 1176 524.096C1162.14 523.725 1157.91 526.054 1150.8 529.976C1147.78 531.646 1144.23 533.603 1139.19 535.764C1122.32 543.002 1119.21 542.927 1109.9 527.354C1103.58 516.535 1091.66 521.549 1078.31 527.168C1072.42 529.645 1066.24 532.241 1060.15 533.648C1047.46 536.571 1036.61 527.5 1025.27 518.011C1024.5 517.371 1023.73 516.728 1022.96 516.087C1022.44 515.655 1021.92 515.224 1021.39 514.794C1012.31 507.267 1009.31 513.742 1006 520.874C1004.55 523.995 1003.05 527.243 1000.95 529.498C999.135 531.498 996.996 535.427 994.469 540.071C987.424 553.016 977.358 571.513 962.869 569.236C953.032 567.691 947.507 563.095 942.767 559.154C938.022 555.208 934.066 551.918 927.362 553.003C921.15 554.015 920.64 557.456 920.11 561.03C919.516 565.042 918.897 569.221 910.168 570.327C902.646 571.28 897.957 570.222 893.49 569.213C888.153 568.008 883.133 566.874 873.974 569.326C868.313 570.843 863.005 573.255 858.091 575.489C848.403 579.894 840.244 583.602 833.917 578.374C829.08 574.376 830.182 570.53 831.188 567.016C832.166 563.601 833.054 560.501 828.318 557.881C823.47 555.199 822.586 557.774 821.161 561.922C819.76 565.997 817.839 571.59 811.124 575.205C801.024 580.644 796.863 577.805 786.078 570.446C782.396 567.933 777.943 564.894 772.217 561.478C764.946 557.14 762.374 555.605 761.647 556.015C761.25 556.239 761.403 557.044 761.641 558.29C762.313 561.813 763.657 568.859 755.097 576.239C743.261 586.458 741.322 584.995 733.03 578.74C729.192 575.845 723.994 571.923 715.824 567.658C702.925 561.002 702.925 561.002 704.031 563.892C705.137 566.781 707.35 572.559 698.876 577.46C683.827 586.164 682.199 585.118 673.018 579.216C671.859 578.472 670.58 577.65 669.139 576.76C656.277 568.822 652.853 571.161 642.483 583.64C632.112 596.12 574.494 627.638 545.124 621.792L545.121 621.792L545.118 621.791L545.114 621.79C534.575 619.633 531.599 619.024 531.545 618.289C531.524 618 531.956 617.691 532.558 617.26C534.688 615.736 538.95 612.686 532.776 603.58C525.522 593.079 528.99 590.524 533.35 587.311C536.544 584.958 540.217 582.251 540.507 575.811V575.809C540.714 571.214 540.796 569.392 540.527 569.36C540.35 569.34 540.022 570.092 539.477 571.338C538.104 574.482 535.359 580.769 530.21 585.727C519.914 595.643 510.377 587.762 510.377 587.762C510.377 587.762 487.756 579.634 474.355 581.802C474.245 585.285 474.211 586.363 473.505 586.994C473.189 587.277 472.739 587.47 472.086 587.75C469.977 588.654 465.758 590.464 457.161 599.126C443.084 613.148 442.817 612.617 438.308 603.671C437.24 601.551 435.934 598.959 434.15 595.977L434.149 595.975C430.802 590.38 429.861 588.806 428.964 588.821C428.613 588.827 428.269 589.076 427.79 589.423C426.087 590.655 422.681 593.12 411.213 590.263L411.21 590.263L411.205 590.261C404.478 588.585 401.7 587.893 401.582 586.994C401.499 586.361 402.734 585.625 404.837 584.371C409.93 581.336 420.116 575.266 429.019 560.269C429.225 555.761 429.287 554.419 430.014 554.151C430.322 554.038 430.749 554.117 431.358 554.23C433.403 554.61 437.493 555.368 445.967 550.468C462.915 540.666 450.591 522.623 440.516 524.847C435.308 525.997 434.432 529.328 433.389 533.293C432.414 536.999 431.294 541.259 426.355 544.811C416.132 552.163 406.202 556.933 393.487 543.867C389.771 540.082 386.594 541.362 383.651 542.546C380.234 543.922 377.134 545.17 373.876 538.211C369.038 527.877 363.669 530.505 353.126 535.666L353.124 535.667L353.115 535.671C350.447 536.977 347.447 538.445 344.041 539.906C336.626 543.12 334.266 549.484 332.2 555.058C329.625 562.004 327.505 567.721 316.624 564.583C309.84 562.682 307.755 562.098 307.287 561.074C307.08 560.621 307.191 560.08 307.35 559.301C307.87 556.763 308.91 551.687 301.196 538.791C293.592 525.886 293.592 525.886 292.928 531.271C292.264 536.656 290.936 547.425 280.677 556.059C273.751 561.769 271.446 563.669 270.724 563.362C270.364 563.208 270.398 562.505 270.449 561.451C270.602 558.283 270.908 551.949 261.139 547.839C244.718 540.93 244.395 541.679 240.354 551.07C239.587 552.853 238.686 554.946 237.515 557.358C232.68 567.322 218.273 568.18 205.155 568.961C198.369 569.365 191.927 569.749 187.333 571.362C183.155 572.829 180.249 574.564 177.44 576.241C171.191 579.973 165.424 583.417 147.202 582.973C131.608 582.579 125.99 593.239 121.169 602.388C117.893 608.606 114.984 614.125 109.562 615.002C96.1615 617.169 80.4137 601.464 80.4137 601.464C80.4137 601.464 91.101 586.571 81.786 570.999C78.2628 565.157 77.4117 563.746 76.8299 563.809C76.6446 563.83 76.4867 563.999 76.2784 564.223C75.4162 565.149 73.6919 567.001 65.598 563.004C49.41 555.009 66.2102 550.335 66.2102 550.335L39.5534 557.215C39.5534 557.215 28.6444 579.8 19.1817 569.355C15.8078 567.488 14.8028 566.932 14.0972 566.204C13.7978 565.895 13.5524 565.555 13.2027 565.07C12.0291 563.444 9.68182 560.192 0.182106 551.029C-9.68854 541.509 -12.636 536.965 -13.1896 534.797L-12.1661 532.818C-12.1661 532.818 -13.7017 532.791 -13.1896 534.797L-30.3386 567.958C-30.969 569.203 -31.4046 570.313 -31.7996 571.32C-33.7797 576.367 -34.7413 578.818 -54.1099 582.605C-61.3141 583.959 -64.0551 584.475 -64.2875 584.09C-64.4303 583.853 -63.6269 583.277 -62.33 582.348C-58.9214 579.904 -52.1041 575.017 -50.0981 567.429C-47.4786 556.961 -49.922 556.033 -58.015 552.959C-61.2819 551.718 -65.4707 550.127 -70.6172 547.417V862.248Z" fill="#2C1C0D"/>
<g clip-path="url(#clip0_86_128)">
<path d="M1462.92 894.186L1430.9 924.692C1398.88 954.468 1334.84 1016.58 1270.81 1040.33C1206.77 1064.07 1142.73 1053.11 1078.69 1046.35C1014.65 1040.33 950.615 1040.33 886.577 1016.03C822.539 991.003 758.501 943.508 694.462 967.256C630.424 991.003 566.386 1089.65 502.348 1107.37C438.31 1126.18 374.271 1064.07 310.233 1040.33C246.195 1016.58 182.157 1027.54 118.119 1064.62C54.0807 1100.61 -9.95752 1162.72 -73.9957 1180.44C-138.034 1199.25 -202.072 1173.68 -266.11 1137.69C-330.148 1100.61 -394.187 1053.11 -458.225 1028.09C-522.263 1003.79 -586.301 1003.79 -650.339 1016.03C-714.378 1027.54 -778.416 1053.11 -842.454 1040.33C-906.492 1027.54 -970.53 980.043 -1034.57 985.523C-1098.61 991.003 -1162.64 1053.11 -1226.68 1095.13C-1290.72 1137.14 -1354.76 1162.72 -1418.8 1168.2C-1482.84 1173.68 -1546.87 1162.72 -1610.91 1168.2C-1674.95 1173.68 -1738.99 1199.25 -1803.03 1204.73C-1867.06 1210.21 -1931.1 1199.25 -1995.14 1198.7C-2059.18 1199.25 -2123.22 1210.21 -2187.26 1174.23C-2251.29 1137.14 -2315.33 1053.11 -2379.37 1046.35C-2443.41 1040.33 -2507.45 1113.4 -2571.48 1107.37C-2635.52 1100.61 -2699.56 1016.58 -2763.6 1016.03C-2827.64 1016.58 -2891.68 1100.61 -2955.71 1101.16C-3019.75 1100.61 -3083.79 1016.58 -3115.81 973.284L-3147.83 930.721V857.651H-3115.81C-3083.79 857.651 -3019.75 857.651 -2955.71 857.651C-2891.68 857.651 -2827.64 857.651 -2763.6 857.651C-2699.56 857.651 -2635.52 857.651 -2571.48 857.651C-2507.45 857.651 -2443.41 857.651 -2379.37 857.651C-2315.33 857.651 -2251.29 857.651 -2187.26 857.651C-2123.22 857.651 -2059.18 857.651 -1995.14 857.651C-1931.1 857.651 -1867.06 857.651 -1803.03 857.651C-1738.99 857.651 -1674.95 857.651 -1610.91 857.651C-1546.87 857.651 -1482.84 857.651 -1418.8 857.651C-1354.76 857.651 -1290.72 857.651 -1226.68 857.651C-1162.64 857.651 -1098.61 857.651 -1034.57 857.651C-970.53 857.651 -906.492 857.651 -842.454 857.651C-778.416 857.651 -714.378 857.651 -650.339 857.651C-586.301 857.651 -522.263 857.651 -458.225 857.651C-394.187 857.651 -330.148 857.651 -266.11 857.651C-202.072 857.651 -138.034 857.651 -73.9957 857.651C-9.95752 857.651 54.0807 857.651 118.119 857.651C182.157 857.651 246.195 857.651 310.233 857.651C374.271 857.651 438.31 857.651 502.348 857.651C566.386 857.651 630.424 857.651 694.462 857.651C758.501 857.651 822.539 857.651 886.577 857.651C950.615 857.651 1014.65 857.651 1078.69 857.651C1142.73 857.651 1206.77 857.651 1270.81 857.651C1334.84 857.651 1398.88 857.651 1430.9 857.651H1462.92V894.186Z" fill="url(#paint0_linear_86_128)"/>
</g>
<defs>
<linearGradient id="paint0_linear_86_128" x1="1462.92" y1="857.651" x2="1462.92" y2="1206.26" gradientUnits="userSpaceOnUse">
<stop stop-color="#2C1C0D"/>
<stop offset="1"/>
</linearGradient>
<clipPath id="clip0_86_128">
<rect width="1536.92" height="365.349" fill="white" transform="translate(1462.92 1223) rotate(-180)"/>
</clipPath>
</defs>
</svg>
