<svg width="1440" height="1053" viewBox="0 0 1440 1053" fill="none" xmlns="http://www.w3.org/2000/svg">
<mask id="mask0_278_9" style="mask-type:alpha" maskUnits="userSpaceOnUse" x="-37" y="-20" width="1547" height="1073">
<path d="M-37 -20H1510V1053H-37V-20Z" fill="#D2D385"/>
</mask>
<g mask="url(#mask0_278_9)">
<g opacity="0.86">
<path d="M221.657 790.348L235.705 786.921C235.705 786.921 235.264 901.297 235.705 898.606C235.813 897.977 217.235 894.795 217.235 894.795L221.657 790.348Z" fill="#304851"/>
<path d="M258.431 561.896L245.716 582.392L226.096 593.872L216.954 349L258.431 561.896Z" fill="#3D754E"/>
<path d="M199.494 582.539L170.394 730.074L183.575 747.02L183.945 746.543C190.838 692.304 203.414 640.476 204.648 586.369L199.494 582.539Z" fill="#254C30"/>
<path d="M231.786 586.758L202.523 597.865L183.945 746.628L230.839 687.188L231.786 586.758Z" fill="#2C5B3C"/>
<path d="M230.839 687.188L267.174 712.667L273.602 708.656L247.427 579.333L230.839 586.669V687.188Z" fill="#3D754E"/>
<path d="M258.431 561.896L245.544 575.301L231.786 586.668L203.183 598.021L189.405 593.057L195.45 603.574L202.523 608.74L248.489 584.567L258.431 561.896Z" fill="#1F3A24"/>
<path d="M234.91 897.511L277.339 925.067C277.068 922.381 269.025 803.876 272.165 804.829L231.782 786.921L234.91 897.511Z" fill="#3D754E"/>
<path d="M271.433 919.715L279.42 1013.56L225.733 1024L217.24 893.288L234.91 895.999L271.433 919.715Z" fill="#3D754E"/>
<path d="M238.269 898.659L225.733 1024L143.061 1007.91C142.269 1009.51 157.683 909.81 157.683 909.81C159.66 909.206 238.269 898.659 238.269 898.659Z" fill="#2C5B3C"/>
<path d="M216.953 349L189.405 593.057L202.523 597.781L217.459 357.107L216.953 349Z" fill="#254C30"/>
<path d="M231.786 586.669L217.458 357.107C210.983 437.337 204.803 517.552 202.522 597.776L203.183 598.012L231.786 586.669Z" fill="#2C5B3C"/>
<path d="M272.034 925.072L279.421 1013.56L296.001 987.777L286.139 929.295L277.411 920.874L272.034 925.072Z" fill="#5C966C"/>
<path d="M135.479 900.962L146.476 918.089L215.799 911.367L237.083 913.606L272.356 930.056L286.138 932.408L291.089 913.606L271.433 921.232L238.269 898.659L217.24 894.8L135.479 900.962Z" fill="#1F3A24"/>
<path d="M268.226 808.993L271.433 921.233L291.089 913.607L273.538 811.944L268.226 808.993Z" fill="#5C966C"/>
<path d="M175.369 739.03L157.687 802.344L178.843 804.828L184.833 747.889L175.369 739.03Z" fill="#254C30"/>
<path d="M238.269 898.659L157.925 903.658L178.843 804.828L231.786 791.703L238.269 898.659Z" fill="#2C5B3C"/>
<path d="M231.352 687.635L186.902 728.189C186.635 727.143 178.839 804.824 178.839 804.824L231.782 786.916L231.352 687.635Z" fill="#2C5B3C"/>
<path d="M245.062 586.369L267.369 713.802L273.602 708.656L248.489 584.567L245.062 586.369Z" fill="#5C966C"/>
<path d="M219.691 363.058L245.544 575.301L258.431 561.896L217.526 351.956L219.691 363.058Z" fill="#5C966C"/>
<path d="M170.394 730.069L183.945 746.627L230.838 687.188L267.174 712.667L273.601 708.655L270.178 723.416L231.352 695.982L183.523 758.834L172.769 748.331L170.394 730.069Z" fill="#1F3A24"/>
<path d="M168.058 807.318L178.843 804.828L157.925 903.658L135.479 900.962L168.058 807.318Z" fill="#254C30"/>
<path d="M146.476 918.089L157.118 915.084L143.065 1007.91L133 985.616L146.476 918.089Z" fill="#254C30"/>
<path d="M157.687 802.344L178.178 804.632L231.786 786.926L287.057 796.948L273.538 814.89L231.786 791.703L177.446 811.865L157.687 802.344Z" fill="#1F3A24"/>
<path d="M231.352 695.982L230.728 787.274L272.324 804.829L287.216 796.947L269.674 720.096L231.352 695.982Z" fill="#3D754E"/>
<path d="M263.704 716.447L272.324 804.828L287.216 796.947L270.267 720.596L263.704 716.447Z" fill="#5C966C"/>
</g>
<g opacity="0.86">
<path d="M133.607 828.579L150.5 825.507C150.5 825.507 149.968 928.021 150.5 925.61C150.629 925.046 128.29 922.194 128.29 922.194L133.607 828.579Z" fill="#304851"/>
<path d="M177.825 623.818L162.535 642.188L138.943 652.478L127.95 433L177.825 623.818Z" fill="#3D754E"/>
<path d="M106.956 642.319L71.9648 774.554L87.8143 789.743L88.2595 789.316C96.548 740.701 111.67 694.248 113.154 645.752L106.956 642.319Z" fill="#254C30"/>
<path d="M145.785 646.101L110.598 656.057L88.2589 789.392L144.646 736.117L145.785 646.101Z" fill="#2C5B3C"/>
<path d="M144.646 736.116L188.338 758.953L196.067 755.358L164.593 639.446L144.646 646.021V736.116Z" fill="#3D754E"/>
<path d="M177.824 623.818L162.328 635.833L145.785 646.022L111.392 656.197L94.8242 651.748L102.093 661.175L110.597 665.805L165.87 644.138L177.824 623.818Z" fill="#1F3A24"/>
<path d="M149.543 924.628L200.561 949.327C200.236 946.92 190.564 840.704 194.34 841.558L145.781 825.507L149.543 924.628Z" fill="#3D754E"/>
<path d="M193.459 944.53L203.064 1028.64L138.507 1038L128.295 920.844L149.543 923.273L193.459 944.53Z" fill="#3D754E"/>
<path d="M153.582 925.657L138.507 1038L39.098 1023.58C38.1457 1025.01 56.68 935.652 56.68 935.652C59.0584 935.111 153.582 925.657 153.582 925.657Z" fill="#2C5B3C"/>
<path d="M127.95 433L94.8243 651.747L110.597 655.981L128.557 440.266L127.95 433Z" fill="#254C30"/>
<path d="M145.785 646.022L128.557 440.267C120.771 512.176 113.34 584.072 110.598 655.977L111.392 656.188L145.785 646.022Z" fill="#2C5B3C"/>
<path d="M194.182 949.331L203.064 1028.64L223 1005.53L211.141 953.116L200.647 945.568L194.182 949.331Z" fill="#5C966C"/>
<path d="M29.9814 927.722L43.2038 943.073L126.562 937.047L152.155 939.054L194.569 953.798L211.141 955.906L217.095 939.054L193.459 945.889L153.581 925.657L128.295 922.198L29.9814 927.722Z" fill="#1F3A24"/>
<path d="M189.603 845.29L193.46 945.89L217.095 939.055L195.991 847.935L189.603 845.29Z" fill="#5C966C"/>
<path d="M77.9457 782.582L56.6836 839.33L82.1234 841.557L89.3256 790.522L77.9457 782.582Z" fill="#254C30"/>
<path d="M153.581 925.658L56.9714 930.139L82.1241 841.558L145.786 829.794L153.581 925.658Z" fill="#2C5B3C"/>
<path d="M145.264 736.518L91.8146 772.866C91.4939 771.929 82.1191 841.554 82.1191 841.554L145.781 825.503L145.264 736.518Z" fill="#2C5B3C"/>
<path d="M161.75 645.753L188.573 759.97L196.067 755.358L165.87 644.138L161.75 645.753Z" fill="#5C966C"/>
<path d="M131.243 445.601L162.33 635.834L177.825 623.819L128.64 435.65L131.243 445.601Z" fill="#5C966C"/>
<path d="M71.9648 774.551L88.2595 789.391L144.647 736.116L188.339 758.953L196.067 755.358L191.952 768.587L145.264 743.998L87.7521 800.333L74.8217 790.919L71.9648 774.551Z" fill="#1F3A24"/>
<path d="M69.1556 843.789L82.1243 841.558L56.9716 930.138L29.9814 927.722L69.1556 843.789Z" fill="#254C30"/>
<path d="M43.2038 943.072L56.0003 940.379L39.1026 1023.58L27 1003.6L43.2038 943.072Z" fill="#254C30"/>
<path d="M56.6838 839.33L81.3245 841.381L145.785 825.51L212.246 834.493L195.99 850.575L145.785 829.793L80.4438 847.864L56.6838 839.33Z" fill="#1F3A24"/>
<path d="M145.264 743.998L144.513 825.823L194.531 841.557L212.438 834.493L191.344 765.612L145.264 743.998Z" fill="#3D754E"/>
<path d="M184.166 762.342L194.531 841.557L212.439 834.493L192.057 766.061L184.166 762.342Z" fill="#5C966C"/>
</g>
<g opacity="0.86">
<path d="M33.0461 759.848L50.8006 755.959C50.8006 755.959 50.2423 885.754 50.8006 882.701C50.9364 881.987 27.458 878.377 27.458 878.377L33.0461 759.848Z" fill="#304851"/>
<path d="M79.5197 500.598L63.4499 523.856L38.6537 536.884L27.1006 259L79.5197 500.598Z" fill="#3D754E"/>
<path d="M5.03542 524.023L-31.7414 691.448L-15.0832 710.678L-14.6154 710.138C-5.904 648.586 9.98971 589.771 11.5489 528.37L5.03542 524.023Z" fill="#254C30"/>
<path d="M45.8463 528.811L8.86321 541.415L-14.6152 710.233L44.649 642.781L45.8463 528.811Z" fill="#2C5B3C"/>
<path d="M44.6484 642.781L90.5693 671.696L98.6924 667.143L65.6122 520.386L44.6484 528.711V642.781Z" fill="#3D754E"/>
<path d="M79.5197 500.598L63.2335 515.81L45.8461 528.71L9.69787 541.593L-7.71484 535.959L-0.0747258 547.895L8.86302 553.757L66.9557 526.325L79.5197 500.598Z" fill="#1F3A24"/>
<path d="M49.7942 881.458L103.415 912.73C103.073 909.682 92.9086 775.2 96.877 776.281L45.8408 755.959L49.7942 881.458Z" fill="#3D754E"/>
<path d="M95.952 906.656L106.047 1013.15L38.1966 1025L27.4631 876.666L49.7948 879.742L95.952 906.656Z" fill="#3D754E"/>
<path d="M54.0394 882.762L38.1961 1025L-66.2851 1006.75C-67.286 1008.56 -47.806 895.416 -47.806 895.416C-45.3063 894.731 54.0394 882.762 54.0394 882.762Z" fill="#2C5B3C"/>
<path d="M27.1004 259L-7.71503 535.959L8.86284 541.32L27.739 268.2L27.1004 259Z" fill="#254C30"/>
<path d="M45.8462 528.71L27.7393 268.2C19.556 359.246 11.7452 450.274 8.86316 541.314L9.69801 541.582L45.8462 528.71Z" fill="#2C5B3C"/>
<path d="M96.7119 912.735L106.047 1013.15L127.001 983.893L114.537 917.527L103.507 907.971L96.7119 912.735Z" fill="#5C966C"/>
<path d="M-75.8662 885.375L-61.9693 904.811L25.6423 897.183L52.541 899.724L97.1188 918.391L114.537 921.06L120.794 899.724L95.9519 908.377L54.0397 882.762L27.463 878.382L-75.8662 885.375Z" fill="#1F3A24"/>
<path d="M91.8984 781.007L95.9522 908.378L120.794 899.724L98.6128 784.356L91.8984 781.007Z" fill="#5C966C"/>
<path d="M54.0397 882.762L-47.499 888.435L-21.0631 776.281L45.8466 761.387L54.0397 882.762Z" fill="#2C5B3C"/>
<path d="M45.2981 643.287L-10.8783 689.309C-11.2152 688.122 -21.0684 776.275 -21.0684 776.275L45.8411 755.953L45.2981 643.287Z" fill="#2C5B3C"/>
<path d="M62.625 528.37L90.8162 672.982L98.6928 667.143L66.9557 526.325L62.625 528.37Z" fill="#5C966C"/>
<path d="M30.5614 274.953L63.2339 515.81L79.5201 500.598L27.8252 262.354L30.5614 274.953Z" fill="#5C966C"/>
<path d="M-31.7412 691.442L-14.6152 710.232L44.6491 642.779L90.5699 671.694L98.6931 667.141L94.3673 683.892L45.298 652.759L-15.1485 724.085L-28.7386 712.165L-31.7412 691.442Z" fill="#1F3A24"/>
<path d="M-47.8018 773.461L-21.9039 776.057L45.8456 755.964L115.698 767.337L98.6116 787.698L45.8456 761.386L-22.8295 784.265L-47.8018 773.461Z" fill="#1F3A24"/>
<path d="M45.2984 652.76L44.5088 756.36L97.0786 776.281L115.9 767.337L93.7291 680.125L45.2984 652.76Z" fill="#3D754E"/>
<path d="M86.1846 675.985L97.0786 776.281L115.9 767.337L94.4784 680.694L86.1846 675.985Z" fill="#5C966C"/>
</g>
<g opacity="0.86">
<path d="M1194.59 807.001L1212.43 803.568C1212.43 803.568 1211.87 918.113 1212.43 915.419C1212.57 914.789 1188.97 911.603 1188.97 911.603L1194.59 807.001Z" fill="#304851"/>
<path d="M1241.29 578.211L1225.14 598.737L1200.23 610.235L1188.62 365L1241.29 578.211Z" fill="#3D754E"/>
<path d="M1166.44 598.885L1129.49 746.638L1146.23 763.609L1146.7 763.132C1155.45 708.812 1171.42 656.907 1172.99 602.72L1166.44 598.885Z" fill="#254C30"/>
<path d="M1207.45 603.109L1170.29 614.233L1146.7 763.216L1206.25 703.689L1207.45 603.109Z" fill="#2C5B3C"/>
<path d="M1206.25 703.688L1252.39 729.206L1260.56 725.188L1227.31 595.674L1206.25 603.021V703.688Z" fill="#3D754E"/>
<path d="M1241.29 578.211L1224.92 591.636L1207.45 603.02L1171.13 614.39L1153.63 609.418L1161.31 619.951L1170.29 625.125L1228.66 600.915L1241.29 578.211Z" fill="#1F3A24"/>
<path d="M1211.42 914.322L1265.3 941.919C1264.96 939.23 1254.74 820.549 1258.73 821.503L1207.45 803.568L1211.42 914.322Z" fill="#3D754E"/>
<path d="M1257.8 936.561L1267.94 1030.54L1199.77 1041L1188.98 910.095L1211.42 912.809L1257.8 936.561Z" fill="#3D754E"/>
<path d="M1215.69 915.474L1199.77 1041L1094.78 1024.89C1093.77 1026.49 1113.35 926.641 1113.35 926.641C1115.86 926.037 1215.69 915.474 1215.69 915.474Z" fill="#2C5B3C"/>
<path d="M1188.62 365L1153.63 609.418L1170.29 614.149L1189.26 373.119L1188.62 365Z" fill="#254C30"/>
<path d="M1207.45 603.02L1189.26 373.118C1181.03 453.467 1173.19 533.8 1170.29 614.144L1171.13 614.38L1207.45 603.02Z" fill="#2C5B3C"/>
<path d="M1258.56 941.925L1267.94 1030.54L1289 1004.72L1276.48 946.154L1265.39 937.721L1258.56 941.925Z" fill="#5C966C"/>
<path d="M1085.15 917.781L1099.11 934.933L1187.15 928.201L1214.18 930.444L1258.97 946.918L1276.48 949.273L1282.76 930.444L1257.8 938.081L1215.69 915.474L1188.98 911.609L1085.15 917.781Z" fill="#1F3A24"/>
<path d="M1253.73 825.674L1257.8 938.08L1282.76 930.443L1260.47 828.629L1253.73 825.674Z" fill="#5C966C"/>
<path d="M1135.81 755.607L1113.35 819.015L1140.22 821.503L1147.82 764.479L1135.81 755.607Z" fill="#254C30"/>
<path d="M1215.68 915.474L1113.65 920.48L1140.22 821.504L1207.45 808.359L1215.68 915.474Z" fill="#2C5B3C"/>
<path d="M1206.9 704.136L1150.45 744.75C1150.11 743.703 1140.21 821.499 1140.21 821.499L1207.45 803.564L1206.9 704.136Z" fill="#2C5B3C"/>
<path d="M1224.31 602.721L1252.64 730.342L1260.56 725.188L1228.66 600.916L1224.31 602.721Z" fill="#5C966C"/>
<path d="M1192.09 379.08L1224.92 591.637L1241.29 578.212L1189.34 367.961L1192.09 379.08Z" fill="#5C966C"/>
<path d="M1129.49 746.633L1146.7 763.215L1206.25 703.688L1252.39 729.205L1260.55 725.187L1256.21 739.969L1206.9 712.495L1146.16 775.44L1132.5 764.921L1129.49 746.633Z" fill="#1F3A24"/>
<path d="M1126.52 823.996L1140.22 821.503L1113.65 920.479L1085.15 917.779L1126.52 823.996Z" fill="#254C30"/>
<path d="M1099.11 934.932L1112.63 931.923L1094.78 1024.89L1082 1002.56L1099.11 934.932Z" fill="#254C30"/>
<path d="M1113.35 819.014L1139.37 821.306L1207.45 803.573L1277.64 813.61L1260.47 831.579L1207.45 808.358L1138.44 828.549L1113.35 819.014Z" fill="#1F3A24"/>
<path d="M1206.9 712.496L1206.11 803.924L1258.93 821.504L1277.85 813.611L1255.57 736.646L1206.9 712.496Z" fill="#3D754E"/>
<path d="M1247.99 732.991L1258.93 821.503L1277.85 813.61L1256.32 737.147L1247.99 732.991Z" fill="#5C966C"/>
</g>
<g opacity="0.86">
<path d="M1430.82 725.325L1449.49 721.113C1449.49 721.113 1448.9 861.657 1449.49 858.351C1449.63 857.578 1424.94 853.669 1424.94 853.669L1430.82 725.325Z" fill="#304851"/>
<path d="M1479.69 444.605L1462.79 469.79L1436.72 483.897L1424.57 183L1479.69 444.605Z" fill="#3D754E"/>
<path d="M1401.37 469.971L1362.69 651.261L1380.21 672.083L1380.7 671.498C1389.86 604.849 1406.58 541.163 1408.22 474.677L1401.37 469.971Z" fill="#254C30"/>
<path d="M1444.28 475.154L1405.39 488.803L1380.7 671.601L1443.02 598.562L1444.28 475.154Z" fill="#2C5B3C"/>
<path d="M1479.69 444.604L1462.56 461.077L1444.28 475.045L1406.27 488.995L1387.96 482.895L1395.99 495.819L1405.39 502.166L1466.48 472.462L1479.69 444.604Z" fill="#1F3A24"/>
<path d="M1496.97 884.29L1507.58 999.601L1436.24 1012.43L1424.95 851.816L1448.43 855.147L1496.97 884.29Z" fill="#3D754E"/>
<path d="M1452.9 858.417L1436.24 1012.43L1326.37 992.668C1325.32 994.629 1345.8 872.12 1345.8 872.12C1348.43 871.377 1452.9 858.417 1452.9 858.417Z" fill="#2C5B3C"/>
<path d="M1424.57 183L1387.96 482.895L1405.39 488.7L1425.24 192.962L1424.57 183Z" fill="#254C30"/>
<path d="M1444.28 475.045L1425.24 192.962C1416.64 291.547 1408.42 390.114 1405.39 488.693L1406.27 488.983L1444.28 475.045Z" fill="#2C5B3C"/>
<path d="M1316.29 861.247L1330.91 882.292L1423.04 874.032L1451.32 876.784L1498.2 896.997L1516.51 899.887L1523.09 876.784L1496.97 886.154L1452.9 858.417L1424.95 853.675L1316.29 861.247Z" fill="#1F3A24"/>
<path d="M1369.31 662.266L1345.81 740.065L1373.92 743.118L1381.88 673.151L1369.31 662.266Z" fill="#254C30"/>
<path d="M1452.9 858.417L1346.12 864.559L1373.92 743.118L1444.28 726.99L1452.9 858.417Z" fill="#2C5B3C"/>
<path d="M1443.7 599.111L1384.63 648.944C1384.28 647.659 1373.92 743.113 1373.92 743.113L1444.28 721.108L1443.7 599.111Z" fill="#2C5B3C"/>
<path d="M1428.21 200.275L1462.56 461.078L1479.69 444.605L1425.33 186.633L1428.21 200.275Z" fill="#5C966C"/>
<path d="M1362.69 651.254L1380.7 671.6L1443.02 598.562L1491.31 629.871L1499.85 624.941L1495.3 643.078L1443.7 609.368L1380.14 686.6L1365.85 673.694L1362.69 651.254Z" fill="#1F3A24"/>
<path d="M1359.59 746.177L1373.92 743.118L1346.12 864.559L1316.29 861.247L1359.59 746.177Z" fill="#254C30"/>
<path d="M1330.91 882.292L1345.05 878.6L1326.38 992.667L1313 965.268L1330.91 882.292Z" fill="#254C30"/>
<path d="M1345.81 740.065L1373.04 742.877L1444.28 721.119L1517.73 733.434L1499.77 755.481L1444.28 726.99L1372.07 751.764L1345.81 740.065Z" fill="#1F3A24"/>
</g>
<g opacity="0.86">
<path d="M1321.74 799.232L1335.97 796.023C1335.97 796.023 1335.52 903.113 1335.97 900.594C1336.07 900.005 1317.27 897.026 1317.27 897.026L1321.74 799.232Z" fill="#304851"/>
<path d="M1358.97 585.334L1346.1 604.524L1326.24 615.273L1316.98 386L1358.97 585.334Z" fill="#3D754E"/>
<path d="M1299.31 604.662L1269.85 742.798L1283.19 758.664L1283.57 758.218C1290.55 707.434 1303.28 658.908 1304.53 608.248L1299.31 604.662Z" fill="#254C30"/>
<path d="M1332 608.611L1302.38 619.011L1283.57 758.297L1331.04 702.644L1332 608.611Z" fill="#2C5B3C"/>
<path d="M1331.04 702.644L1367.82 726.501L1374.33 722.745L1347.83 601.66L1331.04 608.529V702.644Z" fill="#3D754E"/>
<path d="M1358.97 585.333L1345.92 597.884L1332 608.527L1303.04 619.157L1289.1 614.509L1295.22 624.357L1302.38 629.193L1348.91 606.56L1358.97 585.333Z" fill="#1F3A24"/>
<path d="M1335.16 899.568L1378.11 925.37C1377.84 922.855 1369.69 811.899 1372.87 812.791L1331.99 796.023L1335.16 899.568Z" fill="#3D754E"/>
<path d="M1372.13 920.358L1380.22 1008.22L1325.87 1018L1317.27 895.614L1335.16 898.152L1372.13 920.358Z" fill="#3D754E"/>
<path d="M1338.56 900.644L1325.87 1018L1242.18 1002.94C1241.38 1004.43 1256.98 911.085 1256.98 911.085C1258.99 910.52 1338.56 900.644 1338.56 900.644Z" fill="#2C5B3C"/>
<path d="M1316.98 386L1289.1 614.51L1302.38 618.932L1317.49 393.59L1316.98 386Z" fill="#254C30"/>
<path d="M1332 608.528L1317.49 393.59C1310.94 468.708 1304.68 543.813 1302.37 618.927L1303.04 619.148L1332 608.528Z" fill="#2C5B3C"/>
<path d="M1372.74 925.374L1380.22 1008.22L1397 984.084L1387.02 929.328L1378.18 921.443L1372.74 925.374Z" fill="#5C966C"/>
<path d="M1234.51 902.8L1245.64 918.836L1315.82 912.542L1337.36 914.639L1373.07 930.041L1387.02 932.243L1392.03 914.639L1372.13 921.779L1338.56 900.644L1317.27 897.031L1234.51 902.8Z" fill="#1F3A24"/>
<path d="M1368.88 816.69L1372.13 921.779L1392.03 914.639L1374.26 819.453L1368.88 816.69Z" fill="#5C966C"/>
<path d="M1274.89 751.184L1256.99 810.464L1278.41 812.79L1284.47 759.478L1274.89 751.184Z" fill="#254C30"/>
<path d="M1338.56 900.645L1257.23 905.325L1278.4 812.791L1332 800.502L1338.56 900.645Z" fill="#2C5B3C"/>
<path d="M1331.56 703.062L1286.56 741.032C1286.29 740.053 1278.4 812.785 1278.4 812.785L1331.99 796.018L1331.56 703.062Z" fill="#2C5B3C"/>
<path d="M1345.44 608.248L1368.02 727.562L1374.33 722.744L1348.91 606.561L1345.44 608.248Z" fill="#5C966C"/>
<path d="M1319.76 399.162L1345.93 597.885L1358.97 585.334L1317.56 388.768L1319.76 399.162Z" fill="#5C966C"/>
<path d="M1269.85 742.794L1283.57 758.296L1331.04 702.644L1367.82 726.5L1374.33 722.744L1370.86 736.564L1331.56 710.878L1283.14 769.726L1272.26 759.892L1269.85 742.794Z" fill="#1F3A24"/>
<path d="M1267.49 815.122L1278.41 812.791L1257.23 905.325L1234.51 902.801L1267.49 815.122Z" fill="#254C30"/>
<path d="M1245.64 918.836L1256.41 916.022L1242.19 1002.94L1232 982.061L1245.64 918.836Z" fill="#254C30"/>
<path d="M1256.99 810.463L1277.73 812.606L1332 796.027L1387.95 805.411L1374.26 822.21L1332 800.501L1276.99 819.378L1256.99 810.463Z" fill="#1F3A24"/>
<path d="M1331.56 710.877L1330.93 796.354L1373.03 812.79L1388.11 805.411L1370.35 733.455L1331.56 710.877Z" fill="#3D754E"/>
<path d="M1364.31 730.04L1373.03 812.791L1388.11 805.412L1370.95 733.925L1364.31 730.04Z" fill="#5C966C"/>
</g>
<path d="M-37 -20H1510V1053H-37V-20Z" fill="#D2D385" fill-opacity="0.57"/>
<path d="M-494 1093.09C-494 1093.09 240.328 1033.69 842.063 1079.97C1407.81 1123.48 2469 1130 2469 1130C2469 1130 2206.15 1065.17 1802.96 1049.37C1399.81 1033.56 1182.91 957.635 1087.49 928.375C992.063 899.116 624.827 853.828 204.521 945.496C-83.2341 1008.26 72.7133 1015.78 -494 1093.09Z" fill="#FEFFEF"/>
<path d="M542.483 54.3346C542.483 54.3346 549.137 62.263 547.109 72.4825C547.109 72.4825 544.921 76.8913 543.42 79.512C543.42 79.512 542.796 83.7507 542.756 85.4875C542.701 87.1881 543.018 86.1368 543.018 86.1368C543.018 86.1368 544.867 84.9282 547.205 86.1238C547.205 86.1238 549.537 84.5519 551.833 86.5616C551.833 86.5616 548.284 86.317 547.592 88.2753C547.592 88.2753 540.72 99.3607 535.196 100.376C535.196 100.376 531.601 103.046 530.516 103.484C530.516 103.484 533.733 99.8764 532.833 97.0085C531.934 94.1406 526.856 92.0381 524.209 93.1076C521.563 94.177 517.38 96.035 513.843 95.9115C510.338 95.775 506.148 92.4743 506.148 92.4743C506.148 92.4743 512.465 96.1743 516.206 93.8654C519.962 91.5926 533.138 86.5623 535.594 88.9689C535.594 88.9689 536.867 90.0073 536.876 88.7447C536.868 87.531 536.584 83.1557 540.831 74.3895C540.831 74.3895 540.94 67.5894 543.523 63.6083C546.106 59.6271 542.483 54.3346 542.483 54.3346Z" fill="url(#paint0_linear_278_9)" fill-opacity="0.5"/>
</g>
<defs>
<linearGradient id="paint0_linear_278_9" x1="551.001" y1="73.0423" x2="505.702" y2="91.3462" gradientUnits="userSpaceOnUse">
<stop stop-color="#16181B"/>
<stop offset="0.9946" stop-color="#285A86"/>
</linearGradient>
</defs>
</svg>
