<svg width="1440" height="873" viewBox="0 0 1440 873" fill="none" xmlns="http://www.w3.org/2000/svg">
<path d="M1440 306.351C1436.99 306.522 1433.98 306.606 1430.97 306.596C1385.16 306.742 1339.75 285.555 1294.24 264.322C1270.96 253.46 1247.66 242.586 1224.26 234.549C1169.78 215.355 1114.72 211.486 1059.96 207.638L1059.93 207.636C1046.11 206.665 1032.32 205.695 1018.55 204.481C1009.06 203.695 999.573 202.781 990.095 201.868L990.082 201.867L990.069 201.866H990.068C930.424 196.122 871.057 190.405 811.84 216.538C779.408 230.588 747.129 253.865 714.892 277.112L714.891 277.114C678.306 303.496 641.774 329.841 605.129 342.62C563.009 357.278 520.507 353.924 477.859 350.558C451.416 348.471 424.917 346.38 398.418 348.575C355.791 352.341 312.89 367.813 269.984 383.287C244.209 392.582 218.432 401.879 192.711 408.639C123.473 426.65 54.837 426.65 20.4187 426.65H-13.9998L-14 771.733C14.9436 765.768 43.8068 751.311 72.7049 736.836C97.8469 724.243 123.015 711.637 148.286 704.598C190.127 693.075 232.293 697.221 274.424 701.364C304.245 704.296 334.048 707.226 363.708 704.598C389.658 702.211 415.555 695.574 441.408 688.949C487.789 677.063 534.028 665.214 580.18 678.006C626.8 690.816 673.117 728.337 719.437 765.859L719.446 765.866C745.163 786.698 770.88 807.532 796.652 824.137C868.109 870.326 940.616 884.15 1013.12 863.983C1057.49 851.764 1102.14 826.44 1146.8 801.112C1174.07 785.649 1201.34 770.184 1228.55 757.699C1301.05 724.765 1372.93 710.941 1408.97 704.598L1440 698.858V306.351Z" fill="url(#paint0_linear_198_9)"/>
<path fill-rule="evenodd" clip-rule="evenodd" d="M1166.7 10.3843C1167.3 6.58428 1167.5 2.48428 1167.3 1.08428C1166.9 -0.715716 1165.7 1.68428 1162.1 11.0843C1159 19.3843 1157.6 24.2843 1158.1 25.5843C1158.5 26.6843 1161.9 32.0843 1165.7 37.5843L1172.6 47.5843C1174.4 63.0843 1174.9 69.0843 1175 70.7843C1175 72.5843 1175.3 74.0843 1175.6 74.0843C1175.9 74.0843 1176.7 82.0843 1177.5 91.7843C1178.2 101.584 1179.6 119.884 1180.6 132.584C1182.3 155.084 1182.3 155.684 1180.4 158.084C1179.4 159.484 1178.5 161.384 1178.6 162.284C1178.6 163.284 1179.7 165.284 1181 166.784C1183.1 169.384 1183.4 170.984 1184.5 187.584C1185.1 197.484 1186.1 210.784 1186.6 217.084C1187.1 223.384 1188.3 238.984 1189.1 251.584C1189.9 264.184 1190.8 276.084 1191.1 277.784C1191.5 280.284 1192.1 281.084 1193.6 281.084C1195.4 281.084 1195.6 280.584 1195.1 275.284C1194.8 272.184 1193.7 257.484 1192.6 242.584C1191.6 227.684 1190 205.184 1189.1 192.584C1188.2 179.884 1187.9 169.284 1188.3 168.984C1188.7 168.684 1196.7 165.684 1206 162.484C1215.3 159.284 1223.5 156.184 1224.3 155.584C1225 154.984 1226.3 150.784 1227.1 146.084C1227.9 141.384 1229.2 135.784 1230 133.584C1231.4 129.884 1231.5 131.084 1231.5 150.784L1231.6 172.084H1248.1L1256.6 163.584L1265.1 172.084H1280.6C1280.8 131.184 1280.9 128.984 1282.1 131.584C1282.9 133.184 1284.1 137.684 1284.8 141.484C1285.8 146.984 1285.8 148.484 1284.9 148.784C1284 148.984 1283.6 151.284 1283.6 156.084V163.084C1289.8 163.084 1293.1 162.384 1294.9 161.584C1296.6 160.784 1298.7 159.084 1299.5 157.884C1300.5 156.184 1300.7 153.484 1300.2 147.584C1299.8 143.184 1298.9 137.084 1298.1 134.084C1297.3 131.084 1295.8 126.484 1294.6 123.784C1293.5 121.184 1292.3 119.184 1291.9 119.384C1291.4 119.484 1288.4 120.984 1285.1 122.684C1281.8 124.384 1276.6 126.384 1273.6 127.184C1270.4 127.984 1263 128.484 1256.1 128.484C1247.8 128.484 1242.1 127.884 1237.6 126.684C1234 125.784 1228.7 123.584 1225.9 121.984L1220.6 119.084C1216.8 127.184 1214.9 133.084 1213.9 137.284L1212.1 145.084C1195.1 151.084 1189.2 152.984 1188.2 153.184C1186.3 153.584 1186.1 151.984 1183.4 116.084C1181.9 95.4843 1180.9 75.3843 1181.1 71.5843C1181.3 67.7843 1181.1 60.7843 1180.7 56.0843L1179.8 47.5843L1192.4 22.5843C1182.1 3.98428 1179 -0.715716 1178.8 0.0842842C1178.6 0.884284 1179.7 5.58428 1181.1 10.5843C1182.5 15.5843 1183.6 20.4843 1183.6 21.5843C1183.6 22.6843 1182.2 28.0843 1180.6 33.5843C1178.9 39.0843 1177.6 43.6843 1177.6 43.7843C1177.6 43.9843 1177 44.0843 1176.4 44.0843C1175.7 44.1843 1173 39.6843 1170.4 34.0843C1167.5 28.0843 1165.6 22.6843 1165.6 20.5843C1165.6 18.6843 1166.1 14.0843 1166.7 10.3843ZM1236 14.2843C1237.3 11.9843 1238 10.0843 1237.6 10.0843C1237.2 10.0843 1235.5 11.7843 1233.9 13.7843C1232.2 15.8843 1229.6 20.0843 1228.2 23.0843C1226.1 27.4843 1225.6 30.0843 1225.6 36.2843C1225.6 41.5843 1226.3 46.0843 1227.7 50.2843C1228.8 53.7843 1231.1 58.6843 1232.7 61.2843C1235.2 65.3843 1235.4 66.4843 1234.5 68.7843C1233.7 70.8843 1233.9 73.2843 1235.1 78.5843C1236.4 84.0843 1236.5 86.4843 1235.7 89.7843C1234.8 93.1843 1234.9 94.6843 1236.1 97.0843C1236.9 98.6843 1239.8 101.884 1242.6 104.084C1245.3 106.284 1248 108.084 1248.6 108.084C1249.1 108.084 1248.6 105.684 1247.5 102.784C1246.3 99.9843 1243.8 93.6843 1242 88.7843C1240.1 83.9843 1238.6 79.3843 1238.6 78.5843C1238.6 77.4843 1239.3 77.2843 1240.8 77.6843C1242.1 77.9843 1246.1 79.1843 1249.8 80.3843L1256.6 82.5843C1265.51 79.6397 1269.8 78.2785 1271.48 77.7446L1271.49 77.7445C1271.92 77.6076 1272.18 77.5251 1272.3 77.4843C1273.1 77.1843 1273.6 78.0843 1273.6 79.5843C1273.6 80.9843 1271.3 87.6843 1268.6 94.5843C1265.8 101.484 1263.6 107.284 1263.6 107.584C1263.6 107.884 1263.9 108.084 1264.3 108.084C1264.8 108.184 1267.3 106.184 1270 103.884C1272.7 101.484 1275.7 98.1843 1276.7 96.5843C1278.2 93.9843 1278.2 93.0843 1277.2 89.5843C1276.1 86.2843 1276.2 84.7843 1277.3 81.0843C1278.2 78.2843 1278.6 74.2843 1278.3 70.5843C1277.9 65.4843 1278.2 63.9843 1280.2 60.7843C1281.5 58.7843 1283.6 54.6843 1284.8 51.7843C1286.5 47.7843 1287 44.4843 1287 37.0843C1287.1 28.1843 1286.9 27.1843 1283.9 21.5843C1282.1 18.2843 1279.2 14.1843 1277.5 12.5843C1275.8 10.8843 1274.5 9.98428 1274.8 10.5843C1275 11.0843 1276.4 14.0843 1277.9 17.0843C1279.3 20.0843 1281.1 25.2843 1281.7 28.5843C1282.5 33.0843 1282.5 36.0843 1281.6 40.5843C1281 43.8843 1278.8 49.6843 1276.8 53.3843C1274.7 57.0843 1272.9 60.1843 1272.6 60.1843C1272.3 60.1843 1271.4 59.4843 1270.6 58.5843C1269.8 57.6843 1267.1 56.2843 1264.6 55.3843C1262.47 54.6172 1260.12 53.4143 1258.85 52.5804C1258.79 56.1631 1258.19 59.9622 1256.65 63.5C1254.85 60.0416 1254.12 56.3336 1254.01 52.8221C1252.96 53.5506 1251.41 54.2757 1250.1 54.5843C1248.4 54.9843 1245.5 56.3843 1243.6 57.6843C1241.6 58.9843 1239.7 59.6843 1239.1 59.1843C1238.6 58.6843 1236.6 54.9843 1234.7 50.9843C1232.3 45.7843 1231.1 41.6843 1230.8 37.0843C1230.5 32.6843 1230.9 28.5843 1232 24.5843C1233 21.2843 1234.8 16.6843 1236 14.2843ZM1179.1 18.2843C1178.2 16.8843 1176.6 16.0843 1174.7 16.0843C1173.2 16.0843 1171.1 16.8843 1170.1 17.8843C1169.1 18.8843 1168.3 20.5843 1168.4 21.6843C1168.5 22.6843 1169 24.0843 1169.4 24.6843C1169.8 25.2843 1171.2 26.3843 1172.6 26.9843C1174.7 28.0843 1175.5 27.9843 1177.6 26.2843C1179 25.2843 1180.2 23.4843 1180.4 22.4843C1180.6 21.4843 1180 19.5843 1179.1 18.2843ZM1241.82 80.0858C1241.81 80.0848 1241.8 80.0843 1241.8 80.0843H1241.9C1241.89 80.0843 1241.88 80.0857 1241.87 80.0884C1241.87 80.0897 1241.86 80.0912 1241.86 80.093C1241.84 80.0896 1241.83 80.0872 1241.82 80.0858ZM1241.86 80.093C1242.32 80.1878 1244.99 81.0471 1248.1 82.0843C1251.4 83.1843 1255 84.0843 1256.1 84.0843C1257.2 84.0843 1261 83.1843 1264.6 82.0843C1268.2 81.0843 1271.2 80.3843 1271.4 80.5843C1271.5 80.8843 1269.9 85.3843 1267.9 90.5843C1265.2 97.3843 1263.5 100.184 1262.1 100.584C1261 100.784 1258.1 101.084 1255.6 101.084C1253.1 101.084 1250.3 100.584 1249.4 99.8843C1248.5 99.1843 1246.4 94.9843 1244.7 90.5843C1243 86.1843 1241.6 81.9843 1241.6 81.2843C1241.6 80.7264 1241.69 80.1686 1241.86 80.093ZM1227.97 103.977L1227.97 103.977C1222.25 103.515 1216.91 103.084 1215.8 103.084C1214.5 103.084 1213.5 103.284 1213.5 103.584C1213.5 103.884 1214.5 106.184 1215.8 108.784C1217 111.284 1219.5 114.684 1221.3 116.284C1223 117.784 1226.3 119.984 1228.5 121.084C1230.7 122.184 1235.3 123.784 1238.7 124.684C1242.9 125.784 1248.9 126.384 1256.5 126.384C1262.8 126.284 1270.3 125.784 1273 125.084C1275.8 124.484 1280.3 122.884 1283 121.584C1285.8 120.284 1289.9 117.284 1292.3 114.884C1294.7 112.484 1297.1 108.984 1297.6 107.084C1298.2 105.184 1298.5 103.484 1298.3 103.284C1298.1 103.084 1292.3 103.484 1285.3 103.984C1272.8 105.084 1272.4 105.184 1266.5 109.084C1263.2 111.284 1260.2 112.884 1259.8 112.584C1259.3 112.284 1259.6 110.984 1260.3 109.584L1260.3 109.584C1260.9 108.184 1261.5 106.784 1261.5 106.284C1261.5 105.884 1259.3 105.684 1256.5 105.784C1252.3 106.084 1251.6 106.384 1251.9 107.784C1252.1 108.784 1252.5 110.384 1252.9 111.284C1253.2 112.284 1253.2 113.084 1252.8 113.084C1252.3 113.084 1249.4 111.284 1246.3 109.084C1240.7 105.284 1240.1 105.084 1229.3 104.084L1227.97 103.977ZM1229.5 273.084C1229.5 180.884 1229.4 154.084 1229.2 154.084C1229 154.084 1227.7 155.184 1226.4 156.584C1225.1 157.984 1221.5 159.984 1218.5 161.084L1213 162.984C1210.3 183.584 1208.6 199.484 1207.5 211.584C1206.5 223.684 1205.2 240.984 1204.8 250.084C1204.59 254.755 1204.39 259.083 1204.24 262.271L1204.24 262.272L1204.24 262.274C1204.09 265.296 1204 267.292 1204 267.584C1204 268.084 1207.6 269.284 1212 270.184C1216.4 271.084 1222.1 272.084 1224.8 272.384L1229.5 273.084ZM1300.9 172.584C1300.1 167.084 1299.3 162.484 1299.2 162.484C1299 162.384 1298 162.884 1296.9 163.684C1295.9 164.484 1292.4 165.484 1289.2 165.884L1283.5 166.584V273.084C1289.3 272.084 1294.6 271.184 1299 270.484C1303.4 269.684 1307.4 268.784 1307.8 268.384C1308.3 267.884 1308.1 258.384 1307.5 247.084C1306.9 235.784 1305.5 216.684 1304.4 204.584C1303.3 192.484 1301.7 178.084 1300.9 172.584ZM1256.5 182.584L1264.5 174.584C1258.7 168.784 1256.6 167.084 1256 167.084C1255.5 167.084 1253.4 168.684 1251.5 170.684L1248 174.184L1256.5 182.584ZM1248 177.084H1231.5V224.584C1231.5 264.584 1231.7 272.684 1233 275.584C1233.8 277.584 1235.8 279.784 1237.5 280.584C1239.2 281.384 1241.6 282.084 1243 282.084C1244.4 282.084 1246.8 281.384 1248.5 280.584C1250.2 279.784 1252.2 277.584 1253 275.584C1254.2 272.684 1254.5 265.684 1254.5 234.584C1254.5 197.784 1254.5 197.084 1256.5 197.084C1258.5 197.084 1258.5 197.784 1258.5 236.084V275.084C1264 281.184 1264.9 281.584 1269.5 281.584C1274.1 281.584 1275 281.184 1277.6 278.284L1280.5 275.084V177.084C1270.1 177.084 1266.86 177.084 1264.38 178.456C1263.26 179.076 1262.3 179.977 1260.9 181.284L1256.5 185.584L1248 177.084ZM1244 83C1247.55 83.5077 1253.9 85.8941 1253.9 88.3313C1253.9 91.3777 1245.52 90.6161 1244 83ZM1268.9 83C1265.35 83.5077 1259 85.8941 1259 88.3313C1259 91.3777 1267.38 90.6161 1268.9 83Z" fill="#2C1C0D"/>
<defs>
<linearGradient id="paint0_linear_198_9" x1="-14" y1="873" x2="-14" y2="197" gradientUnits="userSpaceOnUse">
<stop offset="0.181785" stop-color="#2C1C0D"/>
<stop offset="0.476798" stop-color="#160E06"/>
<stop offset="0.856099" stop-color="#2E1C0C"/>
</linearGradient>
</defs>
</svg>
