<svg width="1440" height="891" viewBox="0 0 1440 891" fill="none" xmlns="http://www.w3.org/2000/svg">
<g opacity="0.5">
<g opacity="0.86">
<path d="M202.657 636.348L216.706 632.921C216.706 632.921 216.264 747.296 216.706 744.606C216.813 743.977 198.236 740.795 198.236 740.795L202.657 636.348Z" fill="#304851"/>
<path d="M239.431 407.896L226.715 428.392L207.095 439.872L197.954 195L239.431 407.896Z" fill="#3D754E"/>
<path d="M180.494 428.539L151.394 576.074L164.575 593.02L164.945 592.543C171.838 538.304 184.414 486.476 185.648 432.369L180.494 428.539Z" fill="#254C30"/>
<path d="M212.786 432.757L183.523 443.864L164.945 592.627L211.839 533.188L212.786 432.757Z" fill="#2C5B3C"/>
<path d="M211.839 533.188L248.174 558.667L254.601 554.656L228.426 425.333L211.839 432.669V533.188Z" fill="#3D754E"/>
<path d="M239.431 407.896L226.544 421.301L212.786 432.668L184.183 444.021L170.405 439.057L176.45 449.574L183.523 454.74L229.489 430.567L239.431 407.896Z" fill="#1F3A24"/>
<path d="M215.91 743.511L258.339 771.067C258.068 768.381 250.025 649.876 253.165 650.829L212.782 632.921L215.91 743.511Z" fill="#3D754E"/>
<path d="M252.433 765.715L260.42 859.556L206.733 870L198.24 739.288L215.91 741.998L252.433 765.715Z" fill="#3D754E"/>
<path d="M219.269 744.659L206.733 870L124.061 853.914C123.269 855.51 138.683 755.811 138.683 755.811C140.661 755.207 219.269 744.659 219.269 744.659Z" fill="#2C5B3C"/>
<path d="M197.953 195L170.405 439.057L183.523 443.781L198.459 203.107L197.953 195Z" fill="#254C30"/>
<path d="M212.786 432.669L198.459 203.107C191.984 283.337 185.803 363.551 183.523 443.776L184.183 444.012L212.786 432.669Z" fill="#2C5B3C"/>
<path d="M253.034 771.072L260.42 859.556L277 833.777L267.138 775.295L258.411 766.874L253.034 771.072Z" fill="#5C966C"/>
<path d="M116.479 746.963L127.476 764.09L196.799 757.368L218.083 759.607L253.356 776.056L267.138 778.408L272.089 759.607L252.433 767.232L219.269 744.66L198.24 740.8L116.479 746.963Z" fill="#1F3A24"/>
<path d="M249.225 654.993L252.433 767.233L272.089 759.607L254.538 657.944L249.225 654.993Z" fill="#5C966C"/>
<path d="M156.369 585.03L138.686 648.344L159.843 650.828L165.832 593.888L156.369 585.03Z" fill="#254C30"/>
<path d="M219.269 744.66L138.925 749.658L159.843 650.829L212.786 637.703L219.269 744.66Z" fill="#2C5B3C"/>
<path d="M212.352 533.635L167.902 574.189C167.635 573.143 159.839 650.824 159.839 650.824L212.782 632.916L212.352 533.635Z" fill="#2C5B3C"/>
<path d="M226.063 432.369L248.369 559.801L254.602 554.656L229.49 430.567L226.063 432.369Z" fill="#5C966C"/>
<path d="M200.692 209.058L226.544 421.302L239.431 407.896L198.527 197.956L200.692 209.058Z" fill="#5C966C"/>
<path d="M151.394 576.069L164.945 592.626L211.839 533.187L248.174 558.667L254.602 554.655L251.179 569.415L212.352 541.981L164.523 604.833L153.77 594.33L151.394 576.069Z" fill="#1F3A24"/>
<path d="M149.058 653.318L159.843 650.828L138.925 749.658L116.479 746.962L149.058 653.318Z" fill="#254C30"/>
<path d="M127.476 764.089L138.118 761.084L124.065 853.914L114 831.616L127.476 764.089Z" fill="#254C30"/>
<path d="M138.686 648.344L159.178 650.632L212.786 632.925L268.057 642.947L254.538 660.889L212.786 637.703L158.446 657.865L138.686 648.344Z" fill="#1F3A24"/>
<path d="M212.352 541.982L211.728 633.274L253.324 650.829L268.216 642.947L250.674 566.096L212.352 541.982Z" fill="#3D754E"/>
<path d="M244.704 562.448L253.324 650.828L268.217 642.947L251.267 566.597L244.704 562.448Z" fill="#5C966C"/>
</g>
<g opacity="0.86">
<path d="M114.606 674.578L131.499 671.506C131.499 671.506 130.968 774.021 131.499 771.609C131.628 771.046 109.29 768.194 109.29 768.194L114.606 674.578Z" fill="#304851"/>
<path d="M158.825 469.818L143.535 488.188L119.943 498.478L108.95 279L158.825 469.818Z" fill="#3D754E"/>
<path d="M87.9561 488.32L52.9646 620.555L68.8141 635.743L69.2592 635.316C77.5477 586.702 92.6699 540.248 94.1534 491.753L87.9561 488.32Z" fill="#254C30"/>
<path d="M126.785 492.101L91.5976 502.057L69.2589 635.392L125.646 582.117L126.785 492.101Z" fill="#2C5B3C"/>
<path d="M125.646 582.117L169.338 604.954L177.067 601.358L145.592 485.447L125.646 492.022V582.117Z" fill="#3D754E"/>
<path d="M158.824 469.818L143.328 481.833L126.785 492.021L92.3917 502.197L75.8242 497.747L83.0935 507.174L91.5973 511.804L146.87 490.138L158.824 469.818Z" fill="#1F3A24"/>
<path d="M130.542 770.628L181.561 795.327C181.235 792.919 171.564 686.703 175.34 687.557L126.781 671.506L130.542 770.628Z" fill="#3D754E"/>
<path d="M174.459 790.53L184.063 874.639L119.507 884L109.295 766.843L130.542 769.273L174.459 790.53Z" fill="#3D754E"/>
<path d="M134.581 771.657L119.507 884L20.098 869.582C19.1457 871.012 37.68 781.652 37.68 781.652C40.0584 781.111 134.581 771.657 134.581 771.657Z" fill="#2C5B3C"/>
<path d="M108.95 279L75.8242 497.747L91.5973 501.981L109.557 286.266L108.95 279Z" fill="#254C30"/>
<path d="M126.786 492.022L109.558 286.267C101.772 358.176 94.34 430.072 91.5979 501.977L92.3922 502.188L126.786 492.022Z" fill="#2C5B3C"/>
<path d="M175.182 795.331L184.064 874.639L204 851.533L192.142 799.116L181.647 791.569L175.182 795.331Z" fill="#5C966C"/>
<path d="M10.9812 773.722L24.2035 789.073L107.562 783.048L133.155 785.054L175.569 799.798L192.141 801.906L198.094 785.054L174.459 791.889L134.581 771.658L109.294 768.198L10.9812 773.722Z" fill="#1F3A24"/>
<path d="M170.602 691.29L174.459 791.89L198.095 785.055L176.991 693.935L170.602 691.29Z" fill="#5C966C"/>
<path d="M58.9459 628.583L37.6838 685.33L63.1236 687.557L70.3258 636.522L58.9459 628.583Z" fill="#254C30"/>
<path d="M134.581 771.658L37.9714 776.139L63.1241 687.558L126.786 675.794L134.581 771.658Z" fill="#2C5B3C"/>
<path d="M126.264 582.517L72.8145 618.866C72.4938 617.928 63.119 687.553 63.119 687.553L126.78 671.503L126.264 582.517Z" fill="#2C5B3C"/>
<path d="M142.75 491.753L169.573 605.97L177.067 601.358L146.87 490.138L142.75 491.753Z" fill="#5C966C"/>
<path d="M112.243 291.601L143.329 481.834L158.825 469.819L109.64 281.65L112.243 291.601Z" fill="#5C966C"/>
<path d="M52.9646 620.551L69.2592 635.391L125.647 582.116L169.338 604.953L177.067 601.358L172.951 614.587L126.264 589.998L68.7519 646.332L55.8215 636.918L52.9646 620.551Z" fill="#1F3A24"/>
<path d="M50.1553 689.789L63.124 687.557L37.9714 776.138L10.9812 773.722L50.1553 689.789Z" fill="#254C30"/>
<path d="M24.2038 789.073L37.0003 786.379L20.1026 869.582L8 849.597L24.2038 789.073Z" fill="#254C30"/>
<path d="M37.6838 685.33L62.3245 687.381L126.785 671.51L193.246 680.493L176.99 696.575L126.785 675.793L61.4438 693.864L37.6838 685.33Z" fill="#1F3A24"/>
<path d="M126.264 589.998L125.513 671.823L175.53 687.557L193.438 680.494L172.344 611.612L126.264 589.998Z" fill="#3D754E"/>
<path d="M165.166 608.342L175.532 687.557L193.439 680.494L173.058 612.061L165.166 608.342Z" fill="#5C966C"/>
</g>
<g opacity="0.86">
<path d="M14.0456 605.848L31.8001 601.959C31.8001 601.959 31.2418 731.754 31.8001 728.701C31.9359 727.987 8.45752 724.376 8.45752 724.376L14.0456 605.848Z" fill="#304851"/>
<path d="M60.5201 346.598L44.4503 369.856L19.6541 382.884L8.10095 105L60.5201 346.598Z" fill="#3D754E"/>
<path d="M26.8463 374.811L-10.1368 387.415L-33.6152 556.233L25.6491 488.781L26.8463 374.811Z" fill="#2C5B3C"/>
<path d="M25.6487 488.781L71.5695 517.695L79.6927 513.143L46.6125 366.385L25.6487 374.71V488.781Z" fill="#3D754E"/>
<path d="M60.5195 346.597L44.2333 361.81L26.8459 374.709L-9.30237 387.593L-26.7151 381.959L-19.075 393.895L-10.1372 399.757L47.9555 372.324L60.5195 346.597Z" fill="#1F3A24"/>
<path d="M30.7944 727.458L84.4157 758.73C84.0737 755.682 73.9088 621.2 77.8772 622.281L26.8411 601.959L30.7944 727.458Z" fill="#3D754E"/>
<path d="M76.9521 752.656L87.0467 859.148L19.1966 871L8.46313 722.666L30.7948 725.742L76.9521 752.656Z" fill="#3D754E"/>
<path d="M35.0394 728.762L19.1961 871L-85.2851 852.745C-86.286 854.556 -66.8061 741.416 -66.8061 741.416C-64.3063 740.731 35.0394 728.762 35.0394 728.762Z" fill="#2C5B3C"/>
<path d="M8.10037 105L-26.7151 381.959L-10.1372 387.32L8.7389 114.2L8.10037 105Z" fill="#254C30"/>
<path d="M26.8462 374.71L8.73928 114.2C0.55602 205.246 -7.25484 296.274 -10.1368 387.314L-9.30199 387.582L26.8462 374.71Z" fill="#2C5B3C"/>
<path d="M77.7114 758.735L87.0466 859.148L108 829.893L95.5366 763.527L84.5066 753.971L77.7114 758.735Z" fill="#5C966C"/>
<path d="M-94.8666 731.375L-80.9696 750.811L6.64192 743.183L33.5407 745.724L78.1184 764.391L95.5362 767.06L101.793 745.724L76.9516 754.378L35.0394 728.762L8.46266 724.382L-94.8666 731.375Z" fill="#1F3A24"/>
<path d="M72.8979 627.007L76.9517 754.378L101.793 745.724L79.6124 630.355L72.8979 627.007Z" fill="#5C966C"/>
<path d="M35.0392 728.762L-66.4995 734.434L-40.0636 622.281L26.8461 607.386L35.0392 728.762Z" fill="#2C5B3C"/>
<path d="M26.2977 489.288L-29.8786 535.309C-30.2156 534.122 -40.0687 622.276 -40.0687 622.276L26.8408 601.954L26.2977 489.288Z" fill="#2C5B3C"/>
<path d="M43.6255 374.37L71.8166 518.982L79.6933 513.142L47.9561 372.325L43.6255 374.37Z" fill="#5C966C"/>
<path d="M11.5615 120.954L44.234 361.81L60.5203 346.598L8.82532 108.355L11.5615 120.954Z" fill="#5C966C"/>
<path d="M-50.7413 537.443L-33.6153 556.232L25.649 488.78L71.5698 517.694L79.6929 513.142L75.3672 529.892L26.2979 498.76L-34.1486 570.085L-47.7387 558.166L-50.7413 537.443Z" fill="#1F3A24"/>
<path d="M-66.8013 619.461L-40.9035 622.058L26.8461 601.964L96.698 613.337L79.6121 633.698L26.8461 607.386L-41.829 630.266L-66.8013 619.461Z" fill="#1F3A24"/>
<path d="M26.298 498.76L25.5084 602.36L78.0783 622.281L96.8993 613.337L74.7288 526.126L26.298 498.76Z" fill="#3D754E"/>
<path d="M67.1847 521.985L78.0787 622.281L96.8997 613.337L75.4785 526.694L67.1847 521.985Z" fill="#5C966C"/>
</g>
<g opacity="0.86">
<path d="M1175.59 653.001L1193.43 649.569C1193.43 649.569 1192.87 764.114 1193.43 761.419C1193.57 760.79 1169.97 757.603 1169.97 757.603L1175.59 653.001Z" fill="#304851"/>
<path d="M1222.29 424.211L1206.14 444.737L1181.23 456.235L1169.62 211L1222.29 424.211Z" fill="#3D754E"/>
<path d="M1147.44 444.885L1110.49 592.639L1127.23 609.609L1127.7 609.132C1136.45 554.812 1152.42 502.907 1153.99 448.721L1147.44 444.885Z" fill="#254C30"/>
<path d="M1188.45 449.109L1151.29 460.233L1127.7 609.216L1187.25 549.688L1188.45 449.109Z" fill="#2C5B3C"/>
<path d="M1187.25 549.688L1233.39 575.205L1241.56 571.188L1208.31 441.673L1187.25 449.02V549.688Z" fill="#3D754E"/>
<path d="M1222.29 424.211L1205.93 437.636L1188.45 449.02L1152.13 460.39L1134.63 455.418L1142.31 465.951L1151.29 471.125L1209.67 446.915L1222.29 424.211Z" fill="#1F3A24"/>
<path d="M1192.42 760.323L1246.3 787.92C1245.96 785.23 1235.74 666.549 1239.73 667.503L1188.45 649.569L1192.42 760.323Z" fill="#3D754E"/>
<path d="M1238.8 782.561L1248.94 876.541L1180.76 887L1169.98 756.094L1192.42 758.809L1238.8 782.561Z" fill="#3D754E"/>
<path d="M1196.69 761.473L1180.77 886.999L1075.78 870.889C1074.77 872.488 1094.35 772.641 1094.35 772.641C1096.86 772.036 1196.69 761.473 1196.69 761.473Z" fill="#2C5B3C"/>
<path d="M1169.62 211L1134.63 455.418L1151.29 460.149L1170.26 219.119L1169.62 211Z" fill="#254C30"/>
<path d="M1188.45 449.02L1170.26 219.118C1162.03 299.467 1154.19 379.8 1151.29 460.144L1152.13 460.38L1188.45 449.02Z" fill="#2C5B3C"/>
<path d="M1239.56 787.926L1248.94 876.54L1270 850.723L1257.48 792.155L1246.39 783.721L1239.56 787.926Z" fill="#5C966C"/>
<path d="M1066.15 763.78L1080.11 780.933L1168.15 774.201L1195.18 776.443L1239.97 792.917L1257.48 795.273L1263.76 776.443L1238.8 784.08L1196.69 761.474L1169.98 757.609L1066.15 763.78Z" fill="#1F3A24"/>
<path d="M1234.73 671.674L1238.8 784.08L1263.76 776.443L1241.47 674.629L1234.73 671.674Z" fill="#5C966C"/>
<path d="M1116.81 601.607L1094.35 665.014L1121.22 667.503L1128.82 610.479L1116.81 601.607Z" fill="#254C30"/>
<path d="M1196.68 761.474L1094.65 766.48L1121.22 667.504L1188.45 654.359L1196.68 761.474Z" fill="#2C5B3C"/>
<path d="M1187.9 550.135L1131.45 590.75C1131.11 589.702 1121.21 667.498 1121.21 667.498L1188.45 649.564L1187.9 550.135Z" fill="#2C5B3C"/>
<path d="M1205.31 448.721L1233.64 576.342L1241.56 571.188L1209.66 446.916L1205.31 448.721Z" fill="#5C966C"/>
<path d="M1173.09 225.079L1205.92 437.636L1222.29 424.211L1170.34 213.96L1173.09 225.079Z" fill="#5C966C"/>
<path d="M1110.49 592.633L1127.7 609.215L1187.25 549.688L1233.39 575.205L1241.55 571.187L1237.21 585.97L1187.9 558.495L1127.16 621.44L1113.5 610.921L1110.49 592.633Z" fill="#1F3A24"/>
<path d="M1107.52 669.996L1121.22 667.502L1094.65 766.478L1066.15 763.779L1107.52 669.996Z" fill="#254C30"/>
<path d="M1080.11 780.932L1093.63 777.922L1075.78 870.889L1063 848.558L1080.11 780.932Z" fill="#254C30"/>
<path d="M1094.35 665.014L1120.37 667.306L1188.45 649.573L1258.64 659.61L1241.47 677.579L1188.45 654.358L1119.44 674.549L1094.35 665.014Z" fill="#1F3A24"/>
<path d="M1187.9 558.496L1187.11 649.924L1239.93 667.504L1258.85 659.612L1236.57 582.647L1187.9 558.496Z" fill="#3D754E"/>
<path d="M1228.99 578.991L1239.93 667.503L1258.85 659.61L1237.32 583.147L1228.99 578.991Z" fill="#5C966C"/>
</g>
<g opacity="0.86">
<path d="M1411.82 571.325L1430.49 567.113C1430.49 567.113 1429.9 707.657 1430.49 704.351C1430.63 703.578 1405.94 699.669 1405.94 699.669L1411.82 571.325Z" fill="#304851"/>
<path d="M1460.69 290.605L1443.79 315.79L1417.72 329.897L1405.57 29L1460.69 290.605Z" fill="#3D754E"/>
<path d="M1382.37 315.971L1343.69 497.261L1361.21 518.083L1361.7 517.498C1370.86 450.849 1387.58 387.163 1389.22 320.677L1382.37 315.971Z" fill="#254C30"/>
<path d="M1425.28 321.154L1386.39 334.802L1361.7 517.6L1424.02 444.562L1425.28 321.154Z" fill="#2C5B3C"/>
<path d="M1424.02 444.562L1472.31 475.871L1480.85 470.941L1446.07 312.031L1424.02 321.045V444.562Z" fill="#3D754E"/>
<path d="M1460.69 290.605L1443.56 307.077L1425.28 321.045L1387.27 334.995L1368.96 328.895L1376.99 341.819L1386.39 348.167L1447.48 318.463L1460.69 290.605Z" fill="#1F3A24"/>
<path d="M1429.43 703.005L1485.82 736.867C1485.46 733.566 1474.77 587.948 1478.94 589.118L1425.28 567.113L1429.43 703.005Z" fill="#3D754E"/>
<path d="M1477.97 730.29L1488.58 845.601L1417.24 858.434L1405.95 697.816L1429.43 701.147L1477.97 730.29Z" fill="#3D754E"/>
<path d="M1433.9 704.417L1417.24 858.434L1307.37 838.668C1306.32 840.629 1326.8 718.12 1326.8 718.12C1329.43 717.377 1433.9 704.417 1433.9 704.417Z" fill="#2C5B3C"/>
<path d="M1405.57 29L1368.96 328.895L1386.39 334.7L1406.24 38.9617L1405.57 29Z" fill="#254C30"/>
<path d="M1425.28 321.045L1406.24 38.9617C1397.64 137.547 1389.42 236.114 1386.39 334.693L1387.27 334.983L1425.28 321.045Z" fill="#2C5B3C"/>
<path d="M1297.29 707.247L1311.91 728.292L1404.04 720.032L1432.32 722.784L1479.2 742.997L1497.51 745.887L1504.09 722.784L1477.97 732.154L1433.9 704.417L1405.95 699.675L1297.29 707.247Z" fill="#1F3A24"/>
<path d="M1350.31 508.266L1326.81 586.065L1354.92 589.118L1362.88 519.151L1350.31 508.266Z" fill="#254C30"/>
<path d="M1433.9 704.417L1327.12 710.559L1354.92 589.118L1425.28 572.99L1433.9 704.417Z" fill="#2C5B3C"/>
<path d="M1424.7 445.111L1365.63 494.944C1365.28 493.659 1354.92 589.112 1354.92 589.112L1425.28 567.107L1424.7 445.111Z" fill="#2C5B3C"/>
<path d="M1409.21 46.2745L1443.56 307.077L1460.69 290.605L1406.33 32.6323L1409.21 46.2745Z" fill="#5C966C"/>
<path d="M1343.69 497.255L1361.7 517.601L1424.02 444.562L1472.31 475.871L1480.85 470.942L1476.3 489.079L1424.7 455.368L1361.14 532.6L1346.85 519.694L1343.69 497.255Z" fill="#1F3A24"/>
<path d="M1340.59 592.177L1354.92 589.118L1327.12 710.559L1297.29 707.247L1340.59 592.177Z" fill="#254C30"/>
<path d="M1311.91 728.293L1326.05 724.6L1307.38 838.668L1294 811.269L1311.91 728.293Z" fill="#254C30"/>
<path d="M1326.81 586.065L1354.04 588.877L1425.28 567.119L1498.73 579.434L1480.77 601.481L1425.28 572.99L1353.07 597.765L1326.81 586.065Z" fill="#1F3A24"/>
<path d="M1424.7 455.368L1423.87 567.548L1479.15 589.118L1498.94 579.434L1475.63 485L1424.7 455.368Z" fill="#3D754E"/>
</g>
<g opacity="0.86">
<path d="M1302.74 645.232L1316.97 642.023C1316.97 642.023 1316.52 749.113 1316.97 746.594C1317.07 746.005 1298.27 743.026 1298.27 743.026L1302.74 645.232Z" fill="#304851"/>
<path d="M1339.97 431.334L1327.1 450.524L1307.24 461.273L1297.98 232L1339.97 431.334Z" fill="#3D754E"/>
<path d="M1280.31 450.662L1250.85 588.798L1264.19 604.664L1264.57 604.218C1271.55 553.434 1284.28 504.908 1285.53 454.248L1280.31 450.662Z" fill="#254C30"/>
<path d="M1313 454.611L1283.38 465.011L1264.57 604.297L1312.04 548.644L1313 454.611Z" fill="#2C5B3C"/>
<path d="M1312.04 548.644L1348.82 572.5L1355.33 568.744L1328.83 447.66L1312.04 454.529V548.644Z" fill="#3D754E"/>
<path d="M1339.97 431.333L1326.92 443.885L1313 454.528L1284.04 465.157L1270.1 460.509L1276.22 470.357L1283.38 475.194L1329.91 452.56L1339.97 431.333Z" fill="#1F3A24"/>
<path d="M1316.16 745.568L1359.11 771.37C1358.84 768.855 1350.69 657.899 1353.87 658.791L1312.99 642.023L1316.16 745.568Z" fill="#3D754E"/>
<path d="M1353.13 766.358L1361.22 854.221L1306.87 864L1298.27 741.614L1316.16 744.152L1353.13 766.358Z" fill="#3D754E"/>
<path d="M1319.56 746.644L1306.87 864L1223.18 848.939C1222.38 850.433 1237.98 757.085 1237.98 757.085C1239.99 756.52 1319.56 746.644 1319.56 746.644Z" fill="#2C5B3C"/>
<path d="M1297.98 232L1270.1 460.51L1283.38 464.932L1298.49 239.59L1297.98 232Z" fill="#254C30"/>
<path d="M1313 454.528L1298.49 239.59C1291.94 314.709 1285.68 389.813 1283.37 464.927L1284.04 465.148L1313 454.528Z" fill="#2C5B3C"/>
<path d="M1353.74 771.375L1361.22 854.222L1378 830.085L1368.02 775.329L1359.18 767.444L1353.74 771.375Z" fill="#5C966C"/>
<path d="M1215.51 748.8L1226.64 764.836L1296.82 758.542L1318.36 760.639L1354.07 776.041L1368.02 778.243L1373.03 760.639L1353.13 767.779L1319.56 746.644L1298.27 743.031L1215.51 748.8Z" fill="#1F3A24"/>
<path d="M1349.88 662.69L1353.13 767.779L1373.03 760.639L1355.26 665.453L1349.88 662.69Z" fill="#5C966C"/>
<path d="M1255.89 597.184L1237.99 656.464L1259.41 658.79L1265.47 605.478L1255.89 597.184Z" fill="#254C30"/>
<path d="M1319.56 746.645L1238.23 751.325L1259.4 658.791L1313 646.502L1319.56 746.645Z" fill="#2C5B3C"/>
<path d="M1312.56 549.062L1267.56 587.032C1267.29 586.053 1259.4 658.785 1259.4 658.785L1312.99 642.018L1312.56 549.062Z" fill="#2C5B3C"/>
<path d="M1326.44 454.248L1349.02 573.562L1355.33 568.744L1329.91 452.561L1326.44 454.248Z" fill="#5C966C"/>
<path d="M1300.76 245.162L1326.93 443.885L1339.97 431.334L1298.56 234.768L1300.76 245.162Z" fill="#5C966C"/>
<path d="M1250.85 588.793L1264.57 604.296L1312.04 548.643L1348.82 572.5L1355.33 568.744L1351.86 582.564L1312.56 556.877L1264.14 615.725L1253.26 605.891L1250.85 588.793Z" fill="#1F3A24"/>
<path d="M1248.49 661.122L1259.41 658.791L1238.23 751.325L1215.51 748.801L1248.49 661.122Z" fill="#254C30"/>
<path d="M1226.64 764.836L1237.41 762.022L1223.19 848.938L1213 828.061L1226.64 764.836Z" fill="#254C30"/>
<path d="M1237.99 656.464L1258.73 658.606L1313 642.028L1368.95 651.411L1355.26 668.21L1313 646.501L1257.99 665.378L1237.99 656.464Z" fill="#1F3A24"/>
<path d="M1312.56 556.877L1311.93 642.354L1354.03 658.79L1369.11 651.411L1351.35 579.456L1312.56 556.877Z" fill="#3D754E"/>
<path d="M1345.31 576.04L1354.03 658.791L1369.11 651.412L1351.95 579.925L1345.31 576.04Z" fill="#5C966C"/>
</g>
</g>
<path d="M-333 861.964C-333 861.964 223.88 815.238 680.207 851.643C1109.24 885.869 1914 891 1914 891C1914 891 1714.67 840.003 1408.91 827.572C1103.18 815.14 938.689 755.416 866.325 732.4C793.961 709.384 515.466 673.76 196.726 745.867C-21.4944 795.242 96.7688 801.154 -333 861.964Z" fill="#FEFFEF"/>
<path d="M157.576 219.271C157.576 219.271 161.803 228.719 157.053 237.992C157.053 237.992 153.742 241.633 151.581 243.742C151.581 243.742 149.819 247.648 149.305 249.307C148.787 250.928 149.38 250.003 149.38 250.003C149.38 250.003 151.489 249.348 153.41 251.138C153.41 251.138 156.083 250.265 157.741 252.827C157.741 252.827 154.395 251.619 153.193 253.313C153.193 253.313 143.547 262.092 137.956 261.556C137.956 261.556 133.767 263.138 132.604 263.263C132.604 263.263 136.685 260.674 136.606 257.67C136.527 254.665 132.219 251.252 129.38 251.556C126.542 251.859 122.01 252.5 118.643 251.413C115.309 250.322 112.183 245.999 112.183 245.999C112.183 245.999 117.246 251.288 121.476 250.092C125.71 248.935 139.76 247.706 141.463 250.694C141.463 250.694 142.403 252.041 142.758 250.829C143.082 249.66 144.007 245.374 150.494 238.106C150.494 238.106 152.461 231.596 156.036 228.475C159.61 225.353 157.576 219.271 157.576 219.271Z" fill="url(#paint0_linear_264_12)" fill-opacity="0.5"/>
<path d="M1277.56 113.105C1277.56 113.105 1277.14 123.446 1268.77 129.639C1268.77 129.639 1264.18 131.427 1261.31 132.355C1261.31 132.355 1257.99 135.07 1256.79 136.327C1255.61 137.548 1256.55 136.984 1256.55 136.984C1256.55 136.984 1258.73 137.334 1259.65 139.792C1259.65 139.792 1262.44 140.2 1262.78 143.231C1262.78 143.231 1260.32 140.662 1258.49 141.644C1258.49 141.644 1245.95 145.217 1241.18 142.249C1241.18 142.249 1236.72 141.803 1235.63 141.398C1235.63 141.398 1240.43 140.895 1241.7 138.168C1242.97 135.442 1240.62 130.469 1237.95 129.479C1235.27 128.488 1230.93 127.047 1228.39 124.575C1225.89 122.114 1225.02 116.853 1225.02 116.853C1225.02 116.853 1227.2 123.842 1231.52 124.652C1235.83 125.499 1248.96 130.648 1249.15 134.081C1249.15 134.081 1249.4 135.706 1250.25 134.778C1251.06 133.875 1253.8 130.448 1262.84 126.824C1262.84 126.824 1267.5 121.868 1272.09 120.663C1276.68 119.457 1277.56 113.105 1277.56 113.105Z" fill="url(#paint1_linear_264_12)" fill-opacity="0.5"/>
<path d="M896.18 175.29C896.18 175.29 890.622 184.021 880.266 185.163C880.266 185.163 875.403 184.404 872.453 183.761C872.453 183.761 868.223 184.442 866.554 184.927C864.916 185.386 866.014 185.372 866.014 185.372C866.014 185.372 867.723 186.771 867.287 189.361C867.287 189.361 869.488 191.112 868.262 193.906C868.262 193.906 867.427 190.448 865.351 190.377C865.351 190.377 852.712 187.161 850.08 182.198C850.08 182.198 846.452 179.573 845.708 178.671C845.708 178.671 850.117 180.652 852.581 178.932C855.045 177.211 855.521 171.735 853.705 169.533C851.888 167.331 848.858 163.902 847.911 160.492C846.986 157.108 848.872 152.119 848.872 152.119C848.872 152.119 847.246 159.257 850.573 162.13C853.871 165.027 862.634 176.078 861.079 179.145C861.079 179.145 860.471 180.671 861.678 180.3C862.833 179.926 866.92 178.338 876.558 179.75C876.558 179.75 883.076 177.807 887.65 179.072C892.224 180.337 896.18 175.29 896.18 175.29Z" fill="url(#paint2_linear_264_12)" fill-opacity="0.5"/>
<path d="M511.483 0.334584C511.483 0.334584 518.137 8.26299 516.109 18.4825C516.109 18.4825 513.921 22.8913 512.42 25.512C512.42 25.512 511.796 29.7507 511.756 31.4875C511.701 33.1881 512.018 32.1368 512.018 32.1368C512.018 32.1368 513.867 30.9282 516.205 32.1238C516.205 32.1238 518.537 30.5519 520.833 32.5616C520.833 32.5616 517.284 32.317 516.592 34.2753C516.592 34.2753 509.72 45.3607 504.196 46.3762C504.196 46.3762 500.601 49.0458 499.516 49.4839C499.516 49.4839 502.733 45.8764 501.833 43.0085C500.934 40.1406 495.856 38.0381 493.209 39.1076C490.563 40.177 486.38 42.035 482.843 41.9115C479.338 41.775 475.148 38.4743 475.148 38.4743C475.148 38.4743 481.465 42.1743 485.206 39.8654C488.962 37.5926 502.138 32.5623 504.594 34.9689C504.594 34.9689 505.867 36.0073 505.876 34.7447C505.868 33.531 505.584 29.1557 509.831 20.3895C509.831 20.3895 509.94 13.5894 512.523 9.60827C515.106 5.6271 511.483 0.334584 511.483 0.334584Z" fill="url(#paint3_linear_264_12)" fill-opacity="0.5"/>
<defs>
<linearGradient id="paint0_linear_264_12" x1="160.643" y1="239.596" x2="112.063" y2="244.792" gradientUnits="userSpaceOnUse">
<stop stop-color="#16181B"/>
<stop offset="0.9946" stop-color="#285A86"/>
</linearGradient>
<linearGradient id="paint1_linear_264_12" x1="1271.27" y1="132.673" x2="1225.45" y2="115.718" gradientUnits="userSpaceOnUse">
<stop stop-color="#16181B"/>
<stop offset="0.9946" stop-color="#285A86"/>
</linearGradient>
<linearGradient id="paint2_linear_264_12" x1="880.904" y1="189.043" x2="849.814" y2="151.354" gradientUnits="userSpaceOnUse">
<stop stop-color="#16181B"/>
<stop offset="0.9946" stop-color="#285A86"/>
</linearGradient>
<linearGradient id="paint3_linear_264_12" x1="520.001" y1="19.0423" x2="474.702" y2="37.3462" gradientUnits="userSpaceOnUse">
<stop stop-color="#16181B"/>
<stop offset="0.9946" stop-color="#285A86"/>
</linearGradient>
</defs>
</svg>
