<svg width="430" height="383" viewBox="0 0 430 383" fill="none" xmlns="http://www.w3.org/2000/svg">
<path d="M460.042 47.3262L422.11 146.844L401.516 70.9156L380.258 149.129L352.556 47.3262L301.271 236.042H352.556H356.608L350.231 259.631H401.516H452.801L447.42 239.727H460.042V47.3262Z" fill="#64DDDA"/>
<path d="M97.3941 82.7105L80.0555 160.924L57.4689 59.1211L34.4836 162.915L-4.97656 44.3777V192.549V236.042H18.208L15.6171 247.836H57.4689H60.7905L55.5424 271.426H97.3941H139.246L97.3941 82.7105Z" fill="#64DDDA"/>
<path d="M422.111 146.843L401.517 70.915V259.63H452.802L447.421 239.727L422.111 146.843Z" fill="#60C6C1"/>
<path d="M57.2691 60.0056L60.5242 259.631H9.23926L57.2691 60.0056Z" fill="#60C6C1"/>
<path d="M352.557 47.3262L335.085 111.534L352.557 236.042H356.609H391.951L352.557 47.3262Z" fill="#60C6C1"/>
<path d="M269.916 64.724L257.626 107.111L226.536 0.0742188L200.827 88.7557L185.814 36.859L125.826 243.488H185.814H218.033L209.928 271.426H269.916H329.837L269.916 64.724Z" fill="#64DDDA"/>
<path d="M183.223 44.3777V233.093H125.826L183.223 44.3777Z" fill="#60C6C1"/>
<path d="M238.959 42.7556L257.626 107.111L239.026 233.093H234.973H191.859L238.959 42.7556Z" fill="#60C6C1"/>
<path d="M185.814 36.8584L185.482 37.9642L177.577 65.092L183.157 57.278L185.814 72.7585L187.741 60.9638L190.066 64.6497L192.789 60.8901L185.814 36.8584Z" fill="#9BF9F4"/>
<path d="M57.6016 58.8262L57.2694 60.0056L51.0913 87.9444L54.9443 79.3195L57.6016 94.8L59.5281 83.0053L61.8532 86.6912L63.1818 84.8482L57.6016 58.8262Z" fill="#9BF9F4"/>
<path d="M97.4605 82.5627L97.1283 83.6685L90.9502 111.607L94.8032 102.982L97.4605 118.463L99.387 106.668L101.712 110.354L103.041 108.511L97.4605 82.5627Z" fill="#9BF9F4"/>
<path d="M269.717 64.5752L269.385 65.6809L261.546 92.8825L267.126 85.0685L269.717 100.549L271.71 88.7544L274.035 92.4402L276.692 88.6806L269.717 64.5752Z" fill="#9BF9F4"/>
<path d="M226.603 -0.000244141L226.271 1.10551L218.365 28.3071L223.813 20.4194L226.603 35.8999L228.729 24.1052L231.253 27.791L233.644 24.6212L226.603 -0.000244141Z" fill="#9BF9F4"/>
<path d="M352.623 47.3262L352.291 48.4319L344.851 75.7072L349.767 67.7458L352.623 83.2263L354.749 71.4316L357.207 75.1175L359.399 72.3162L352.623 47.3262Z" fill="#9BF9F4"/>
<path d="M401.317 70.9893L400.985 72.095L393.744 99.5177L398.527 91.4088L401.317 106.889L403.443 95.0947L405.967 98.7805L408.359 96.2742L401.317 70.9893Z" fill="#9BF9F4"/>
<path d="M472 138.629C470.24 138.332 468.86 139.782 468.86 139.782C468.86 139.782 469.706 140.707 471.039 142.375L472 138.629Z" fill="#2C1C0D"/>
<path d="M-4.97656 284.548H457.405V195.639C456.775 195.369 456.171 195.071 455.636 194.748C454.212 193.888 453.985 192.849 453.779 191.906C453.565 190.925 453.373 190.048 451.88 189.584C450.674 189.21 449.082 189.96 447.212 190.842C444.544 192.1 441.311 193.624 437.824 192.526C434.801 191.602 432.729 192.876 430.908 193.997C429.162 195.071 427.646 196.004 425.743 194.722C423.64 193.305 424.434 192.211 425.147 191.227C425.754 190.392 426.302 189.636 424.967 188.83C423.602 187.982 422.646 187.898 421.105 187.764C419.356 187.611 416.854 187.392 412.147 185.918C409.405 185.058 408.36 184.731 408.383 184.469C408.397 184.308 408.814 184.171 409.489 183.95C411.26 183.37 414.801 182.21 417.456 178.502C419.133 176.159 419.751 175.297 419.653 175.235C419.596 175.199 419.297 175.434 418.823 175.807C417.535 176.821 414.96 178.847 412.465 179.192C408.523 179.737 408.363 178.281 408.066 175.576L408.066 175.575C407.987 174.855 407.898 174.046 407.726 173.164C407.699 173.026 407.673 172.891 407.648 172.759C407.608 172.549 407.57 172.347 407.534 172.152C406.89 168.719 406.685 167.621 403.815 171.39C401.421 174.539 396.716 175.371 392.85 171.906C391.906 171.046 390.571 172.401 389.399 173.591C387.928 175.085 386.713 176.318 386.853 172.577C387.093 167.516 385.389 168.117 382.804 169.029C381.954 169.329 381.009 169.663 380.007 169.84C378.326 170.139 377.688 170.771 377.064 171.389C376.209 172.236 375.38 173.057 371.925 172.956C367.734 172.834 366.458 173.602 364.308 174.897C363.393 175.447 362.32 176.094 360.797 176.807C355.695 179.195 354.756 179.17 351.94 174.031C350.031 170.461 346.427 172.115 342.389 173.97C340.608 174.787 338.742 175.644 336.901 176.108C333.063 177.073 329.783 174.079 326.353 170.948C326.121 170.737 325.889 170.525 325.656 170.313C325.498 170.171 325.341 170.028 325.182 169.886C322.437 167.403 321.529 169.539 320.529 171.893C320.091 172.923 319.635 173.995 319.001 174.739C318.452 175.399 317.806 176.696 317.042 178.228C314.912 182.5 311.868 188.604 307.488 187.853C304.514 187.343 302.843 185.826 301.41 184.526C299.976 183.223 298.78 182.138 296.752 182.495C294.874 182.83 294.72 183.965 294.56 185.145C294.38 186.468 294.193 187.848 291.554 188.213C289.28 188.527 287.862 188.178 286.512 187.845C284.898 187.447 283.38 187.073 280.611 187.882C278.9 188.383 277.295 189.179 275.809 189.916C272.88 191.37 270.413 192.594 268.5 190.868C267.038 189.549 267.371 188.28 267.675 187.12C267.971 185.993 268.24 184.97 266.808 184.105C265.342 183.22 265.074 184.07 264.644 185.439C264.22 186.784 263.639 188.629 261.609 189.823C258.555 191.617 257.297 190.68 254.037 188.252C252.924 187.423 251.577 186.42 249.846 185.293C247.648 183.861 246.87 183.354 246.65 183.49C246.53 183.564 246.577 183.829 246.648 184.24C246.852 185.403 247.258 187.728 244.67 190.164C241.091 193.536 240.505 193.053 237.998 190.989C236.838 190.034 235.266 188.739 232.796 187.332C228.896 185.135 228.896 185.135 229.231 186.089C229.565 187.042 230.234 188.949 227.672 190.567C223.122 193.439 222.63 193.094 219.854 191.146C219.504 190.9 219.117 190.629 218.682 190.336C214.793 187.716 213.758 188.488 210.622 192.606C207.487 196.724 190.066 207.126 181.187 205.196L181.186 205.196L181.185 205.196L181.184 205.196C177.997 204.484 177.097 204.283 177.081 204.04C177.075 203.945 177.205 203.843 177.387 203.701C178.032 203.198 179.32 202.191 177.453 199.186C175.26 195.721 176.309 194.878 177.627 193.817C178.593 193.041 179.703 192.148 179.791 190.022V190.022C179.853 188.505 179.878 187.904 179.797 187.894C179.743 187.887 179.644 188.135 179.479 188.546C179.064 189.584 178.234 191.659 176.678 193.295C173.565 196.567 170.681 193.966 170.681 193.966C170.681 193.966 163.842 191.284 159.79 191.999C159.757 193.149 159.747 193.504 159.533 193.713C159.438 193.806 159.302 193.87 159.104 193.962C158.467 194.261 157.191 194.858 154.592 197.717C150.336 202.344 150.255 202.169 148.892 199.216C148.569 198.517 148.174 197.661 147.635 196.677L147.634 196.677C146.623 194.83 146.338 194.311 146.067 194.316C145.961 194.318 145.857 194.4 145.712 194.514C145.197 194.921 144.167 195.734 140.7 194.792L140.699 194.791L140.698 194.791C138.664 194.238 137.824 194.01 137.788 193.713C137.763 193.504 138.136 193.261 138.772 192.847C140.312 191.846 143.392 189.843 146.083 184.894C146.146 183.406 146.164 182.963 146.384 182.875C146.477 182.837 146.607 182.863 146.791 182.901C147.409 183.026 148.646 183.276 151.208 181.659C156.332 178.424 152.606 172.47 149.559 173.204C147.985 173.583 147.72 174.683 147.405 175.991C147.11 177.214 146.771 178.62 145.278 179.792C142.187 182.218 139.185 183.792 135.341 179.481C134.217 178.232 133.257 178.654 132.367 179.045C131.334 179.499 130.396 179.911 129.411 177.614C127.949 174.204 126.326 175.071 123.138 176.774L123.137 176.775L123.135 176.776C122.328 177.207 121.421 177.691 120.391 178.174C118.149 179.234 117.436 181.334 116.811 183.174C116.033 185.466 115.392 187.353 112.102 186.317C110.051 185.69 109.421 185.497 109.279 185.159C109.216 185.009 109.25 184.831 109.298 184.574C109.455 183.736 109.77 182.061 107.438 177.806C105.138 173.547 105.138 173.547 104.938 175.324C104.737 177.101 104.336 180.655 101.234 183.504C99.1398 185.388 98.4428 186.016 98.2245 185.914C98.1156 185.863 98.1259 185.631 98.1413 185.283C98.1876 184.238 98.2801 182.148 95.3266 180.791C90.3618 178.511 90.2643 178.759 89.0424 181.858C88.8105 182.446 88.5381 183.137 88.1842 183.933C86.7222 187.221 82.3666 187.504 78.4004 187.762C76.3486 187.895 74.4011 188.022 73.0122 188.554C71.749 189.038 70.8704 189.611 70.0212 190.164C68.1317 191.396 66.3881 192.532 60.8789 192.386C56.1641 192.256 54.4657 195.774 53.0082 198.793C52.0176 200.845 51.1382 202.666 49.4989 202.956C45.4473 203.671 40.6861 198.488 40.6861 198.488C40.6861 198.488 43.9173 193.573 41.101 188.434C40.0358 186.507 39.7785 186.041 39.6026 186.062C39.5466 186.068 39.4988 186.124 39.4359 186.198C39.1752 186.504 38.6539 187.115 36.2067 185.796C31.3125 183.158 36.3918 181.615 36.3918 181.615L28.3324 183.885C28.3324 183.885 25.0342 191.339 22.1732 187.892C21.1532 187.276 20.8493 187.092 20.636 186.852C20.5455 186.75 20.4713 186.638 20.3656 186.478C20.0107 185.941 19.301 184.868 16.4289 181.844C13.4446 178.702 12.5535 177.203 12.3861 176.487L12.6955 175.834C12.6955 175.834 12.2313 175.826 12.3861 176.487L7.20127 187.431C7.01068 187.842 6.87899 188.208 6.75955 188.54C6.16088 190.206 5.87016 191.015 0.014246 192.264C-2.16386 192.711 -2.99258 192.881 -3.06286 192.754C-3.10602 192.676 -2.86311 192.486 -2.47101 192.179C-1.44045 191.373 0.620697 189.76 1.22717 187.256C2.01916 183.802 1.28041 183.496 -1.16641 182.481C-2.15414 182.072 -3.42057 181.546 -4.97656 180.652V284.548Z" fill="#2C1C0D"/>
<g clip-path="url(#clip0_314_483)">
<path d="M458.673 295.087L448.992 305.154C439.312 314.98 419.95 335.477 400.589 343.314C381.228 351.151 361.866 347.534 342.505 345.303C323.144 343.314 303.782 343.314 284.421 335.296C265.06 327.037 245.698 311.363 226.337 319.2C206.976 327.037 187.615 359.59 168.253 365.438C148.892 371.647 129.531 351.151 110.169 343.314C90.808 335.477 71.4467 339.094 52.0854 351.332C32.7241 363.208 13.3628 383.704 -5.99847 389.552C-25.3598 395.761 -44.7211 387.321 -64.0824 375.445C-83.4437 363.207 -102.805 347.534 -122.166 339.275C-141.528 331.257 -160.889 331.257 -180.25 335.296C-199.612 339.094 -218.973 347.534 -238.334 343.314C-257.695 339.094 -277.057 323.42 -296.418 325.229C-315.779 327.037 -335.141 347.534 -354.502 361.399C-373.863 375.264 -393.225 383.704 -412.586 385.513C-431.947 387.321 -451.309 383.704 -470.67 385.513C-490.031 387.321 -509.392 395.761 -528.754 397.569C-548.115 399.378 -567.476 395.761 -586.838 395.58C-606.199 395.761 -625.56 399.378 -644.922 387.502C-664.283 375.264 -683.644 347.534 -703.005 345.303C-722.367 343.314 -741.728 367.427 -761.089 365.438C-780.451 363.207 -799.812 335.477 -819.173 335.296C-838.535 335.477 -857.896 363.208 -877.257 363.388C-896.619 363.208 -915.98 335.477 -925.661 321.19L-935.341 307.144V283.03H-925.661C-915.98 283.03 -896.619 283.03 -877.257 283.03C-857.896 283.03 -838.535 283.03 -819.173 283.03C-799.812 283.03 -780.451 283.03 -761.089 283.03C-741.728 283.03 -722.367 283.03 -703.005 283.03C-683.644 283.03 -664.283 283.03 -644.922 283.03C-625.56 283.03 -606.199 283.03 -586.838 283.03C-567.476 283.03 -548.115 283.03 -528.754 283.03C-509.392 283.03 -490.031 283.03 -470.67 283.03C-451.309 283.03 -431.947 283.03 -412.586 283.03C-393.225 283.03 -373.863 283.03 -354.502 283.03C-335.141 283.03 -315.779 283.03 -296.418 283.03C-277.057 283.03 -257.695 283.03 -238.334 283.03C-218.973 283.03 -199.612 283.03 -180.25 283.03C-160.889 283.03 -141.528 283.03 -122.166 283.03C-102.805 283.03 -83.4437 283.03 -64.0824 283.03C-44.7211 283.03 -25.3598 283.03 -5.99847 283.03C13.3628 283.03 32.7241 283.03 52.0854 283.03C71.4467 283.03 90.808 283.03 110.169 283.03C129.531 283.03 148.892 283.03 168.253 283.03C187.615 283.03 206.976 283.03 226.337 283.03C245.698 283.03 265.06 283.03 284.421 283.03C303.782 283.03 323.144 283.03 342.505 283.03C361.866 283.03 381.228 283.03 400.589 283.03C419.95 283.03 439.312 283.03 448.992 283.03H458.673V295.087Z" fill="url(#paint0_linear_314_483)"/>
</g>
<path fill-rule="evenodd" clip-rule="evenodd" d="M96.0098 129.366C96.859 129.337 97.4428 129.568 98.2919 130.234C98.9023 130.697 99.5391 131.362 99.6718 131.68C99.831 131.999 99.9372 132.49 99.9372 132.78C99.9372 133.04 99.433 134.371 98.7961 135.731C98.1858 137.091 97.204 138.972 96.6202 139.926C96.0364 140.881 94.7626 142.559 92.0028 145.713L91.9763 149.185C91.9498 151.095 91.8436 153.756 91.764 155.058C91.6048 156.968 91.4721 157.576 91.0475 157.981C90.7291 158.27 89.588 158.588 88.1285 158.82C86.8283 159.022 85.0238 159.312 82.5559 159.775L81.8129 163.738C81.4148 165.908 80.9903 168.773 80.8841 170.104C80.778 171.406 80.6187 172.476 80.5126 172.476C80.3799 172.476 80.3003 172.679 80.3003 172.91C80.3003 173.142 80.088 173.315 79.8492 173.286H78.9204C78.6551 173.315 78.4428 173.576 78.4428 173.865C78.4693 174.27 78.3897 174.299 78.1243 173.981C77.859 173.72 77.5936 173.72 77.0629 173.923C76.426 174.154 76.2668 174.126 76.0545 173.634C75.8953 173.315 75.4707 172.968 75.0727 172.881C74.5154 172.766 74.1704 172.881 73.7193 173.402C73.4009 173.749 73.1355 174.241 73.1355 174.444C73.1355 174.617 72.7375 174.878 72.2863 174.965C71.8087 175.08 71.3045 175.312 71.1984 175.485C71.0391 175.717 70.933 175.717 70.8534 175.456C70.8003 175.225 70.2696 175.08 69.5531 175.08C68.5978 175.08 68.359 175.167 68.359 175.601C68.3465 175.819 68.3399 175.934 68.3032 175.947C68.2619 175.962 68.1826 175.846 68.014 175.601C67.8282 175.312 67.5894 175.109 67.4302 175.08C67.271 175.08 67.0056 173.373 66.8199 171.261C66.6076 169.149 66.2891 167.066 66.0768 166.632C65.8646 166.169 65.6523 165.851 65.5992 165.908C65.5461 165.937 65.1215 166.95 64.6439 168.136C63.8478 170.191 63.7682 170.567 63.609 175.08C63.5028 178.205 63.5294 179.941 63.7151 180.057C63.8478 180.173 64.2458 180.288 64.5908 180.288C65.0685 180.288 65.2011 180.086 65.3073 179.131C65.3869 178.494 65.5992 177.887 65.7849 177.8C65.9442 177.684 66.3687 177.684 66.7137 177.8C67.2444 177.945 67.271 178.118 67.1648 179.276C67.0852 179.999 67.1118 180.52 67.2444 180.462C67.3506 180.404 67.5894 179.768 67.7752 179.015C68.014 178.003 68.2263 177.684 68.6243 177.684C68.9162 177.684 69.2081 177.511 69.2877 177.337C69.3939 177.048 69.447 177.048 69.5531 177.337C69.6327 177.511 70.1104 177.684 70.6146 177.684C71.2249 177.684 71.6495 177.511 71.8352 177.192C72.021 176.816 72.1271 176.787 72.2333 177.048C72.2863 177.221 72.5782 177.395 72.8701 177.395C73.162 177.395 73.4539 177.511 73.5336 177.684C73.6132 177.858 73.9316 178.089 74.2766 178.234C74.6215 178.379 75.0992 178.35 75.4707 178.147C75.7891 177.974 76.0545 177.742 76.0545 177.626C76.0545 177.482 76.3729 177.019 76.7975 176.556C77.2752 175.997 77.6025 175.813 77.7794 176.006C77.9563 176.199 78.3101 176.161 78.8408 175.89C79.2654 175.688 79.69 175.196 79.7961 174.791C79.9819 174.097 79.9819 174.097 80.0084 174.733C80.035 175.08 80.1146 175.37 80.2472 175.37C80.3534 175.37 80.5922 177.164 80.778 179.334C80.9903 181.532 81.2291 183.413 81.3087 183.529C81.4148 183.645 83.5908 184.194 86.1383 184.773C88.6858 185.352 90.9679 185.872 91.1802 185.959C91.3925 186.017 91.8967 186.567 92.2947 187.174C92.3481 187.252 92.4048 187.334 92.465 187.422C92.8536 187.985 93.3869 188.759 94.0992 189.836L89.9861 191.92L86.669 190.849C84.838 190.27 83.0336 189.663 82.6355 189.518C82.2109 189.373 81.8925 189.344 81.8925 189.489C81.8925 189.605 82.1844 192.556 82.5559 196.057C82.7826 198.193 83.029 200.62 83.2288 202.588C83.3566 203.846 83.4653 204.917 83.5377 205.605C83.7766 208.267 83.75 208.932 83.4316 209.656C83.1928 210.148 82.609 210.755 81.9986 211.073C81.3352 211.421 80.6718 211.536 80.1676 211.421C79.743 211.334 79.0531 210.9 78.6285 210.466C77.9917 209.771 77.859 209.251 77.5405 206.762C77.3282 205.171 76.771 200.137 76.2668 195.536C75.6565 189.605 75.2849 187.232 75.0727 187.232C74.8338 187.232 74.7808 187.551 74.8604 188.332C74.94 188.91 75.0196 189.865 75.0196 190.415C75.0461 190.994 74.2766 193.771 73.2947 196.78C72.3129 199.732 71.4637 202.191 71.3841 202.278C71.3045 202.364 71.3045 201.902 71.4106 201.265C71.4903 200.628 71.7291 198.343 71.9414 196.202C72.1219 194.583 72.3328 192.435 72.4938 190.796L72.4959 190.774C72.547 190.254 72.593 189.785 72.6313 189.402C72.764 187.811 72.8436 186.451 72.764 186.364C72.6579 186.278 72.5252 186.335 72.419 186.48C72.2863 186.596 71.7025 191.63 71.0922 197.619C70.4553 203.609 69.8981 208.759 69.845 209.077C69.7654 209.395 69.3939 210.032 68.9693 210.466C68.5713 210.9 67.8813 211.334 67.4302 211.45C66.926 211.536 66.2626 211.392 65.5992 211.073C64.9358 210.726 64.4051 210.176 64.1397 209.569C63.7416 208.643 63.7682 208.064 64.5908 200.31C64.8932 197.416 65.2381 194.29 65.4976 191.938L65.4977 191.938L65.4979 191.936C65.6482 190.574 65.7699 189.471 65.838 188.824C66.0503 187.059 66.2891 185.352 66.3687 185.004C66.4483 184.628 66.3953 184.339 66.2361 184.339C66.0768 184.339 65.8911 184.802 65.7849 185.381C65.6523 185.959 65.5196 186.48 65.44 186.509C65.3604 186.567 64.9623 186.509 64.5377 186.422C63.8743 186.249 63.7947 186.133 63.9274 185.352C63.9515 185.24 63.9769 185.121 64.0028 185C64.091 184.587 64.1843 184.151 64.2458 183.905C64.3785 183.471 64.2724 183.297 63.7947 183.153C63.3967 183.037 62.9456 183.182 62.521 183.529C62.1495 183.818 61.5657 184.079 61.1942 184.05C60.8226 184.05 60.2654 183.818 59.9735 183.529C59.6551 183.268 59.2835 182.777 59.1243 182.458C58.9916 182.14 58.6201 181.793 58.3017 181.677C57.9833 181.532 57.7444 181.561 57.7444 181.735C57.7444 181.909 57.5056 182.024 57.2137 182.024C56.9218 182.024 56.6299 181.909 56.5503 181.735C56.4707 181.561 56.6299 180.607 56.8953 179.565C57.1872 178.292 57.4525 177.713 57.6914 177.829C57.8506 177.916 58.1425 177.974 58.2752 177.974C58.4344 177.974 58.5405 178.176 58.5405 178.408C58.5405 178.639 58.6732 178.842 58.8059 178.842C58.9651 178.842 59.1243 178.408 59.2039 177.916C59.257 177.395 59.3632 175.283 59.4162 173.2C59.5224 169.496 59.5489 169.38 61.9902 163.073L64.4316 163.015C64.7883 163.008 65.1947 162.986 65.6213 162.953C70.5997 167.758 72.1804 169.525 72.1755 170.308C72.1626 170.399 72.155 170.449 72.155 170.449C72.1682 170.406 72.1752 170.359 72.1755 170.308C72.2775 169.591 72.7088 166.322 72.3062 165.004C71.9518 163.844 71.8743 162.28 71.8574 161.652C72.3324 161.485 72.776 161.316 73.1355 161.163C74.2235 160.7 75.8953 159.832 76.8241 159.254C77.7528 158.646 79.1858 157.489 80.0084 156.679L80.062 156.627C81.4949 155.231 81.5299 155.197 84.4134 154.711C86.0322 154.451 87.3855 154.162 87.4651 154.075C87.5447 153.988 87.6243 152.802 87.7305 149.04L86.0852 149.879C85.1565 150.342 83.4581 151.008 82.2905 151.326C80.6453 151.789 80.1146 151.847 79.9819 151.558C79.8757 151.384 79.7696 151.124 79.7696 151.008C79.7696 150.863 80.2207 150.632 80.778 150.458C81.3087 150.256 82.4763 149.735 83.352 149.272C84.2277 148.78 85.5545 147.912 86.271 147.333C87.3059 146.494 87.6509 146.002 87.8101 145.192C87.9162 144.527 88.2612 143.89 88.7389 143.543C89.1369 143.196 89.6676 142.935 89.933 142.964C90.1984 142.964 90.7291 142.328 91.2864 141.315C91.7905 140.389 92.5601 138.653 93.0112 137.467C93.4358 136.281 93.9931 134.14 94.2319 132.693C94.2777 132.443 94.3228 132.197 94.3662 131.959L94.3664 131.958C94.5743 130.82 94.7453 129.885 94.7891 129.742C94.8422 129.51 95.3464 129.366 96.0098 129.366ZM95.8241 129.655C96.0364 129.655 96.5405 129.8 96.9651 129.973C97.3632 130.118 98.0796 130.697 98.5573 131.188C99.035 131.709 99.4065 132.404 99.4065 132.751C99.4065 133.301 99.2472 133.416 98.5308 133.416C98 133.416 97.257 133.098 96.5405 132.548C95.9302 132.085 95.3464 131.391 95.2668 131.015C95.1607 130.668 95.1872 130.205 95.2668 130.002C95.3729 129.829 95.6383 129.655 95.8241 129.655ZM73.7989 180.867C74.5154 180.867 74.7542 181.012 74.8604 181.446C74.94 181.764 74.8869 182.082 74.7277 182.169C74.5685 182.256 74.4092 182.198 74.3296 182.024C74.25 181.851 73.9051 181.735 73.5336 181.735C73.109 181.735 72.8701 181.561 72.8701 181.301C72.8701 181.012 73.162 180.867 73.7989 180.867ZM77.5671 183.5C71.9148 182.198 67.1914 181.156 67.0587 181.156C66.926 181.156 66.7402 181.388 66.6606 181.677C66.5545 181.938 66.528 182.169 66.5545 182.198C66.5959 182.221 70.2205 183.193 75.238 184.54C76.654 184.92 78.1809 185.33 79.7696 185.757C86.9875 187.695 92.9316 189.229 92.9581 189.2C92.9847 189.142 92.5601 188.534 92.0028 187.811C91.1271 186.683 90.8087 186.451 89.4288 186.162C88.9195 186.058 86.7967 185.579 83.9537 184.938L83.9504 184.937C82.0543 184.509 79.8383 184.009 77.5671 183.5ZM66.6872 182.632C66.8199 182.632 72.764 184.223 92.9051 189.75L91.4456 190.502C90.0922 191.167 89.9065 191.196 88.7919 190.849C88.1285 190.646 84.44 189.489 80.5657 188.245C78.6474 187.643 76.5079 186.964 74.5981 186.357L74.5958 186.356C72.6496 185.738 70.9422 185.195 69.9511 184.889C67.9875 184.252 66.3157 183.674 66.2361 183.616C66.1565 183.529 66.183 183.269 66.2891 183.037C66.3953 182.806 66.581 182.603 66.6872 182.632Z" fill="#2C1C0D"/>
<path d="M66.3687 136.31C66.9525 136.31 67.9609 136.512 68.6243 136.744C69.2877 137.004 70.2961 137.554 70.8534 137.988C71.4372 138.422 72.2333 139.348 73.4274 141.373L70.4819 142.386L69.2347 140.968C68.3059 139.955 67.6159 139.463 66.7668 139.203C65.9442 139 65.3073 138.972 64.7766 139.174C64.352 139.319 63.4497 139.55 61.5922 139.868L62.0964 139.029C62.3618 138.566 62.8394 137.959 63.1578 137.67C63.4497 137.38 64.0866 136.946 64.5112 136.744C64.9623 136.512 65.7849 136.339 66.3687 136.31Z" fill="#2C1C0D"/>
<path d="M66.8995 140.823C66.3157 140.534 65.1746 140.274 64.3785 140.216C63.5824 140.158 62.4944 140.216 61.9902 140.36C61.4861 140.505 60.7696 140.881 60.3981 141.17C60.0266 141.46 59.4693 142.154 59.1243 142.704C58.7794 143.254 58.3813 144.208 58.2221 144.845C58.0894 145.482 58.0098 146.668 58.0894 147.449C58.1425 148.259 58.4609 149.561 58.7794 150.342C59.0978 151.152 59.7347 152.223 60.2123 152.744C60.69 153.265 61.1145 153.67 61.1942 153.67C61.2738 153.67 60.9288 152.773 60.4511 151.702C59.8673 150.429 59.5224 149.185 59.4428 148.028C59.3366 146.697 59.4162 146.06 59.7877 145.308C60.0531 144.758 60.6104 144.035 61.0084 143.717C61.5657 143.283 62.1229 143.109 63.1313 143.138C63.9009 143.138 64.7766 143.312 65.1215 143.485C65.44 143.688 66.183 144.295 66.7668 144.845L67.8282 145.858C67.4833 149.85 67.5363 150.198 68.1732 151.644C68.5447 152.512 69.2081 153.583 69.6062 154.017L70.3492 154.827L72.8436 151.21C72.2333 148.52 72.1271 147.68 72.2333 147.594C72.3394 147.507 73.1886 147.218 74.1704 146.928C75.1257 146.668 76.6118 146.436 77.4609 146.436C78.2836 146.436 78.9735 146.35 78.9735 146.234C78.9735 146.089 78.6285 145.453 78.1774 144.787C77.7528 144.093 76.8771 143.254 76.2668 142.906C75.4707 142.472 74.6215 142.27 73.5336 142.27C72.4986 142.241 71.6495 142.415 71.0922 142.762L70.2165 143.254C68.4651 141.72 67.4833 141.084 66.8995 140.823Z" fill="#2C1C0D"/>
<path d="M61.6453 144.122C61.8841 144.122 61.9902 144.527 61.9902 145.366C61.9902 146.031 62.0433 147.102 62.2556 148.896L61.5922 147.449C61.2472 146.668 60.9023 145.655 60.8757 145.25C60.8492 144.845 60.9288 144.411 61.0615 144.324C61.1942 144.208 61.433 144.122 61.6453 144.122Z" fill="#2C1C0D"/>
<path d="M79.1592 148.462L78.8408 147.16C76.3729 147.073 75.2053 147.189 74.6746 147.333C74.1173 147.478 73.4274 147.738 73.1355 147.883C72.6313 148.172 72.6313 148.23 73.0028 149.764L73.4009 151.355C71.5433 154.046 71.0126 154.885 71.0126 154.972C71.0126 155.058 71.4372 155.319 71.9414 155.55C72.4456 155.782 73.3213 155.984 73.8785 155.984C74.4092 155.984 75.4972 155.666 76.2668 155.261C77.169 154.798 77.8855 154.162 78.3101 153.467C78.6551 152.86 79.0531 151.789 79.2123 151.066C79.3715 150.169 79.3715 149.359 79.1592 148.462Z" fill="#2C1C0D"/>
<path d="M67.8017 152.802C67.8813 152.802 68.4386 153.409 69.0224 154.162C69.6327 154.943 70.588 155.753 71.278 156.071C71.9414 156.389 73.0559 156.65 73.7989 156.65C74.5419 156.65 75.6034 156.418 76.1872 156.158C76.771 155.898 77.5671 155.319 77.9651 154.885C78.6551 154.133 78.7347 154.133 79.5308 154.538C79.9819 154.769 80.4065 155.058 80.4595 155.203C80.5126 155.319 79.69 156.1 78.6551 156.968C77.5936 157.836 75.7095 159.08 74.4623 159.717C73.2151 160.382 71.2514 161.163 70.0838 161.482C68.9162 161.829 66.6872 162.176 62.3087 162.494L62.1229 161.192C62.0168 160.295 62.0964 159.485 62.3883 158.588C62.6271 157.865 63.1578 156.823 63.5559 156.274C63.9539 155.724 65.0419 154.711 65.9707 154.046C66.8729 153.351 67.7221 152.802 67.8017 152.802Z" fill="#2C1C0D"/>
<path d="M63.6355 155.203C64.2458 154.509 64.5643 153.959 64.352 153.959C64.1397 153.988 63.0782 154.364 61.9902 154.798C60.9023 155.261 58.859 156.216 57.4791 156.91C56.0992 157.634 53.4456 159.138 51.588 160.266C49.7039 161.424 46.7849 163.276 45.0866 164.433C43.3617 165.561 40.2305 167.731 38.1076 169.236C35.8785 170.798 34.3659 172.042 34.5251 172.187C34.5994 172.241 34.9335 172.515 35.4249 172.919C35.9872 173.381 36.7556 174.011 37.5768 174.675C39.1159 175.919 41.6369 178.321 43.176 179.999C44.7151 181.677 46.493 183.876 47.1299 184.918C47.7668 185.959 48.6159 187.58 49.0405 188.534C49.4386 189.489 49.9428 191.254 50.155 192.44C50.3408 193.627 50.7388 195.073 50.9777 195.623C51.243 196.173 52.0657 197.301 52.8087 198.082C53.5517 198.892 55.1173 200.079 56.2849 200.744C57.4525 201.381 59.5224 202.364 60.8492 202.914C62.2025 203.435 63.3701 203.811 63.4232 203.724C63.5028 203.638 63.7947 201.294 64.0866 198.516C64.4051 195.739 64.7766 192.411 64.9092 191.138C65.0685 189.865 65.1746 188.476 65.1746 188.042C65.1746 187.348 65.0419 187.203 64.1132 186.943C63.264 186.712 63.0782 186.538 63.2109 186.162C63.2905 185.872 63.4497 185.207 63.5294 184.686C63.6355 184.136 63.609 183.76 63.4497 183.76C63.3171 183.76 62.9456 183.963 62.6537 184.194C62.3618 184.455 61.6718 184.628 61.1411 184.628C60.3981 184.628 59.9204 184.397 59.3897 183.847C58.9651 183.384 58.5405 182.834 58.4609 182.603C58.3282 182.285 58.2486 182.256 58.1425 182.545C58.0363 182.806 57.7444 182.834 56.9483 182.603C56.2053 182.4 55.8869 182.169 55.9134 181.822C55.9134 181.532 56.1257 180.404 56.3911 179.276L56.4026 179.227C56.8688 177.279 56.8754 177.251 57.6914 177.337C58.514 177.395 58.5405 177.337 58.5671 176.324C58.5671 175.717 58.6732 173.807 58.7794 172.042C58.9651 169.12 59.0713 168.599 60.2388 165.677C61.2472 163.16 61.5126 162.147 61.5391 160.845C61.5657 159.919 61.778 158.559 62.0699 157.807C62.3352 157.026 63.0517 155.869 63.6355 155.203Z" fill="#2C1C0D"/>
<path d="M65.7849 167.702C65.9176 167.789 66.1034 169.091 66.1565 170.654C66.2095 172.216 66.3422 174.328 66.4484 175.341C66.6341 177.164 66.6341 177.164 65.9707 177.077C65.4134 176.961 65.2808 177.106 64.9889 178.35C64.8031 179.102 64.5377 179.71 64.3785 179.71C64.2193 179.71 64.1662 178.147 64.2724 175.312C64.3785 171.84 64.5377 170.538 64.9623 169.236C65.2808 168.339 65.6523 167.644 65.7849 167.702Z" fill="#2C1C0D"/>
<path d="M75.6565 174.01C75.4442 173.634 75.0727 173.344 74.8604 173.344C74.6746 173.344 74.3031 173.634 74.0643 173.981C73.7989 174.328 73.6132 175.051 73.6397 175.572C73.6662 176.093 73.7989 176.787 73.9316 177.106C74.0908 177.424 74.4623 177.684 74.8073 177.684C75.1257 177.655 75.5238 177.453 75.7095 177.164C75.8953 176.903 76.0545 176.209 76.0545 175.659C76.0545 175.109 75.8687 174.357 75.6565 174.01Z" fill="#2C1C0D"/>
<defs>
<linearGradient id="paint0_linear_314_483" x1="458.673" y1="283.03" x2="458.673" y2="398.074" gradientUnits="userSpaceOnUse">
<stop stop-color="#2C1C0D"/>
<stop offset="1"/>
</linearGradient>
<clipPath id="clip0_314_483">
<rect width="464.697" height="99.662" fill="white" transform="translate(458.697 382.808) rotate(-180)"/>
</clipPath>
</defs>
</svg>
