<svg width="428" height="428" viewBox="0 0 428 428" fill="none" xmlns="http://www.w3.org/2000/svg">
<path d="M415.274 240.252C414.909 243.105 414.148 245.144 413.005 246.772C411.896 248.408 410.554 249.661 409.13 250.978C408.352 251.685 407.574 252.407 406.795 253.2C406 253.987 405.172 254.836 404.427 255.815C404.162 254.614 403.814 253.528 403.384 252.508C402.937 251.483 402.44 250.532 401.96 249.621C401.082 247.922 400.237 246.367 399.741 244.589C399.294 242.817 399.029 240.802 399.343 238.177C399.658 235.549 400.486 233.674 401.397 232.08C402.324 230.487 403.516 229.197 404.808 227.783C406.149 226.266 407.722 224.618 408.799 222.429C409.792 224.707 410.902 226.547 412.078 228.311C413.121 229.95 414.115 231.505 414.76 233.371C415.439 235.236 415.605 237.399 415.274 240.252ZM401.595 291.539C400.536 294.214 399.095 295.914 397.654 297.227C396.18 298.527 394.607 299.412 392.868 300.304C390.981 301.245 388.96 302.218 387.023 303.729C387.122 301.261 386.708 299.114 386.311 297.13C385.913 295.262 385.466 293.521 385.433 291.668C385.367 289.797 385.797 287.851 386.758 285.39C388.679 280.469 391.577 278.866 394.707 276.768C396.412 275.657 398.25 274.436 399.956 272.633C400.221 275.061 400.933 277.164 401.595 279.166C402.87 282.912 403.698 286.177 401.595 291.539ZM382.22 283.509C379.538 289.701 380.714 294.132 381.475 298.105C382.237 301.776 382.916 305.108 380.134 309.793C379.455 310.97 378.759 311.931 378.047 312.727C377.319 313.522 376.507 314.112 375.729 314.618C374.123 315.62 372.45 316.195 370.678 316.789C369.718 317.107 368.741 317.442 367.714 317.824C366.688 318.194 365.644 318.631 364.601 319.202C363.558 319.772 362.514 320.476 361.488 321.38C360.974 321.833 360.461 322.335 359.964 322.898C359.434 323.438 358.904 324.038 358.375 324.703C354.268 330.074 354.086 334.505 353.903 338.633C353.837 340.549 353.688 342.286 353.092 344.057C352.512 345.83 351.486 347.64 349.615 349.607C347.644 351.484 345.839 352.507 344.067 353.09C342.295 353.679 340.556 353.832 338.635 353.896C334.512 354.078 330.074 354.269 324.709 358.372C324.046 358.897 323.45 359.426 322.904 359.959C322.341 360.461 321.844 360.969 321.38 361.481C320.486 362.504 319.774 363.544 319.211 364.589C318.631 365.632 318.201 366.681 317.836 367.715C317.455 368.734 317.108 369.709 316.793 370.676C316.197 372.452 315.617 374.123 314.624 375.718C314.11 376.507 313.531 377.317 312.736 378.037C311.941 378.755 310.981 379.455 309.805 380.132C305.118 382.906 301.773 382.223 298.114 381.474C294.139 380.708 289.701 379.531 283.525 382.218C280.362 383.447 278.242 385.097 276.603 386.815C274.947 388.473 273.787 390.296 272.678 392.017C270.658 395.252 268.704 397.869 263.471 399.356C262.179 399.749 261.003 399.904 259.91 399.906C258.834 399.922 257.857 399.812 256.93 399.613C255.108 399.212 253.518 398.454 251.846 397.633C250.024 396.693 248.103 395.633 245.835 394.991C244.692 394.666 243.467 394.439 242.109 394.368C240.734 394.282 239.227 394.249 237.555 394.476C235.866 394.688 234.409 395.057 233.117 395.536C231.825 396.016 230.699 396.49 229.672 397.104C227.635 398.301 226.046 399.785 224.539 401.179C221.724 403.718 219.173 405.728 213.725 405.894C208.294 405.728 205.744 403.718 202.928 401.179C201.421 399.785 199.832 398.301 197.795 397.106C196.768 396.49 195.642 396.016 194.35 395.536C193.059 395.057 191.602 394.69 189.912 394.476C188.24 394.25 186.733 394.282 185.375 394.37C184.001 394.439 182.775 394.666 181.633 394.991C179.364 395.635 177.443 396.693 175.621 397.635C173.949 398.455 172.359 399.214 170.538 399.613C169.61 399.813 168.633 399.924 167.557 399.907C166.48 399.906 165.288 399.75 163.997 399.357C158.764 397.871 156.81 395.252 154.789 392.019C153.68 390.298 152.521 388.475 150.865 386.817C149.225 385.098 147.106 383.449 143.943 382.22C137.766 379.532 133.328 380.71 129.354 381.474C125.677 382.225 122.349 382.906 117.662 380.132C116.487 379.455 115.526 378.755 114.731 378.037C113.937 377.318 113.357 376.507 112.843 375.718C111.833 374.124 111.27 372.453 110.674 370.676C110.36 369.711 110.012 368.736 109.631 367.717C109.267 366.682 108.836 365.634 108.257 364.59C107.694 363.546 106.981 362.506 106.087 361.482C105.623 360.971 105.127 360.462 104.564 359.96C104.017 359.429 103.421 358.899 102.759 358.376C97.3934 354.27 92.9553 354.082 88.8319 353.9C86.911 353.835 85.1722 353.682 83.4003 353.093C81.6284 352.51 79.8234 351.487 77.8528 349.612C75.9816 347.643 74.9549 345.833 74.3753 344.06C73.7791 342.29 73.6302 340.553 73.564 338.637C73.3818 334.508 73.1996 330.077 69.0928 324.707C68.5629 324.041 68.0329 323.441 67.503 322.902C67.0062 322.339 66.4928 321.835 65.9795 321.383C64.9528 320.477 63.9095 319.773 62.8663 319.204C61.823 318.632 60.7799 318.195 59.7366 317.826C58.7264 317.443 57.7493 317.109 56.7888 316.791C55.0004 316.197 53.3444 315.622 51.7381 314.618C50.9598 314.112 50.1484 313.524 49.4198 312.727C48.7077 311.932 48.0123 310.972 47.3333 309.793C44.5513 305.108 45.2303 301.776 45.992 298.107C46.7538 294.134 47.9295 289.704 45.2468 283.514C44.0214 280.36 42.3653 278.247 40.6431 276.601C38.9871 274.938 37.1657 273.785 35.4435 272.676C32.2143 270.647 29.5979 268.708 28.1075 263.472C27.7101 262.172 27.5609 260.991 27.5609 259.907C27.5444 258.827 27.6438 257.848 27.8425 256.933C28.2399 255.101 29.0017 253.516 29.8296 251.845C30.7736 250.024 31.8334 248.105 32.4627 245.828C32.7939 244.688 33.0257 243.458 33.0919 242.097C33.1747 240.734 33.2079 239.225 32.9926 237.546C32.7774 235.864 32.3965 234.408 31.9163 233.116C31.436 231.825 30.9723 230.687 30.3596 229.669C29.1507 227.632 27.677 226.045 26.286 224.527C23.7358 221.725 21.732 219.17 21.5664 213.728C21.732 208.287 23.7358 205.733 26.286 202.931C27.677 201.413 29.1507 199.826 30.3596 197.79C30.9723 196.771 31.436 195.633 31.9163 194.343C32.3965 193.052 32.7774 191.596 32.9926 189.914C33.2079 188.235 33.1747 186.726 33.0919 185.363C33.0257 184.002 32.7939 182.772 32.4627 181.632C31.8334 179.355 30.7736 177.438 29.8296 175.616C29.0017 173.944 28.2399 172.36 27.8425 170.527C27.6438 169.612 27.5444 168.635 27.5444 167.553C27.561 166.47 27.7101 165.289 28.1075 163.988C29.5979 158.753 32.2143 156.813 35.4435 154.786C37.1657 153.674 38.9871 152.524 40.6431 150.859C42.3653 149.213 44.0049 147.1 45.2468 143.946C47.9295 137.754 46.7538 133.324 45.992 129.352C45.2303 125.68 44.5513 122.348 47.3333 117.662C48.0123 116.485 48.7077 115.524 49.4198 114.729C50.1484 113.933 50.9598 113.345 51.7381 112.838C53.3444 111.836 55.0004 111.26 56.7888 110.667C57.7493 110.349 58.7264 110.013 59.7366 109.632C60.7799 109.261 61.823 108.824 62.8663 108.254C63.9095 107.685 64.9528 106.981 65.9795 106.075C66.4928 105.623 66.9897 105.12 67.503 104.557C68.0329 104.017 68.5628 103.419 69.0762 102.753C73.183 97.383 73.3818 92.9517 73.564 88.8217C73.6302 86.9074 73.7792 85.1686 74.3588 83.3983C74.9549 81.6248 75.9816 79.8165 77.8528 77.8475C79.8234 75.973 81.6284 74.9496 83.4003 74.365C85.1722 73.7772 86.911 73.6248 88.8154 73.5585C92.9553 73.3764 97.3768 73.1876 102.759 69.0824C103.421 68.5575 104.017 68.0293 104.564 67.496C105.127 66.9943 105.624 66.4875 106.071 65.9758C106.981 64.9524 107.694 63.9125 108.257 62.8676C108.82 61.8227 109.267 60.7761 109.631 59.7395C110.012 58.721 110.343 57.7457 110.674 56.7802C111.27 55.0034 111.833 53.3325 112.843 51.7378C113.34 50.9496 113.937 50.1381 114.731 49.4194C115.526 48.7007 116.487 48.0019 117.662 47.3246C122.349 44.5509 125.677 45.2315 129.354 45.9833C133.328 46.7467 137.749 47.9257 143.943 45.2364C147.106 44.0093 149.209 42.36 150.865 40.6411C152.521 38.9835 153.68 37.1586 154.789 35.4397C156.81 32.2039 158.747 29.5875 163.98 28.1004C165.288 27.7063 166.464 27.5523 167.557 27.549C168.633 27.5325 169.61 27.6434 170.521 27.8438C172.359 28.2445 173.949 29.003 175.621 29.8227C177.443 30.7632 179.364 31.8231 181.633 32.4656C182.775 32.7902 184.001 33.0171 185.359 33.0866C186.733 33.1727 188.24 33.2058 189.912 32.9806C191.602 32.767 193.059 32.3994 194.35 31.9208C195.642 31.4389 196.768 30.9653 197.795 30.3509C199.832 29.1536 201.421 27.6699 202.928 26.2772C205.744 23.7386 208.294 21.7283 213.725 21.5627C219.173 21.7283 221.724 23.7386 224.522 26.2772C226.046 27.6699 227.635 29.1536 229.672 30.3509C230.682 30.9653 231.825 31.4389 233.117 31.9191C234.409 32.3977 235.866 32.767 237.538 32.9806C239.227 33.2058 240.734 33.1727 242.092 33.0866C243.45 33.0154 244.692 32.7885 245.835 32.464C248.103 31.8214 250.024 30.7616 251.846 29.821C253.518 29.0013 255.108 28.2429 256.93 27.8422C257.84 27.6418 258.834 27.5324 259.91 27.5474C260.987 27.5507 262.179 27.7047 263.471 28.0988C268.704 29.5858 270.641 32.2023 272.678 35.438C273.787 37.1586 274.93 38.9818 276.603 40.6395C278.242 42.3584 280.362 44.0077 283.508 45.2348C289.701 47.9241 294.139 46.745 298.114 45.9816C301.773 45.2315 305.118 44.5492 309.805 47.3246C310.981 48.0019 311.941 48.7007 312.736 49.4194C313.531 50.1381 314.11 50.9495 314.624 51.7361C315.617 53.3325 316.197 55.0034 316.793 56.7786C317.108 57.7457 317.439 58.721 317.836 59.7378C318.201 60.7744 318.631 61.821 319.211 62.8659C319.774 63.9109 320.486 64.9508 321.38 65.9742C321.844 66.4858 322.341 66.9926 322.904 67.4944C323.45 68.0276 324.046 68.5558 324.709 69.0808C330.074 73.1843 334.512 73.373 338.635 73.5552C340.556 73.6214 342.295 73.7722 344.067 74.3617C345.839 74.9462 347.644 75.9697 349.615 77.8442C351.486 79.8115 352.512 81.6215 353.092 83.395C353.688 85.1653 353.837 86.904 353.903 88.8183C354.086 92.9483 354.268 97.3797 358.375 102.75C358.904 103.416 359.434 104.014 359.964 104.553C360.461 105.116 360.974 105.62 361.488 106.074C362.514 106.978 363.541 107.681 364.601 108.253C365.644 108.822 366.688 109.26 367.714 109.631C368.741 110.011 369.718 110.348 370.678 110.666C372.45 111.258 374.123 111.835 375.729 112.837C376.507 113.343 377.319 113.933 378.047 114.728C378.759 115.524 379.455 116.485 380.134 117.662C382.916 122.347 382.221 125.679 381.475 129.35C380.714 133.321 379.538 137.752 382.22 143.942C383.446 147.097 385.102 149.21 386.824 150.854C388.48 152.519 390.302 153.669 392.024 154.781C395.253 156.809 397.869 158.748 399.36 163.983C399.757 165.285 399.906 166.464 399.906 167.548C399.923 168.63 399.824 169.607 399.625 170.524C399.211 172.355 398.466 173.94 397.638 175.611C396.694 177.433 395.634 179.352 394.988 181.629C394.673 182.768 394.442 183.999 394.375 185.358C394.293 186.721 394.259 188.231 394.475 189.91C394.69 191.591 395.054 193.049 395.535 194.34C396.015 195.63 396.495 196.769 397.108 197.786C398.3 199.825 399.79 201.411 401.181 202.93C403.715 205.732 405.735 208.287 405.901 213.728C405.735 219.168 403.715 221.723 401.181 224.525C399.79 226.044 398.3 227.629 397.108 229.667C396.495 230.684 396.015 231.823 395.535 233.113C395.054 234.405 394.69 235.86 394.475 237.541C394.259 239.22 394.293 240.731 394.375 242.093C394.442 243.453 394.673 244.683 394.988 245.823C395.634 248.1 396.694 250.019 397.638 251.841C398.466 253.511 399.211 255.096 399.625 256.928C399.824 257.843 399.923 258.822 399.906 259.902C399.906 260.986 399.757 262.167 399.36 263.467C397.869 268.703 395.253 270.642 392.024 272.671C390.302 273.78 388.48 274.933 386.824 276.597C385.102 278.242 383.446 280.355 382.22 283.509ZM378.246 325.559C378.329 327.492 378.379 329.317 377.981 331.244C377.584 333.164 376.822 335.244 375.001 337.476C373.229 339.736 371.506 341.092 369.784 341.992C368.012 342.856 366.207 343.247 364.286 343.661C362.233 344.091 360.097 344.568 357.828 345.514C358.573 343.167 358.673 340.932 358.772 338.897C358.871 336.989 358.954 335.247 359.418 333.455C359.832 331.629 360.643 329.774 362.266 327.694C363.939 325.642 365.429 324.307 367.068 323.418C368.691 322.521 370.38 322.019 372.235 321.458C374.206 320.848 376.226 320.101 378.312 318.788C377.965 321.217 378.18 323.478 378.246 325.559ZM343.67 364.286C343.256 366.193 342.858 368.007 341.997 369.779C341.103 371.506 339.745 373.22 337.476 374.995C335.257 376.808 333.171 377.577 331.25 377.977C329.329 378.365 327.491 378.317 325.57 378.249C323.483 378.168 321.214 377.959 318.797 378.305C320.105 376.214 320.85 374.197 321.463 372.226C322.026 370.382 322.523 368.679 323.417 367.058C324.311 365.424 325.652 363.94 327.706 362.266C329.776 360.63 331.631 359.82 333.469 359.404C335.257 358.947 336.996 358.861 338.9 358.773C340.937 358.661 343.173 358.564 345.524 357.819C344.58 360.093 344.1 362.224 343.67 364.286ZM300.316 392.868C299.422 394.602 298.528 396.175 297.236 397.652C295.928 399.093 294.222 400.525 291.54 401.583C286.191 403.685 282.928 402.867 279.169 401.585C277.166 400.931 275.062 400.222 272.645 399.949C274.45 398.245 275.659 396.412 276.785 394.705C278.871 391.58 280.478 388.673 285.396 386.753C287.863 385.784 289.801 385.355 291.672 385.423C293.527 385.456 295.265 385.901 297.137 386.309C299.124 386.709 301.26 387.12 303.727 387.02C302.22 388.958 301.244 390.968 300.316 392.868ZM253.204 406.788C252.409 407.563 251.697 408.353 250.985 409.121C249.676 410.55 248.418 411.889 246.779 412.995C245.156 414.139 243.119 414.907 240.254 415.262C237.406 415.603 235.236 415.435 233.382 414.763C231.511 414.103 229.954 413.122 228.315 412.067C226.559 410.905 224.721 409.794 222.436 408.792C224.622 407.724 226.278 406.151 227.785 404.799C229.209 403.512 230.5 402.316 232.09 401.391C233.68 400.477 235.551 399.654 238.184 399.343C240.817 399.018 242.821 399.282 244.593 399.738C246.381 400.234 247.938 401.07 249.627 401.961C250.538 402.44 251.498 402.933 252.508 403.383C253.535 403.81 254.628 404.153 255.82 404.413C254.843 405.165 253.999 405.99 253.204 406.788ZM199.153 412.067C197.513 413.122 195.957 414.103 194.086 414.763C192.231 415.435 190.062 415.603 187.213 415.262C184.348 414.909 182.312 414.141 180.689 412.995C179.049 411.889 177.791 410.552 176.483 409.121C175.771 408.355 175.058 407.563 174.264 406.788C173.469 405.992 172.624 405.167 171.647 404.415C172.839 404.155 173.932 403.812 174.959 403.383C175.986 402.933 176.93 402.441 177.84 401.962C179.529 401.07 181.086 400.235 182.875 399.738C184.646 399.283 186.65 399.018 189.283 399.343C191.916 399.654 193.787 400.479 195.377 401.391C196.967 402.316 198.259 403.512 199.683 404.799C201.19 406.151 202.846 407.724 205.031 408.792C202.746 409.795 200.908 410.905 199.153 412.067ZM148.298 401.587C144.555 402.869 141.277 403.686 135.928 401.585C133.245 400.527 131.539 399.094 130.231 397.654C128.94 396.177 128.045 394.602 127.151 392.868C126.207 390.968 125.247 388.96 123.74 387.022C126.191 387.122 128.343 386.709 130.331 386.309C132.202 385.901 133.941 385.456 135.795 385.423C137.667 385.357 139.604 385.786 142.071 386.754C146.99 388.675 148.596 391.582 150.699 394.706C151.809 396.413 153.017 398.247 154.822 399.951C152.405 400.224 150.302 400.932 148.298 401.587ZM101.898 378.249C99.9601 378.319 98.1386 378.367 96.2176 377.979C94.2967 377.58 92.2101 376.81 89.9911 374.996C87.7224 373.222 86.3645 371.509 85.4703 369.782C84.6092 368.01 84.2118 366.197 83.7978 364.289C83.3673 362.227 82.887 360.096 81.9431 357.822C84.2946 358.568 86.5302 358.664 88.567 358.775C90.4714 358.864 92.2101 358.95 93.9986 359.407C95.8367 359.823 97.6914 360.631 99.7613 362.267C101.815 363.942 103.156 365.424 104.034 367.06C104.945 368.681 105.441 370.383 106.004 372.226C106.617 374.197 107.362 376.214 108.671 378.305C106.236 377.961 103.984 378.168 101.898 378.249ZM63.181 343.664C61.2601 343.25 59.455 342.859 57.6831 341.997C55.9609 341.097 54.2387 339.741 52.4668 337.479C50.6452 335.247 49.8835 333.167 49.4861 331.248C49.0886 329.318 49.1383 327.494 49.2045 325.559C49.2873 323.479 49.5026 321.217 49.1549 318.788C51.2414 320.101 53.2617 320.85 55.2323 321.458C57.0704 322.021 58.7761 322.522 60.399 323.422C62.0384 324.311 63.5288 325.646 65.2013 327.697C66.8242 329.777 67.6355 331.632 68.0494 333.46C68.5131 335.25 68.596 336.992 68.6953 338.902C68.7947 340.935 68.8941 343.172 69.6393 345.517C67.3706 344.572 65.2344 344.095 63.181 343.664ZM42.0342 291.67C42.0011 293.525 41.554 295.263 41.1566 297.13C40.7591 299.115 40.3452 301.263 40.4445 303.729C38.507 302.22 36.4866 301.246 34.5988 300.306C32.86 299.413 31.287 298.531 29.8132 297.231C28.3725 295.918 26.9318 294.217 25.872 291.542C23.7689 286.182 24.5969 282.916 25.872 279.171C26.5344 277.169 27.2463 275.066 27.5113 272.638C29.2169 274.441 31.0551 275.662 32.7607 276.773C35.874 278.871 38.7885 280.474 40.7094 285.394C41.6699 287.855 42.1004 289.8 42.0342 291.67ZM23.0402 255.82C22.295 254.841 21.467 253.992 20.6722 253.205C19.8938 252.412 19.099 251.69 18.3373 250.983C16.9132 249.666 15.5717 248.413 14.4655 246.777C13.3212 245.147 12.5529 243.11 12.1986 240.257C11.8574 237.402 12.0246 235.239 12.697 233.373C13.3577 231.508 14.338 229.952 15.3895 228.312C16.5487 226.549 17.6583 224.709 18.6685 222.43C19.7283 224.62 21.3014 226.266 22.6593 227.784C23.951 229.198 25.1432 230.488 26.0706 232.081C26.9813 233.678 27.8094 235.552 28.124 238.18C28.4387 240.807 28.1736 242.82 27.7265 244.594C27.2297 246.372 26.3852 247.927 25.491 249.626C25.0273 250.537 24.5305 251.488 24.0834 252.511C23.6528 253.531 23.3051 254.619 23.0402 255.82ZM12.6953 194.085C12.0247 192.219 11.8574 190.058 12.1986 187.203C12.5513 184.35 13.3196 182.313 14.4655 180.683C15.5717 179.047 16.9132 177.794 18.3373 176.477C19.099 175.772 19.8938 175.048 20.6722 174.257C21.467 173.468 22.295 172.619 23.0402 171.642C23.3051 172.842 23.6528 173.929 24.0834 174.949C24.5305 175.974 25.0273 176.923 25.491 177.835C26.3852 179.532 27.2297 181.087 27.7265 182.866C28.1736 184.639 28.4387 186.653 28.124 189.28C27.8094 191.908 26.9813 193.78 26.0706 195.377C25.1432 196.97 23.951 198.26 22.6593 199.672C21.3014 201.191 19.7283 202.837 18.6685 205.026C17.6583 202.748 16.5487 200.908 15.3895 199.146C14.338 197.505 13.3577 195.95 12.6953 194.085ZM25.872 135.917C26.9318 133.241 28.3725 131.542 29.8132 130.228C31.287 128.928 32.86 128.045 34.5988 127.151C36.4866 126.21 38.507 125.236 40.4445 123.728C40.3452 126.194 40.7426 128.341 41.1566 130.327C41.554 132.193 42.0011 133.934 42.0342 135.788C42.1004 137.658 41.6699 139.604 40.7094 142.066C38.7885 146.988 35.874 148.589 32.7607 150.687C31.0385 151.8 29.2169 153.019 27.5113 154.822C27.2298 152.394 26.5344 150.293 25.872 148.291C24.5969 144.543 23.7689 141.28 25.872 135.917ZM49.2045 101.897C49.1383 99.963 49.0886 98.1398 49.4861 96.2106C49.8835 94.2913 50.6452 92.2131 52.4668 89.9808C54.2387 87.7188 55.9444 86.3625 57.6831 85.4633C59.455 84.5989 61.26 84.2097 63.1643 83.7958C65.2343 83.3652 67.3706 82.8883 69.6393 81.9427C68.8941 84.2876 68.7948 86.5248 68.6788 88.5583C68.596 90.4677 68.5131 92.2081 68.0494 93.9999C67.6355 95.8281 66.8241 97.6827 65.1846 99.7626C63.5121 101.814 62.0384 103.147 60.399 104.037C58.7761 104.934 57.0704 105.436 55.2323 105.999C53.2617 106.607 51.2414 107.355 49.1549 108.668C49.5026 106.239 49.2873 103.977 49.2045 101.897ZM83.7978 63.169C84.2118 61.2629 84.5926 59.4497 85.4703 57.6778C86.3645 55.9506 87.7225 54.2367 89.9746 52.4615C92.2101 50.6482 94.2967 49.8781 96.2176 49.479C98.1386 49.0899 99.9601 49.1396 101.898 49.2075C103.984 49.2886 106.236 49.4956 108.671 49.1512C107.362 51.2427 106.617 53.2596 106.004 55.2303C105.441 57.0733 104.945 58.7757 104.034 60.3985C103.156 62.033 101.815 63.5167 99.7613 65.1909C97.6748 66.827 95.8367 67.6368 93.9986 68.0508C92.2101 68.5095 90.4714 68.5939 88.567 68.6833C86.5302 68.7943 84.2946 68.8904 81.9431 69.6355C82.887 67.3619 83.3673 65.2307 83.7978 63.169ZM127.151 34.5886C128.045 32.8548 128.923 31.2799 130.231 29.8044C131.539 28.3621 133.245 26.9313 135.911 25.8732C141.277 23.7718 144.539 24.5881 148.298 25.8715C150.285 26.5256 152.388 27.2344 154.822 27.506C153.017 29.2116 151.792 31.0431 150.682 32.7521C148.596 35.8769 146.99 38.7831 142.071 40.7024C139.604 41.6728 137.667 42.1017 135.795 42.0338C133.941 42.0007 132.202 41.5552 130.331 41.1462C128.343 40.7471 126.191 40.3347 123.723 40.4341C125.247 38.4966 126.207 36.4879 127.151 34.5886ZM174.264 20.6685C175.042 19.8935 175.771 19.1019 176.483 18.3352C177.791 16.9044 179.049 15.5681 180.689 14.4619C182.312 13.3159 184.348 12.5476 187.197 12.1949C190.061 11.8538 192.214 12.021 194.086 12.6917C195.957 13.3524 197.513 14.3344 199.153 15.3892C200.908 16.5517 202.746 17.6612 205.031 18.6631C202.846 19.7328 201.19 21.3044 199.683 22.6556C198.259 23.944 196.967 25.1396 195.377 26.0636C193.787 26.9777 191.9 27.8024 189.283 28.1137C186.65 28.4366 184.647 28.1733 182.858 27.718C181.086 27.2212 179.529 26.3865 177.84 25.4939C176.93 25.0154 175.969 24.5236 174.942 24.0732C173.932 23.6443 172.839 23.3015 171.647 23.0415C172.624 22.2896 173.469 21.4666 174.264 20.6685ZM228.315 15.3892C229.954 14.3327 231.511 13.3524 233.382 12.6917C235.236 12.021 237.406 11.8521 240.254 12.1932C243.102 12.5476 245.156 13.3159 246.779 14.4602C248.418 15.5664 249.66 16.9044 250.985 18.3335C251.697 19.1019 252.409 19.8918 253.204 20.6668C253.999 21.465 254.843 22.288 255.82 23.0415C254.611 23.3015 253.535 23.6443 252.508 24.0715C251.482 24.5219 250.538 25.0154 249.627 25.4939C247.921 26.3848 246.365 27.2212 244.593 27.7163C242.821 28.1733 240.801 28.4366 238.184 28.1121C235.551 27.8008 233.68 26.9777 232.09 26.0636C230.484 25.1396 229.209 23.944 227.785 22.6556C226.261 21.306 224.622 19.7328 222.436 18.6631C224.705 17.6612 226.559 16.55 228.315 15.3892ZM279.169 25.8698C282.912 24.5865 286.174 23.7701 291.54 25.8715C294.222 26.9297 295.911 28.3621 297.236 29.8028C298.528 31.2799 299.422 32.8531 300.316 34.5886C301.244 36.4863 302.22 38.4966 303.727 40.4341C301.26 40.3347 299.124 40.7455 297.137 41.1462C295.265 41.5552 293.527 41.9991 291.672 42.0322C289.801 42.1001 287.863 41.6711 285.396 40.7007C280.478 38.7798 278.871 35.8752 276.768 32.7504C275.659 31.0414 274.433 29.21 272.645 27.506C275.062 27.2327 277.166 26.524 279.169 25.8698ZM325.57 49.2058C327.491 49.1379 329.312 49.0899 331.25 49.4774C333.171 49.8765 335.241 50.6449 337.476 52.4582C339.745 54.2334 341.103 55.9473 341.997 57.6744C342.858 59.4463 343.256 61.2596 343.67 63.1656C344.1 65.2273 344.58 67.3603 345.524 69.6322C343.173 68.8887 340.937 68.791 338.9 68.68C336.996 68.5906 335.257 68.5062 333.452 68.0491C331.631 67.6335 329.776 66.8237 327.706 65.1876C325.652 63.5134 324.311 62.0313 323.417 60.3969C322.523 58.774 322.026 57.0733 321.463 55.2286C320.85 53.258 320.105 51.241 318.797 49.1495C321.214 49.4956 323.483 49.287 325.57 49.2058ZM364.286 83.7924C366.191 84.2064 368.012 84.5956 369.784 85.46C371.506 86.3592 373.229 87.7155 375.001 89.9759C376.806 92.2098 377.584 94.2896 377.981 96.2089C378.362 98.1381 378.329 99.9614 378.246 101.896C378.18 103.977 377.965 106.237 378.312 108.667C376.226 107.354 374.206 106.605 372.235 105.997C370.38 105.434 368.691 104.933 367.068 104.035C365.429 103.146 363.939 101.811 362.266 99.7593C360.627 97.6778 359.832 95.8248 359.401 93.9966C358.954 92.2048 358.871 90.4627 358.772 88.555C358.673 86.5198 358.573 84.2843 357.828 81.9394C360.097 82.885 362.233 83.3602 364.286 83.7924ZM385.433 135.787C385.466 133.932 385.913 132.192 386.311 130.325C386.708 128.341 387.122 126.194 387.023 123.726C388.96 125.235 390.981 126.21 392.868 127.151C394.607 128.043 396.18 128.926 397.654 130.224C399.095 131.539 400.536 133.238 401.579 135.913C403.682 141.275 402.87 144.538 401.595 148.286C400.933 150.288 400.221 152.391 399.956 154.817C398.25 153.014 396.412 151.795 394.707 150.682C391.577 148.584 388.679 146.983 386.758 142.063C385.781 139.6 385.367 137.656 385.433 135.787ZM404.41 171.637C405.172 172.615 406 173.463 406.795 174.252C407.574 175.043 408.352 175.767 409.13 176.472C410.554 177.789 411.896 179.042 413.005 180.678C414.148 182.308 414.909 184.345 415.274 187.2C415.605 190.055 415.439 192.216 414.76 194.082C414.115 195.948 413.121 197.503 412.078 199.144C410.902 200.906 409.792 202.746 408.799 205.024C407.722 202.837 406.149 201.189 404.808 199.671C403.516 198.258 402.324 196.967 401.397 195.374C400.486 193.779 399.658 191.903 399.343 189.276C399.029 186.65 399.294 184.635 399.741 182.861C400.237 181.084 401.082 179.527 401.96 177.83C402.44 176.919 402.937 175.969 403.384 174.944C403.814 173.924 404.162 172.837 404.41 171.637ZM420.291 235.72C420.175 234.183 419.778 232.81 419.381 231.576C418.519 229.104 417.311 227.162 416.168 225.375C414.015 222.066 411.962 219.324 412.127 213.728C411.962 208.131 414.015 205.389 416.168 202.08C417.311 200.292 418.519 198.349 419.381 195.877C419.778 194.642 420.175 193.269 420.291 191.732C420.407 190.195 420.374 188.485 420.126 186.564C419.877 184.646 419.513 182.977 418.967 181.53C418.387 180.084 417.725 178.845 417.013 177.759C415.555 175.585 413.916 174.013 412.326 172.582C410.819 171.269 409.428 170.074 408.252 168.525C407.656 167.752 407.126 166.891 406.646 165.882C406.199 164.869 405.785 163.716 405.388 162.373C403.864 156.985 405.106 153.81 406.265 150.073C406.928 148.043 407.623 145.843 407.822 143.224C407.971 140.627 407.54 137.64 406.116 134.033C404.659 130.446 402.688 128.095 400.801 126.348C398.896 124.592 396.793 123.561 394.872 122.597C391.312 120.827 388.381 119.361 385.532 114.539C384.837 113.323 384.34 112.202 383.992 111.138C383.645 110.074 383.363 109.112 383.231 108.147C382.966 106.229 383.098 104.403 383.214 102.417C383.28 101.346 383.347 100.22 383.33 99.0588C383.28 97.9079 383.164 96.7041 382.9 95.4306C382.635 94.1572 382.221 92.8175 381.591 91.3983C381.277 90.6895 380.912 89.9626 380.482 89.2141C380.018 88.4904 379.488 87.7469 378.892 86.9852C374.173 80.82 369.238 79.7403 365.098 78.8328C363.193 78.3956 361.372 78.076 359.567 77.3441C357.745 76.6088 355.957 75.4629 354.019 73.4343C351.999 71.4985 350.84 69.7051 350.111 67.8951C349.383 66.0818 349.068 64.257 348.621 62.3576C347.71 58.2259 346.634 53.2878 340.473 48.5666C339.712 47.9688 338.967 47.4438 338.238 46.9835C337.493 46.5529 336.764 46.1853 336.052 45.8707C334.644 45.2414 333.303 44.8291 332.028 44.5625C330.753 44.2959 329.544 44.1766 328.401 44.1319C327.242 44.1038 326.116 44.1832 325.04 44.2462C323.053 44.3687 321.231 44.4995 319.31 44.223C318.35 44.0955 317.389 43.8239 316.329 43.4728C315.253 43.1234 314.143 42.625 312.918 41.9261C308.099 39.0729 306.625 36.1451 304.87 32.5832C303.893 30.6705 302.866 28.5592 301.111 26.6664C299.356 24.7654 297.004 22.803 293.427 21.3375C289.817 19.9216 286.836 19.4861 284.237 19.6351C281.604 19.8438 279.418 20.5327 277.381 21.1917C273.638 22.3476 270.476 23.6028 265.077 22.0727C263.736 21.6687 262.593 21.258 261.566 20.8059C260.573 20.3389 259.695 19.804 258.933 19.2145C257.377 18.0338 256.184 16.6345 254.876 15.1259C253.436 13.5478 251.862 11.9051 249.693 10.4544C248.617 9.73245 247.375 9.06503 245.934 8.49374C244.477 7.939 242.804 7.58295 240.883 7.32626C238.979 7.08118 237.257 7.04807 235.717 7.1673C234.193 7.28488 232.819 7.67404 231.577 8.08472C229.109 8.93921 227.172 10.1547 225.383 11.2973C222.072 13.4434 219.323 15.4919 213.725 15.3246C208.128 15.4919 205.396 13.4434 202.084 11.2973C200.295 10.1547 198.358 8.93921 195.874 8.08472C194.649 7.67569 193.274 7.28488 191.734 7.1673C190.194 7.04807 188.488 7.08286 186.567 7.32626C184.646 7.58295 182.974 7.939 181.533 8.49374C180.093 9.06503 178.851 9.73407 177.758 10.4561C175.588 11.9067 174.015 13.5478 172.591 15.1276C171.266 16.6345 170.074 18.0354 168.534 19.2162C167.756 19.8057 166.895 20.3406 165.884 20.8076C164.874 21.2596 163.715 21.6703 162.374 22.0744C156.992 23.6028 153.812 22.3493 150.07 21.1934C148.05 20.5343 145.847 19.8454 143.231 19.6368C140.631 19.4878 137.65 19.9233 134.04 21.3391C130.446 22.8047 128.095 24.767 126.356 26.6664C124.601 28.5608 123.558 30.6705 122.597 32.5848C120.825 36.1452 119.368 39.0746 114.549 41.9261C113.324 42.625 112.214 43.1234 111.138 43.4745C110.078 43.8239 109.118 44.0955 108.157 44.2247C106.236 44.5012 104.415 44.3704 102.428 44.2462C101.351 44.1832 100.225 44.1054 99.0659 44.1319C97.9068 44.1783 96.7144 44.2975 95.4393 44.5641C94.1642 44.8307 92.8228 45.2431 91.3987 45.8723C90.6866 46.187 89.9581 46.5546 89.2129 46.9852C88.5008 47.4472 87.7556 47.9721 86.9938 48.5683C80.8171 53.2911 79.7407 58.2292 78.8299 62.3609C78.3994 64.2603 78.0847 66.0851 77.356 67.8984C76.6109 69.7084 75.4682 71.5018 73.4314 73.4377C71.5104 75.4662 69.7055 76.6122 67.9005 77.3491C66.0789 78.0793 64.2573 78.399 62.3695 78.8362C58.2296 79.7436 53.2948 80.8233 48.5753 86.9885C47.9791 87.7502 47.4493 88.4937 46.9856 89.2174C46.5551 89.9659 46.1907 90.6929 45.8761 91.4016C45.2468 92.8192 44.8328 94.1605 44.5678 95.4323C44.3028 96.7057 44.187 97.9113 44.1373 99.0605C44.1042 100.221 44.187 101.347 44.2533 102.419C44.3692 104.404 44.5016 106.231 44.2201 108.148C44.1042 109.114 43.8227 110.076 43.4749 111.139C43.1272 112.202 42.6304 113.323 41.9349 114.539C39.0701 119.361 36.1555 120.828 32.5951 122.599C30.6742 123.562 28.5712 124.594 26.6668 126.351C24.7624 128.098 22.8084 130.451 21.3345 134.036C19.927 137.643 19.4964 140.632 19.6454 143.229C19.8441 145.848 20.5397 148.047 21.2021 150.078C22.3447 153.815 23.6032 156.99 22.0797 162.378C21.6657 163.721 21.2683 164.874 20.8046 165.887C20.3409 166.896 19.8111 167.757 19.2149 168.53C18.0392 170.079 16.6316 171.274 15.1297 172.587C13.5515 174.018 11.9104 175.59 10.4598 177.764C9.73612 178.85 9.06883 180.089 8.49752 181.535C7.94277 182.982 7.58661 184.651 7.32993 186.569C7.0865 188.488 7.05173 190.2 7.17096 191.735C7.29019 193.272 7.67932 194.645 8.09 195.88C8.94282 198.353 10.1584 200.293 11.301 202.082C13.4472 205.391 15.489 208.133 15.33 213.728C15.489 219.325 13.4472 222.068 11.301 225.376C10.1601 227.165 8.94282 229.106 8.09 231.58C7.67932 232.813 7.29032 234.188 7.17274 235.723C7.05186 237.26 7.08663 238.972 7.33171 240.891C7.58839 242.81 7.94273 244.48 8.49914 245.927C9.07045 247.373 9.73778 248.611 10.4598 249.698C11.9104 251.872 13.5515 253.442 15.1313 254.874C16.6316 256.186 18.0392 257.383 19.2149 258.93C19.8111 259.703 20.3409 260.566 20.8046 261.574C21.2683 262.586 21.6823 263.74 22.0797 265.083C23.6032 270.472 22.3613 273.646 21.2021 277.382C20.5397 279.414 19.8441 281.612 19.6454 284.233C19.4964 286.828 19.9269 289.817 21.351 293.424C22.8083 297.009 24.779 299.36 26.6668 301.109C28.5712 302.864 30.6742 303.896 32.5951 304.86C36.1555 306.63 39.0701 308.096 41.9349 312.916C42.6304 314.133 43.1272 315.254 43.4749 316.317C43.8227 317.381 44.1041 318.343 44.2366 319.308C44.5016 321.226 44.3692 323.054 44.2533 325.038C44.187 326.109 44.1042 327.237 44.1373 328.398C44.187 329.547 44.3028 330.753 44.5678 332.026C44.8328 333.298 45.2468 334.639 45.8761 336.057C46.1907 336.765 46.5551 337.494 46.9856 338.241C47.4493 338.966 47.9791 339.71 48.5753 340.47C53.2948 346.637 58.2296 347.716 62.3695 348.624C64.2573 349.059 66.0955 349.379 67.9005 350.111C69.7055 350.848 71.5105 351.993 73.448 354.022C75.4683 355.956 76.6109 357.751 77.356 359.562C78.0847 361.375 78.3993 363.2 78.8464 365.099C79.7406 369.229 80.8336 374.168 86.9938 378.89C87.7556 379.486 88.5008 380.013 89.2294 380.473C89.9746 380.904 90.7031 381.271 91.3987 381.586C92.8228 382.214 94.1642 382.628 95.4393 382.894C96.7144 383.159 97.9068 383.28 99.0659 383.325C100.225 383.351 101.351 383.273 102.428 383.21C104.415 383.086 106.236 382.956 108.157 383.232C109.118 383.361 110.078 383.633 111.138 383.982C112.214 384.331 113.324 384.83 114.549 385.53C119.368 388.382 120.825 391.311 122.597 394.871C123.574 396.786 124.601 398.897 126.356 400.79C128.095 402.689 130.446 404.653 134.04 406.119C137.65 407.533 140.631 407.97 143.231 407.82C145.847 407.613 148.05 406.922 150.086 406.265C153.812 405.109 156.992 403.854 162.39 405.382C163.732 405.788 164.874 406.197 165.884 406.651C166.895 407.116 167.756 407.651 168.534 408.242C170.091 409.421 171.283 410.822 172.591 412.33C174.015 413.909 175.588 415.55 177.774 417.001C178.851 417.723 180.093 418.391 181.533 418.963C182.991 419.518 184.663 419.873 186.567 420.13C188.488 420.373 190.211 420.408 191.734 420.289C193.274 420.17 194.648 419.781 195.89 419.37C198.358 418.518 200.295 417.302 202.084 416.159C205.396 414.013 208.145 411.965 213.725 412.13C219.323 411.965 222.072 414.013 225.383 416.159C227.172 417.3 229.109 418.518 231.577 419.37C232.819 419.781 234.193 420.17 235.733 420.287C237.257 420.407 238.979 420.373 240.9 420.128C242.821 419.872 244.477 419.518 245.934 418.961C247.375 418.39 248.617 417.723 249.71 417.001C251.879 415.55 253.452 413.907 254.876 412.329C256.184 410.82 257.393 409.421 258.933 408.24C259.712 407.651 260.573 407.116 261.583 406.649C262.593 406.195 263.736 405.786 265.094 405.38C270.476 403.852 273.655 405.107 277.381 406.263C279.418 406.921 281.62 407.611 284.237 407.818C286.836 407.967 289.817 407.532 293.427 406.117C297.021 404.65 299.372 402.689 301.111 400.788C302.866 398.896 303.893 396.784 304.87 394.871C306.642 391.31 308.099 388.382 312.918 385.53C314.143 384.83 315.253 384.331 316.329 383.982C317.389 383.633 318.35 383.359 319.31 383.232C321.231 382.956 323.053 383.086 325.04 383.208C326.116 383.272 327.242 383.351 328.401 383.323C329.544 383.278 330.753 383.157 332.028 382.892C333.303 382.626 334.644 382.212 336.069 381.582C336.764 381.27 337.493 380.9 338.238 380.47C338.967 380.009 339.712 379.484 340.473 378.887C346.634 374.165 347.727 369.226 348.621 365.096C349.068 363.196 349.383 361.372 350.111 359.557C350.856 357.748 351.999 355.953 354.019 354.017C355.957 351.99 357.762 350.845 359.567 350.107C361.372 349.376 363.21 349.056 365.098 348.619C369.238 347.711 374.173 346.633 378.892 340.466C379.488 339.706 380.018 338.963 380.482 338.238C380.912 337.491 381.277 336.762 381.591 336.053C382.221 334.636 382.635 333.296 382.9 332.023C383.164 330.751 383.28 329.545 383.33 328.396C383.363 327.234 383.28 326.108 383.214 325.036C383.098 323.052 382.966 321.226 383.231 319.306C383.363 318.343 383.645 317.381 383.992 316.317C384.34 315.254 384.837 314.132 385.532 312.916C388.381 308.094 391.312 306.628 394.872 304.858C396.793 303.894 398.896 302.861 400.801 301.106C402.688 299.357 404.659 297.005 406.116 293.419C407.54 289.812 407.971 286.825 407.822 284.228C407.623 281.608 406.928 279.409 406.265 277.377C405.106 273.641 403.864 270.467 405.388 265.078C405.785 263.734 406.199 262.581 406.663 261.569C407.126 260.561 407.656 259.698 408.252 258.925C409.428 257.378 410.819 256.181 412.343 254.869C413.916 253.437 415.555 251.865 417.013 249.693C417.725 248.606 418.404 247.368 418.967 245.922C419.53 244.475 419.877 242.806 420.126 240.888C420.374 238.967 420.407 237.256 420.291 235.72Z" fill="#C9B36B"/>
<path d="M213.725 423.109C98.2869 423.109 4.35194 329.182 4.35194 213.731C4.35194 98.2786 98.2869 4.35187 213.725 4.35187C329.179 4.35187 423.106 98.2786 423.106 213.731C423.106 329.182 329.179 423.109 213.725 423.109ZM364.865 62.6007C324.493 22.2314 270.823 -9.15527e-05 213.725 -9.15527e-05C156.643 -9.15527e-05 102.973 22.2314 62.6008 62.6007C22.2282 102.968 0 156.642 0 213.731C0 270.821 22.2282 324.493 62.6008 364.862C102.973 405.229 156.643 427.463 213.725 427.463C270.823 427.463 324.493 405.229 364.865 364.862C405.238 324.493 427.461 270.821 427.461 213.731C427.461 156.642 405.238 102.968 364.865 62.6007Z" fill="#C7A96D"/>
<path fill-rule="evenodd" clip-rule="evenodd" d="M32.2139 213.731C32.2139 113.638 113.638 32.2051 213.725 32.2051C313.828 32.2051 395.253 113.638 395.253 213.731C395.253 313.825 313.828 395.255 213.725 395.255C113.638 395.255 32.2139 313.825 32.2139 213.731ZM213.725 278.123C215.133 274.352 217.021 270.54 219.455 266.69C233.796 243.894 230.252 237.267 220.763 219.553C218.66 215.633 216.242 211.107 213.725 205.821C211.225 211.107 208.807 215.633 206.704 219.553C197.215 237.267 193.671 243.894 208.012 266.69C210.446 270.54 212.334 274.352 213.725 278.123ZM213.725 152.762C213.725 152.762 222.8 171.473 213.725 187.566C204.667 171.473 213.725 152.762 213.725 152.762ZM383.919 215.645C384.24 215.222 384.527 214.842 384.721 214.495C385.185 213.735 385.433 213.3 385.433 213.3C385.433 213.3 385.3 213.788 385.035 214.644C384.924 215.068 384.72 215.546 384.484 216.101L384.456 216.166C384.34 216.454 384.208 216.775 384.059 217.093C383.968 217.249 383.882 217.409 383.794 217.572C383.704 217.737 383.612 217.907 383.512 218.08C383.275 218.568 382.953 219.035 382.615 219.526C382.457 219.755 382.295 219.989 382.138 220.233C381.987 220.416 381.836 220.605 381.682 220.797C381.247 221.342 380.793 221.911 380.266 222.429C380.168 222.53 380.069 222.633 379.97 222.737C379.719 222.999 379.463 223.266 379.19 223.519C378.858 223.819 378.514 224.121 378.168 224.425L378.014 224.56C377.203 225.228 376.358 225.911 375.464 226.506C374.586 227.13 373.676 227.693 372.765 228.231C371.837 228.761 370.927 229.255 370.016 229.705C368.227 230.601 366.489 231.343 364.998 231.918C364.501 232.12 364.021 232.289 363.574 232.449L363.673 232.903C362.465 233.186 361.256 233.43 360.03 233.653C360.014 233.658 359.997 233.668 359.997 233.668C356.437 234.316 352.91 234.723 349.631 234.971C349.697 235.019 349.763 235.059 349.846 235.107C350.939 235.808 352.115 236.607 353.34 237.462C354.268 238.089 355.205 238.784 356.165 239.495C356.49 239.736 356.818 239.979 357.149 240.222C357.39 240.41 357.633 240.598 357.876 240.786C358.939 241.609 360.023 242.447 361.074 243.347C362.147 244.216 363.199 245.148 364.247 246.077C364.492 246.294 364.737 246.511 364.982 246.727C365.294 247.023 365.608 247.317 365.921 247.61C366.869 248.498 367.811 249.382 368.708 250.299C369.684 251.255 370.607 252.251 371.501 253.216C371.714 253.446 371.925 253.674 372.136 253.899C372.449 254.261 372.761 254.615 373.07 254.965C373.803 255.798 374.513 256.605 375.166 257.42C376.093 258.557 376.954 259.642 377.716 260.677C378.469 261.637 379.104 262.549 379.675 263.37L379.77 263.505C380.366 264.353 380.879 265.098 381.276 265.731C382.071 266.98 382.535 267.693 382.535 267.693C382.535 267.693 381.972 267.057 380.995 265.943C380.515 265.38 379.902 264.723 379.19 263.979C378.478 263.227 377.683 262.389 376.772 261.515C375.878 260.617 374.868 259.688 373.792 258.721C373.056 258.026 372.247 257.347 371.416 256.649C371.068 256.357 370.716 256.062 370.364 255.76C370.027 255.497 369.691 255.229 369.352 254.96C368.441 254.235 367.516 253.498 366.538 252.798C365.569 252.06 364.555 251.359 363.543 250.66C363.188 250.416 362.833 250.171 362.481 249.925C362.124 249.696 361.769 249.466 361.415 249.237C360.373 248.562 359.338 247.891 358.275 247.275C357.259 246.639 356.216 246.054 355.199 245.484C354.84 245.282 354.485 245.083 354.135 244.884C353.674 244.645 353.222 244.406 352.777 244.171C351.88 243.696 351.013 243.237 350.161 242.829C348.886 242.2 347.677 241.617 346.534 241.117C345.408 240.593 344.381 240.153 343.471 239.779C342.56 239.394 341.765 239.063 341.053 238.793C339.861 238.326 339.115 238.032 338.933 237.959C332.16 234.806 324.94 232.184 317.406 230.104C317.464 230.183 317.522 230.261 317.58 230.339C317.721 230.527 317.861 230.715 318.002 230.913C318.663 231.786 319.236 232.732 319.809 233.676C319.896 233.82 319.984 233.965 320.072 234.109C320.522 234.797 320.897 235.537 321.266 236.268C321.467 236.665 321.667 237.06 321.877 237.442C322.228 238.156 322.525 238.889 322.815 239.606C322.976 240.004 323.135 240.397 323.301 240.779C323.595 241.493 323.825 242.215 324.046 242.912C324.162 243.275 324.275 243.63 324.394 243.975C324.626 244.644 324.777 245.314 324.921 245.953C324.992 246.27 325.062 246.579 325.139 246.876C325.207 247.215 325.284 247.539 325.358 247.851C325.483 248.375 325.6 248.866 325.652 249.337C325.672 249.485 325.691 249.63 325.71 249.77C325.785 250.331 325.851 250.827 325.917 251.251C326.066 252.306 326.149 252.907 326.149 252.907C326.149 252.907 325.934 252.334 325.57 251.332C325.387 250.836 325.172 250.233 324.924 249.541C324.78 249.074 324.549 248.594 324.303 248.082C324.179 247.825 324.052 247.56 323.93 247.285C323.809 247.039 323.693 246.784 323.574 246.524C323.303 245.928 323.019 245.305 322.638 244.697C322.481 244.426 322.326 244.148 322.169 243.865C321.816 243.23 321.451 242.575 321.016 241.94C320.795 241.631 320.581 241.316 320.365 240.998C319.948 240.384 319.525 239.762 319.045 239.169C318.788 238.867 318.541 238.555 318.294 238.242C317.823 237.649 317.352 237.054 316.809 236.518C316.685 236.388 316.561 236.259 316.438 236.129C315.757 235.417 315.087 234.715 314.359 234.089C313.547 233.305 312.686 232.613 311.841 231.954C311.229 231.457 310.599 231.023 309.99 230.605C309.776 230.457 309.565 230.311 309.358 230.166C309.091 230.004 308.833 229.841 308.581 229.681C308.05 229.346 307.544 229.027 307.039 228.766C305.582 227.933 304.323 227.394 303.462 227.038C303.264 226.96 303.098 226.895 302.949 226.84C291.97 224.835 278.954 223.486 266.269 226.123C266.41 226.218 266.553 226.31 266.697 226.403C267.062 226.638 267.432 226.877 267.776 227.165L267.812 227.193C268.827 227.972 269.857 228.763 270.79 229.71C271.691 230.497 272.473 231.413 273.254 232.328C273.349 232.439 273.444 232.55 273.539 232.661C273.986 233.153 274.367 233.706 274.748 234.263C274.957 234.576 275.171 234.889 275.385 235.2C275.543 235.432 275.702 235.663 275.857 235.894C276.328 236.665 276.743 237.46 277.146 238.232C277.325 238.574 277.501 238.911 277.679 239.24C278.046 240.068 278.359 240.895 278.658 241.685C278.763 241.964 278.867 242.238 278.97 242.506C279.202 243.014 279.335 243.538 279.451 244.044C279.488 244.185 279.525 244.324 279.562 244.462C279.656 244.816 279.748 245.162 279.832 245.497C279.869 245.637 279.907 245.775 279.943 245.911C280.151 246.677 280.341 247.376 280.411 248.039C280.511 248.804 280.61 249.469 280.693 250.017C280.858 251.107 280.941 251.728 280.941 251.728C280.941 251.728 280.726 251.135 280.362 250.099C280.246 249.8 280.124 249.463 279.991 249.092C279.895 248.827 279.793 248.544 279.682 248.246C279.505 247.648 279.192 247.028 278.855 246.36C278.784 246.218 278.712 246.075 278.639 245.929C278.538 245.717 278.432 245.501 278.324 245.28C278.22 245.069 278.115 244.854 278.01 244.636L277.975 244.563C277.771 244.139 277.562 243.705 277.265 243.294C277.069 242.998 276.876 242.693 276.679 242.385C276.294 241.779 275.899 241.158 275.46 240.549C275.21 240.252 274.964 239.947 274.716 239.641C274.242 239.054 273.763 238.461 273.241 237.901C273.005 237.679 272.775 237.456 272.544 237.232C272.352 237.048 272.161 236.862 271.966 236.677C271.552 236.263 271.121 235.856 270.641 235.516C270.541 235.438 270.441 235.361 270.342 235.283C269.52 234.639 268.711 234.007 267.809 233.506C266.989 232.942 266.092 232.504 265.231 232.084C265.118 232.029 265.006 231.974 264.895 231.919C264.582 231.745 264.247 231.616 263.919 231.49C263.761 231.429 263.605 231.369 263.454 231.305C263.258 231.235 263.07 231.159 262.885 231.084C262.602 230.969 262.327 230.858 262.046 230.778C261.872 230.726 261.701 230.673 261.532 230.622C260.786 230.393 260.089 230.179 259.413 230.046C258.768 229.878 258.154 229.779 257.588 229.689C257.443 229.665 257.3 229.643 257.161 229.619L257.139 229.616C256.486 229.535 255.914 229.463 255.456 229.44C255.388 229.436 255.329 229.432 255.266 229.429C255.237 229.427 255.206 229.425 255.174 229.424C249.312 231.442 242.605 233.532 235.866 233.037C238.83 243.218 237.29 253.593 226.327 271.019C225.582 272.199 224.919 273.37 224.29 274.536C225.88 278.292 230.815 288.039 240.403 292.404C247.673 295.714 256.333 295.32 266.137 291.23C295.357 279.035 305.759 285.007 316.768 291.328L316.776 291.332C320.072 293.223 323.483 295.176 327.557 296.683C327.704 296.761 328.035 296.911 328.507 297.126C328.67 297.2 328.851 297.282 329.047 297.372C329.25 297.459 329.476 297.561 329.716 297.67C330.084 297.836 330.484 298.017 330.885 298.181C331.548 298.438 332.293 298.728 333.104 299.044C333.61 299.24 334.174 299.414 334.763 299.595C335.119 299.705 335.485 299.818 335.853 299.94C336.507 300.134 337.189 300.294 337.891 300.459C338.256 300.545 338.626 300.632 338.999 300.725C339.402 300.779 339.809 300.852 340.22 300.926C340.942 301.055 341.678 301.188 342.427 301.223C342.645 301.24 342.863 301.261 343.082 301.281C343.46 301.316 343.838 301.351 344.216 301.369L346.021 301.386C346.412 301.406 346.789 301.373 347.171 301.339C347.387 301.32 347.604 301.301 347.826 301.291C348.422 301.26 349.035 301.202 349.614 301.089C350.74 300.952 351.822 300.677 352.873 300.409L353.059 300.362C353.229 300.306 353.398 300.25 353.567 300.194C354.484 299.893 355.377 299.599 356.188 299.206C356.952 298.902 357.647 298.518 358.303 298.155C358.501 298.046 358.696 297.938 358.888 297.835C359.042 297.736 359.194 297.639 359.343 297.544C359.966 297.147 360.546 296.777 361.04 296.395C361.249 296.225 361.454 296.067 361.649 295.915C362.011 295.635 362.339 295.381 362.597 295.133C363.425 294.371 363.905 293.936 363.905 293.936C363.905 293.936 363.524 294.459 362.862 295.373C362.652 295.667 362.382 295.975 362.082 296.317C361.909 296.515 361.725 296.724 361.537 296.949C361.13 297.426 360.63 297.909 360.085 298.434C359.942 298.572 359.797 298.712 359.649 298.855C359.471 299.002 359.289 299.155 359.103 299.311C358.498 299.821 357.851 300.367 357.116 300.844C356.36 301.422 355.489 301.917 354.59 302.429C354.406 302.533 354.221 302.638 354.036 302.745L353.931 302.796C352.82 303.327 351.662 303.881 350.426 304.292C349.813 304.544 349.167 304.741 348.505 304.911C348.267 304.97 348.029 305.039 347.791 305.108C347.366 305.23 346.942 305.353 346.518 305.42L344.497 305.806C344.054 305.874 343.612 305.92 343.169 305.967C342.933 305.992 342.697 306.017 342.46 306.046C341.561 306.174 340.682 306.193 339.812 306.212C339.369 306.222 338.927 306.232 338.486 306.256C338.137 306.242 337.789 306.231 337.444 306.221C336.528 306.192 335.631 306.164 334.777 306.087C334.381 306.041 333.993 306.002 333.612 305.963C332.862 305.887 332.141 305.814 331.448 305.701C324.758 304.511 318.598 301.753 312.736 298.38C302.717 292.626 294.785 288.08 269.267 298.73C257.261 303.741 246.397 304.09 236.958 299.766C228.894 296.073 223.545 289.681 220.266 284.389C219.074 288.777 218.726 293.05 219.256 297.18C221.276 300.882 234.557 322.041 268.803 312.262C275.427 310.368 285.131 308.907 293.791 312.698C298.859 314.913 302.055 318.921 304.87 322.456C308.993 327.644 313.365 330.839 319.807 332.783C320.371 332.966 320.98 333.114 321.609 333.267C321.829 333.32 322.051 333.374 322.274 333.43C324.029 333.816 325.95 334.109 327.904 334.311C329.858 334.485 331.846 334.57 333.717 334.571C335.588 334.56 337.36 334.502 338.867 334.393C341.897 334.191 343.918 333.939 343.918 333.939C343.918 333.939 343.454 334.116 342.609 334.426C341.781 334.732 340.573 335.169 339.115 335.64C337.658 336.126 335.919 336.63 334.048 337.123C332.16 337.602 330.123 338.034 328.037 338.372C325.95 338.685 323.831 338.898 321.794 338.966C321.573 338.968 321.354 338.971 321.135 338.974C320.352 338.984 319.584 338.995 318.846 338.953C317.902 338.913 317.008 338.867 316.18 338.764C315.952 338.74 315.729 338.715 315.51 338.691C315.333 338.671 315.159 338.652 314.988 338.634C314.59 338.567 314.21 338.504 313.845 338.445C313.498 338.382 313.166 338.322 312.852 338.269C310.566 337.868 309.374 337.395 307.354 336.161C306.062 335.375 304.87 334.444 303.76 333.425C301.806 331.642 300.15 329.58 298.511 327.519L298.508 327.515C295.959 324.315 293.757 321.552 290.546 320.143C284.087 317.321 276.371 318.55 271.022 320.077C253.419 325.109 240.353 322.845 231.047 318.353C236.793 323.683 243.765 327.633 250.024 330.022C254.313 331.664 258.337 333.54 261.765 336.714C264.365 339.109 266.451 342.114 267.561 345.474C268.398 348.002 268.439 350.622 268.48 353.248C268.494 354.153 268.508 355.059 268.554 355.962C268.637 357.804 268.803 359.941 269.151 362.18C269.515 364.409 270.061 366.743 270.972 368.873C271.899 370.975 273.191 372.891 274.98 374.006C275.857 374.57 276.818 374.997 277.795 375.191C278.119 375.288 278.443 375.324 278.763 375.359C278.933 375.378 279.102 375.397 279.268 375.424C279.765 375.449 280.229 375.454 280.693 375.455C280.978 375.433 281.257 375.412 281.53 375.391C281.7 375.379 281.868 375.366 282.034 375.353C282.371 375.296 282.697 375.242 283.012 375.19L283.226 375.154C283.76 375.054 284.236 374.932 284.662 374.823C284.844 374.776 285.017 374.731 285.18 374.692C286.24 374.346 286.853 374.149 286.853 374.149C286.853 374.149 286.29 374.465 285.313 375.015C285.168 375.082 285.015 375.156 284.854 375.234C284.443 375.433 283.977 375.659 283.442 375.873C283.061 376.016 282.663 376.166 282.249 376.325C281.964 376.403 281.679 376.485 281.385 376.569C281.218 376.617 281.049 376.665 280.875 376.714C280.378 376.812 279.865 376.911 279.318 376.99C279.136 376.999 278.954 377.014 278.77 377.03C278.386 377.064 277.994 377.098 277.58 377.063C276.387 377.067 275.096 376.798 273.82 376.305C272.545 375.812 271.32 375.047 270.26 374.092C269.184 373.147 268.256 372.046 267.445 370.887C265.839 368.552 264.696 366.015 263.785 363.62C262.907 361.221 262.262 358.947 261.765 357C261.479 355.857 261.273 354.655 261.066 353.442C260.639 350.94 260.204 348.394 259.033 346.233C256.714 341.972 252.094 339.266 247.606 337.786L247.275 337.676C241.181 335.37 221.343 326.576 213.725 307.789C206.108 326.576 186.286 335.37 180.175 337.676L179.844 337.786C175.373 339.266 170.736 341.972 168.434 346.233C167.271 348.38 166.834 350.907 166.404 353.394C166.192 354.623 165.981 355.842 165.685 357C165.205 358.947 164.559 361.221 163.682 363.62C162.771 366.015 161.628 368.552 160.022 370.887C159.211 372.046 158.267 373.147 157.207 374.092C156.147 375.047 154.905 375.812 153.647 376.305C152.371 376.798 151.08 377.067 149.871 377.063C149.465 377.098 149.066 377.063 148.681 377.03C148.5 377.014 148.323 376.999 148.149 376.99C147.602 376.911 147.089 376.812 146.592 376.714L146.334 376.641C145.946 376.531 145.57 376.425 145.218 376.325C145.045 376.259 144.872 376.194 144.703 376.13C144.467 376.042 144.238 375.956 144.025 375.873C143.49 375.659 143.023 375.433 142.612 375.234C142.451 375.156 142.299 375.082 142.154 375.015C141.177 374.465 140.614 374.149 140.614 374.149C140.614 374.149 141.227 374.346 142.287 374.692C142.45 374.731 142.623 374.776 142.805 374.823C143.231 374.932 143.707 375.054 144.241 375.154C144.455 375.191 144.687 375.23 144.926 375.269C145.093 375.296 145.263 375.324 145.433 375.353C145.599 375.366 145.767 375.379 145.937 375.391C146.21 375.412 146.489 375.433 146.774 375.455C147.221 375.454 147.702 375.449 148.198 375.424C148.364 375.397 148.531 375.378 148.699 375.36C149.019 375.324 149.341 375.288 149.656 375.191C150.649 374.997 151.61 374.57 152.487 374.006C154.276 372.891 155.567 370.975 156.495 368.873C157.406 366.743 157.952 364.409 158.3 362.18C158.647 359.941 158.83 357.804 158.912 355.962C158.953 355.097 158.966 354.229 158.979 353.362C159.018 350.698 159.057 348.039 159.906 345.474C161.016 342.114 163.102 339.109 165.685 336.714C169.13 333.54 173.137 331.664 177.443 330.022C183.702 327.633 190.674 323.683 196.42 318.353C187.097 322.845 174.048 325.109 156.429 320.077C151.096 318.55 143.379 317.321 136.921 320.143C133.71 321.552 131.508 324.315 128.959 327.515L128.956 327.519C127.317 329.58 125.661 331.642 123.707 333.425C122.597 334.444 121.405 335.375 120.113 336.161C118.093 337.395 116.9 337.868 114.615 338.269C114.427 338.301 114.233 338.335 114.03 338.371C113.893 338.395 113.752 338.419 113.605 338.445C113.327 338.492 113.027 338.542 112.715 338.594C112.637 338.607 112.558 338.62 112.479 338.634C112.308 338.652 112.134 338.671 111.957 338.691C111.738 338.715 111.515 338.74 111.287 338.764C110.459 338.867 109.548 338.913 108.621 338.953C107.883 338.995 107.115 338.984 106.332 338.974C106.113 338.971 105.894 338.968 105.673 338.966C103.636 338.898 101.516 338.685 99.4299 338.372C97.3434 338.034 95.3066 337.602 93.4188 337.123C91.5475 336.63 89.8088 336.126 88.3516 335.64C86.8943 335.169 85.6853 334.732 84.8574 334.426C84.0128 334.116 83.5326 333.939 83.5326 333.939C83.5326 333.939 85.5695 334.191 88.6 334.393C90.1069 334.502 91.8787 334.56 93.75 334.571C95.6212 334.57 97.6085 334.485 99.5625 334.311C101.517 334.109 103.438 333.816 105.193 333.43C105.416 333.374 105.638 333.32 105.858 333.267C106.486 333.114 107.096 332.966 107.66 332.783C114.085 330.839 118.457 327.644 122.597 322.456C125.412 318.921 128.608 314.913 133.676 312.698C142.336 308.907 152.04 310.368 158.664 312.262C192.91 322.041 206.19 300.882 208.211 297.18C208.741 293.05 208.393 288.777 207.201 284.389C203.922 289.681 198.573 296.073 190.508 299.766C181.069 304.09 170.19 303.741 158.184 298.73C132.682 288.08 124.75 292.626 114.731 298.38C108.852 301.753 102.709 304.511 96.0187 305.701C95.3264 305.814 94.6051 305.887 93.8545 305.963C93.4739 306.002 93.0858 306.041 92.6902 306.087C91.8363 306.164 90.9386 306.192 90.0226 306.221C89.6775 306.231 89.3298 306.242 88.9808 306.256C88.5396 306.232 88.0966 306.222 87.6516 306.212C86.7772 306.193 85.8955 306.174 85.0065 306.046C84.7703 306.017 84.5342 305.992 84.2981 305.967C83.8553 305.92 83.4125 305.874 82.9697 305.806L80.9493 305.42C80.5132 305.353 80.0908 305.23 79.6689 305.107C79.4339 305.038 79.1991 304.97 78.9622 304.911C78.2998 304.741 77.6539 304.544 77.0247 304.292C75.806 303.881 74.6493 303.328 73.5398 302.797L73.4312 302.745C73.3051 302.674 73.1797 302.603 73.0551 302.533C72.0826 301.984 71.1566 301.461 70.3346 300.844C69.619 300.379 68.9953 299.85 68.4088 299.352C68.2081 299.181 68.0117 299.015 67.8175 298.855C67.67 298.712 67.5247 298.572 67.3823 298.434C66.8374 297.909 66.3367 297.426 65.9296 296.949C65.7417 296.724 65.5582 296.515 65.3849 296.317C65.0846 295.975 64.8148 295.667 64.6049 295.373C63.9425 294.459 63.5616 293.936 63.5616 293.936C63.5616 293.936 64.0253 294.371 64.8533 295.133C65.1102 295.37 65.4244 295.613 65.7684 295.878C65.9788 296.04 66.2002 296.211 66.4264 296.395C66.9206 296.777 67.501 297.147 68.1241 297.544C68.2736 297.639 68.4254 297.736 68.5792 297.835C68.7786 297.942 68.9799 298.054 69.1847 298.168C69.8305 298.527 70.5115 298.906 71.2784 299.206C72.0691 299.59 72.9385 299.878 73.8217 300.172C74.0113 300.235 74.2015 300.298 74.3918 300.362C74.4797 300.384 74.5677 300.406 74.6558 300.429C75.6965 300.69 76.7534 300.955 77.8526 301.089C78.4322 301.202 79.0283 301.26 79.6411 301.291C79.8627 301.301 80.0799 301.32 80.296 301.339C80.6774 301.373 81.055 301.406 81.4461 301.386L83.2512 301.369C83.6293 301.351 84.0073 301.316 84.3854 301.281C84.6035 301.261 84.8215 301.24 85.0396 301.223C85.7775 301.188 86.5154 301.056 87.2405 300.926C87.6545 300.852 88.0643 300.779 88.4675 300.725C88.8412 300.632 89.2111 300.545 89.5757 300.459C90.2775 300.294 90.96 300.134 91.6139 299.94C91.9855 299.817 92.3524 299.703 92.7099 299.592C93.2922 299.412 93.8497 299.239 94.3627 299.044C95.1741 298.728 95.9194 298.438 96.5818 298.181C97.0315 297.997 97.4811 297.791 97.879 297.609C98.0672 297.523 98.2438 297.442 98.4033 297.372C99.1817 297.024 99.6949 296.789 99.9102 296.683C103.984 295.176 107.395 293.223 110.691 291.332L110.699 291.328C121.708 285.007 132.11 279.035 161.314 291.23C171.117 295.32 179.778 295.714 187.064 292.404C196.652 288.039 201.587 278.292 203.177 274.536C202.547 273.37 201.885 272.199 201.14 271.019C190.177 253.593 188.637 243.218 191.601 233.037C184.862 233.532 178.155 231.442 172.293 229.424C172.193 229.429 172.111 229.434 171.995 229.44C171.548 229.464 170.951 229.536 170.289 229.619C170.142 229.645 169.99 229.669 169.833 229.695C169.286 229.784 168.685 229.882 168.053 230.046C167.378 230.179 166.68 230.393 165.934 230.622C165.765 230.674 165.594 230.726 165.42 230.778C165.121 230.863 164.821 230.984 164.517 231.107C164.351 231.174 164.183 231.242 164.013 231.305C163.862 231.369 163.706 231.429 163.548 231.49C163.22 231.616 162.885 231.745 162.572 231.919C162.461 231.974 162.349 232.029 162.236 232.084C161.375 232.504 160.478 232.942 159.658 233.506C158.756 234.007 157.947 234.639 157.125 235.283C157.025 235.361 156.926 235.438 156.826 235.516C156.329 235.856 155.915 236.263 155.501 236.677C155.306 236.862 155.115 237.048 154.923 237.232C154.692 237.456 154.462 237.679 154.226 237.901C153.704 238.461 153.224 239.055 152.75 239.641C152.503 239.947 152.257 240.252 152.007 240.549C151.568 241.157 151.173 241.778 150.788 242.384C150.592 242.693 150.398 242.997 150.202 243.294C149.904 243.705 149.696 244.139 149.492 244.563L149.457 244.636C149.352 244.854 149.247 245.069 149.143 245.28C149.035 245.501 148.929 245.717 148.828 245.929C148.755 246.075 148.683 246.219 148.611 246.361C148.275 247.028 147.962 247.649 147.784 248.246L147.736 248.377C147.491 249.038 147.276 249.617 147.105 250.099C146.741 251.135 146.526 251.728 146.526 251.728C146.526 251.728 146.609 251.107 146.774 250.017C146.812 249.769 146.849 249.495 146.89 249.2C146.939 248.844 146.992 248.456 147.056 248.039C147.121 247.428 147.287 246.786 147.467 246.089C147.517 245.896 147.568 245.699 147.619 245.497C147.703 245.2 147.781 244.895 147.861 244.583C147.906 244.406 147.952 244.226 148 244.044L148.019 243.971C148.145 243.487 148.275 242.99 148.48 242.506C148.623 242.152 148.763 241.787 148.907 241.415C149.18 240.707 149.463 239.974 149.788 239.24C149.968 238.907 150.146 238.564 150.325 238.217C150.722 237.45 151.131 236.66 151.61 235.894C151.974 235.354 152.338 234.809 152.719 234.263C153.084 233.706 153.481 233.153 153.928 232.661L153.943 232.643C154.799 231.626 155.673 230.588 156.677 229.71C157.61 228.763 158.64 227.972 159.655 227.193L159.691 227.165C160.035 226.876 160.405 226.638 160.77 226.403C160.914 226.31 161.057 226.218 161.198 226.123C148.513 223.486 135.497 224.835 124.501 226.84C124.352 226.895 124.187 226.96 124.005 227.038C123.144 227.394 121.885 227.933 120.428 228.766C119.923 229.027 119.417 229.346 118.886 229.681C118.634 229.841 118.376 230.004 118.109 230.166C117.894 230.317 117.673 230.469 117.448 230.622C116.844 231.035 116.217 231.464 115.625 231.954C114.781 232.613 113.92 233.305 113.092 234.089C112.303 234.767 111.584 235.532 110.858 236.305C110.791 236.376 110.725 236.447 110.658 236.518C110.115 237.054 109.644 237.649 109.173 238.242C108.926 238.555 108.679 238.867 108.422 239.169C107.942 239.762 107.519 240.384 107.102 240.998C106.886 241.316 106.671 241.631 106.451 241.94C106.043 242.534 105.698 243.146 105.361 243.743C105.179 244.067 104.998 244.387 104.812 244.697C104.441 245.29 104.17 245.896 103.909 246.478C103.786 246.754 103.665 247.024 103.537 247.285C103.415 247.56 103.288 247.825 103.164 248.082C102.918 248.594 102.687 249.074 102.543 249.541C102.387 249.975 102.238 250.374 102.103 250.734C102.023 250.948 101.949 251.147 101.881 251.332C101.533 252.334 101.318 252.907 101.318 252.907C101.318 252.907 101.401 252.306 101.55 251.251C101.586 250.959 101.633 250.632 101.684 250.273C101.726 249.981 101.77 249.669 101.815 249.337C101.856 248.862 101.978 248.367 102.107 247.838C102.183 247.53 102.261 247.21 102.328 246.876C102.404 246.58 102.472 246.272 102.541 245.956C102.682 245.316 102.829 244.645 103.073 243.975C103.201 243.605 103.322 243.222 103.445 242.831C103.658 242.159 103.877 241.466 104.149 240.779C104.305 240.42 104.456 240.053 104.609 239.68C104.914 238.939 105.227 238.18 105.59 237.442C105.807 237.047 106.011 236.639 106.216 236.228C106.574 235.51 106.936 234.785 107.379 234.109C107.418 234.044 107.458 233.979 107.497 233.914C108.12 232.891 108.749 231.859 109.465 230.913C109.606 230.715 109.746 230.527 109.887 230.339C109.945 230.261 110.003 230.183 110.061 230.104C102.527 232.184 95.3066 234.806 88.5337 237.959C88.4748 237.982 88.3553 238.029 88.1808 238.097C87.8156 238.24 87.2096 238.477 86.414 238.793C85.702 239.063 84.8906 239.394 83.9964 239.779C83.0856 240.153 82.0589 240.593 80.9328 241.117C79.7902 241.617 78.5813 242.2 77.3062 242.829C76.3569 243.284 75.3801 243.801 74.3758 244.333C74.0311 244.516 73.6831 244.7 73.3319 244.884C72.9616 245.095 72.585 245.306 72.2046 245.519C71.2068 246.078 70.1825 246.652 69.1754 247.275C68.1474 247.877 67.137 248.533 66.1184 249.193C65.7424 249.437 65.3652 249.682 64.9857 249.925C64.6335 250.171 64.279 250.416 63.9244 250.66C62.9117 251.359 61.8975 252.06 60.9286 252.798C59.951 253.498 59.0262 254.234 58.1157 254.959C57.7769 255.228 57.4401 255.496 57.1033 255.76C56.7514 256.062 56.3994 256.357 56.0513 256.649C55.2201 257.347 54.4107 258.026 53.6754 258.721C52.5991 259.688 51.5889 260.617 50.6947 261.515C49.7839 262.389 48.9891 263.227 48.277 263.979C47.565 264.723 46.9522 265.38 46.472 265.943C45.4949 267.057 44.9319 267.693 44.9319 267.693C44.9319 267.693 45.379 266.98 46.1904 265.731C46.5879 265.098 47.1013 264.353 47.6974 263.505C48.277 262.649 48.9559 261.69 49.7508 260.677C50.4959 259.642 51.3737 258.557 52.301 257.42C52.9341 256.615 53.6392 255.818 54.3662 254.997C54.6851 254.637 55.0083 254.272 55.3314 253.899C55.5415 253.674 55.7528 253.446 55.9656 253.216C56.8603 252.251 57.7828 251.255 58.7593 250.299C59.8253 249.208 60.9442 248.164 62.0806 247.105C62.2153 246.979 62.3502 246.853 62.4852 246.727C62.7714 246.475 63.0568 246.221 63.3423 245.967C64.3452 245.074 65.3491 244.181 66.3933 243.347C67.4433 242.448 68.5262 241.61 69.5886 240.788C69.833 240.599 70.0764 240.41 70.318 240.222C70.6492 239.979 70.9773 239.736 71.3027 239.495C72.2624 238.783 73.1992 238.089 74.1267 237.462C75.3521 236.607 76.5114 235.808 77.6209 235.107C77.6871 235.059 77.7533 235.019 77.8361 234.971C74.5573 234.723 71.03 234.316 67.4697 233.668C67.4697 233.668 67.4612 233.666 67.4528 233.662C67.4447 233.659 67.4367 233.653 67.4367 233.653C66.2113 233.43 65.0024 233.186 63.7935 232.903L63.8928 232.449C63.8412 232.431 63.7891 232.412 63.7366 232.393C63.3346 232.249 62.9082 232.096 62.4688 231.918C60.9784 231.343 59.2395 230.601 57.4345 229.705C56.5403 229.255 55.613 228.761 54.7022 228.231C53.7914 227.693 52.8806 227.13 52.003 226.506C51.1088 225.911 50.2641 225.228 49.4527 224.56L49.3027 224.428C48.9555 224.123 48.61 223.82 48.277 223.519C48.0042 223.266 47.7483 222.999 47.4973 222.737C47.3979 222.633 47.2993 222.53 47.2007 222.429C46.6104 221.848 46.0998 221.204 45.6216 220.6C45.523 220.476 45.4257 220.353 45.3294 220.233C45.1997 220.039 45.0699 219.852 44.9427 219.668C44.567 219.124 44.2147 218.615 43.9549 218.08C43.7561 217.736 43.574 217.408 43.4084 217.093C43.2766 216.84 43.1764 216.585 43.0825 216.346C43.0584 216.285 43.0348 216.225 43.0111 216.166C42.9723 216.075 42.9339 215.986 42.8964 215.899C42.6935 215.429 42.5153 215.016 42.4315 214.644C42.1665 213.788 42.0175 213.3 42.0175 213.3C42.0175 213.3 42.2824 213.735 42.746 214.495C42.9447 214.881 43.2759 215.307 43.6568 215.789C43.7133 215.863 43.7698 215.94 43.8273 216.018C43.9551 216.191 44.0879 216.372 44.2364 216.549C44.2996 216.616 44.3641 216.684 44.4294 216.753C44.6037 216.938 44.7844 217.129 44.9651 217.327C45.2974 217.714 45.7089 218.07 46.134 218.437C46.3232 218.6 46.5151 218.766 46.7039 218.938C46.8797 219.068 47.0543 219.201 47.2305 219.336C47.7347 219.721 48.2509 220.115 48.84 220.453C48.9501 220.52 49.0602 220.589 49.1711 220.658C49.4439 220.828 49.7215 221.002 50.0158 221.161C50.1182 221.213 50.2207 221.266 50.3233 221.318C50.6356 221.478 50.9503 221.64 51.2743 221.803L51.3522 221.839C52.1874 222.225 53.024 222.611 53.9073 222.919C60.6155 225.497 68.1896 226.047 75.4364 226.573C76.6334 226.66 77.8215 226.746 78.9953 226.84C81.4627 227.041 83.9466 227.16 86.414 227.187C86.9388 227.193 87.5535 227.233 88.2084 227.277C90.0335 227.398 92.1698 227.54 93.5347 227.009C101.401 223.952 109.73 221.513 118.374 219.746C133.112 216.737 152.371 214.081 170.736 220.288C171.63 220.588 172.525 220.901 173.435 221.22L173.438 221.221C180.873 223.804 188.539 226.468 195.195 224.082C196.469 221.441 197.941 218.691 199.53 215.724L199.533 215.717C199.749 215.333 199.964 214.934 200.163 214.543C200.461 212.546 201.272 204.758 196.934 198.164C193.605 193.125 187.909 189.763 180.01 188.175C165.089 185.175 146.029 177.706 130.86 165.346C130.224 164.828 128.578 164.727 127.392 164.655C127.036 164.634 126.722 164.615 126.489 164.588C123.955 164.293 121.388 164.227 118.838 164.405C112.347 164.864 105.524 166.84 100.092 170.506C99.5955 170.837 99.0823 171.182 98.5689 171.534C98.432 171.638 98.2936 171.742 98.1541 171.847C97.264 172.517 96.3288 173.22 95.4556 174.056C94.5243 174.855 93.6443 175.787 92.748 176.736C92.6242 176.867 92.5001 176.998 92.3755 177.13C92.2408 177.29 92.105 177.451 91.9689 177.613C91.1345 178.601 90.2842 179.608 89.5439 180.699C88.8748 181.546 88.3022 182.458 87.7308 183.367C87.4819 183.763 87.2333 184.159 86.9771 184.549C86.7397 184.986 86.4952 185.419 86.2517 185.85C85.748 186.742 85.2486 187.627 84.8244 188.525C84.6515 188.89 84.476 189.252 84.3022 189.61C83.8435 190.555 83.3961 191.476 83.0358 192.396C82.8834 192.771 82.728 193.138 82.5754 193.499C82.214 194.353 81.8679 195.171 81.6117 195.968L81.5503 196.142C81.1767 197.201 80.8329 198.175 80.5188 199.043C80.4187 199.375 80.3227 199.691 80.2317 199.992C80.0668 200.535 79.9182 201.025 79.7902 201.456C79.3762 202.799 79.1443 203.566 79.1443 203.566C79.1443 203.566 79.2603 202.773 79.4425 201.382C79.5418 200.684 79.6577 199.838 79.7902 198.866C79.9723 197.901 80.171 196.811 80.3862 195.622C80.5254 194.781 80.7377 193.91 80.9606 192.996C81.0559 192.605 81.1531 192.206 81.2474 191.798C81.4663 190.793 81.7745 189.774 82.0933 188.72C82.2086 188.338 82.3253 187.952 82.4397 187.561C82.7417 186.529 83.1252 185.496 83.5158 184.444C83.6821 183.996 83.8497 183.544 84.0129 183.088C84.2074 182.654 84.3962 182.213 84.586 181.77C85.0426 180.704 85.5049 179.624 86.0664 178.59C86.6535 177.349 87.3645 176.161 88.0694 174.983C88.2194 174.732 88.369 174.482 88.5172 174.232C88.6604 174.024 88.8028 173.816 88.945 173.608C89.7401 172.445 90.5275 171.294 91.3985 170.256C92.245 169.148 93.191 168.164 94.0964 167.221C94.236 167.076 94.3747 166.932 94.5118 166.788C94.7646 166.552 95.0137 166.318 95.2594 166.087C95.5449 165.819 95.8256 165.556 96.1015 165.298C96.4664 164.957 96.848 164.651 97.2226 164.351C97.375 164.23 97.5262 164.109 97.6747 163.986C98.3683 163.385 99.0782 162.895 99.7421 162.436C100.029 162.237 100.308 162.045 100.573 161.852C100.712 161.766 100.847 161.682 100.979 161.6C101.208 161.457 101.428 161.32 101.649 161.186L101.517 160.915C102.659 160.313 103.818 159.792 104.961 159.323C104.98 159.317 104.988 159.312 104.991 159.309C104.994 159.308 104.994 159.31 104.994 159.31C110.773 156.968 116.437 156.207 121.206 156.162C118.209 152.789 115.493 149.149 113.208 145.236C104.63 130.648 102.411 110.717 111.287 95.7173C111.651 95.0715 112.082 94.3594 112.562 93.6341C113.026 92.8889 113.572 92.1057 114.168 91.2909C114.55 90.7308 114.992 90.1745 115.444 89.6065C115.659 89.3366 115.876 89.064 116.089 88.7871C116.241 88.6104 116.392 88.4318 116.545 88.2524C117.108 87.5893 117.682 86.9134 118.308 86.2683C118.9 85.6106 119.552 84.9868 120.202 84.3651C120.389 84.1871 120.575 84.0092 120.759 83.8308C120.908 83.6986 121.057 83.566 121.206 83.4335C121.915 82.8027 122.62 82.175 123.359 81.6085C124.015 81.0621 124.709 80.5696 125.384 80.0914C125.594 79.942 125.803 79.794 126.008 79.6461C126.252 79.4906 126.491 79.3336 126.729 79.1782C127.363 78.7626 127.981 78.3579 128.608 78.0216C129.436 77.5315 130.231 77.091 130.993 76.7283C131.7 76.3577 132.377 76.0615 132.967 75.8031L133.063 75.7612C133.692 75.483 134.222 75.2578 134.686 75.0972C135.596 74.7593 136.11 74.5656 136.11 74.5656C136.11 74.5656 135.646 74.872 134.851 75.4068C134.437 75.6635 133.974 76.0046 133.444 76.412C132.897 76.8061 132.301 77.2566 131.688 77.7914C131.059 78.3015 130.397 78.8927 129.734 79.5319C129.237 79.9701 128.756 80.4737 128.268 80.9849C128.074 81.1883 127.879 81.3929 127.681 81.5952C127.532 81.7671 127.381 81.9386 127.23 82.1107C126.709 82.7029 126.181 83.3024 125.694 83.9516C125.189 84.5656 124.724 85.2237 124.26 85.8792C124.114 86.0847 123.969 86.29 123.823 86.4936C123.657 86.7565 123.489 87.0168 123.322 87.2764C122.918 87.9013 122.518 88.5218 122.167 89.163C121.754 89.8494 121.391 90.5579 121.039 91.2447C120.94 91.4394 120.841 91.6323 120.742 91.8225C120.591 92.1627 120.435 92.494 120.282 92.82C120.032 93.3509 119.788 93.8678 119.583 94.3859L119.583 94.3871C119.252 95.208 118.937 95.9876 118.689 96.7242C113.026 111.707 111.833 126.868 120.212 141.119C132.516 162.064 159.906 175.843 181.616 180.207C191.767 182.249 199.219 186.816 203.773 193.781C205.296 196.114 206.356 198.518 207.085 200.855L207.148 200.721C207.408 200.174 207.668 199.628 207.913 199.06C208.393 197.896 208.807 196.677 209.122 195.395C209.072 195.258 209.022 195.124 208.956 194.985C205.81 187.178 202.614 177.757 202.398 168.201C196.735 159.182 187.329 148.21 172.425 134.552C167.888 130.402 163.98 126.247 160.668 122.109C160.579 122.06 160.487 122.005 160.39 121.947C160.162 121.811 159.905 121.659 159.592 121.524C159.257 121.343 158.868 121.201 158.437 121.043C158.291 120.989 158.14 120.934 157.985 120.875C157.808 120.833 157.625 120.782 157.436 120.73C156.973 120.603 156.473 120.465 155.932 120.415C155.291 120.285 154.614 120.266 153.893 120.245C153.757 120.241 153.62 120.237 153.481 120.232C153.21 120.217 152.939 120.246 152.66 120.275C152.496 120.293 152.328 120.311 152.156 120.32C152.018 120.336 151.878 120.346 151.737 120.356C151.422 120.379 151.102 120.403 150.782 120.491C150.544 120.545 150.303 120.594 150.058 120.644C149.365 120.786 148.652 120.932 147.967 121.206L146.542 121.685C146.231 121.804 145.928 121.951 145.626 122.097C145.479 122.168 145.332 122.24 145.185 122.307C144.721 122.523 144.274 122.734 143.827 122.945C143.518 123.096 143.225 123.278 142.936 123.456C142.807 123.536 142.679 123.616 142.551 123.692C142.261 123.88 141.962 124.055 141.665 124.229C141.135 124.54 140.613 124.845 140.167 125.209C139.942 125.377 139.72 125.542 139.502 125.705C139.015 126.068 138.548 126.416 138.114 126.745C137.565 127.125 137.107 127.542 136.693 127.918C136.607 127.996 136.523 128.072 136.441 128.146C136.07 128.471 135.746 128.765 135.46 129.023C135.363 129.111 135.271 129.194 135.182 129.274C134.47 129.905 134.073 130.266 134.073 130.266C134.073 130.266 134.371 129.824 134.918 129.047C135.007 128.915 135.104 128.774 135.208 128.623C135.41 128.329 135.637 128 135.878 127.639C135.954 127.532 136.031 127.421 136.109 127.307C136.428 126.846 136.778 126.339 137.203 125.849C137.405 125.607 137.613 125.357 137.826 125.1C138.17 124.685 138.53 124.252 138.908 123.803C139.286 123.313 139.748 122.867 140.226 122.407C140.482 122.162 140.741 121.912 140.995 121.648C141.096 121.548 141.197 121.445 141.298 121.341C141.565 121.069 141.838 120.79 142.137 120.539C142.568 120.196 142.999 119.85 143.429 119.5C143.597 119.371 143.763 119.237 143.93 119.103C144.205 118.881 144.481 118.658 144.771 118.455L146.244 117.526C147.003 116.999 147.845 116.602 148.688 116.204C148.912 116.099 149.135 115.993 149.357 115.885C149.721 115.688 150.118 115.556 150.512 115.425C150.675 115.37 150.837 115.316 150.997 115.258C151.189 115.199 151.379 115.133 151.568 115.067C151.934 114.94 152.298 114.813 152.669 114.738L152.786 114.712C153.574 114.537 154.347 114.365 155.12 114.261C154.077 112.57 153.117 110.833 152.255 109.05C151.345 107.187 150.583 105.459 150.169 103.423C150.07 102.939 149.954 102.351 149.821 101.677C149.696 101.157 149.606 100.405 149.512 99.6181C149.494 99.4685 149.475 99.3176 149.457 99.1667C149.429 98.843 149.385 98.5087 149.341 98.1669C149.254 97.5052 149.164 96.8153 149.175 96.1197C149.172 95.9187 149.169 95.7159 149.165 95.5117C149.149 94.639 149.132 93.7376 149.159 92.8144C149.181 92.5583 149.202 92.3009 149.224 92.0423C149.299 91.1435 149.374 90.2306 149.49 89.3137C149.578 88.8994 149.653 88.4828 149.728 88.0664C149.866 87.301 150.004 86.5361 150.219 85.7865C150.283 85.5605 150.346 85.3346 150.409 85.1093C150.667 84.1805 150.922 83.262 151.295 82.3917C151.379 82.1786 151.461 81.9658 151.542 81.7544C151.668 81.4253 151.793 81.0997 151.924 80.7821C152.173 80.2704 152.421 79.7637 152.669 79.2669C152.991 78.5477 153.391 77.8852 153.775 77.2484C153.924 77.0011 154.071 76.7577 154.21 76.5163C154.398 76.2492 154.575 75.9851 154.749 75.7272C155.11 75.1906 155.452 74.6813 155.832 74.2294C157.936 71.4789 159.74 70.0978 159.74 70.0978C159.74 70.0978 158.283 71.8614 156.909 74.8901C156.65 75.4137 156.425 75.9973 156.191 76.602C156.096 76.8485 155.999 77.0985 155.899 77.3493C155.81 77.6518 155.711 77.9553 155.61 78.2625C155.409 78.8767 155.203 79.506 155.071 80.1727C154.955 80.6646 154.839 81.1646 154.723 81.6714C154.68 81.9348 154.642 82.2023 154.603 82.4707C154.567 82.722 154.531 82.9741 154.491 83.2247C154.351 84.0137 154.309 84.8308 154.267 85.6405C154.254 85.8878 154.242 86.1344 154.226 86.3793C154.195 87.0413 154.229 87.7065 154.263 88.3626C154.283 88.7487 154.303 89.1318 154.309 89.5091C154.368 90.1162 154.456 90.714 154.542 91.2988C154.601 91.7013 154.659 92.0976 154.706 92.4865C154.831 93.085 154.975 93.6654 155.114 94.2259C155.197 94.5602 155.278 94.8874 155.352 95.2073C155.468 95.7575 155.65 96.2455 155.823 96.7079C155.923 96.9734 156.019 97.2304 156.097 97.4859C156.185 97.7154 156.259 97.932 156.332 98.143C156.48 98.5729 156.62 98.9796 156.842 99.4251C157.167 100.142 157.484 100.862 157.801 101.583C158.764 103.766 159.725 105.949 160.883 108.036C162.423 110.805 164.212 113.436 166.149 115.943C169.66 120.504 173.667 124.672 177.907 128.557C188.919 138.64 197.546 147.776 203.938 156.208C203.976 156.078 204.013 155.947 204.049 155.816C204.123 155.548 204.197 155.281 204.286 155.014C205.76 150.664 207.433 146.369 209.271 142.146C207.698 138.768 206.008 135.444 204.203 132.197C200.726 125.957 197.894 119.552 195.162 113.357C195.038 113.078 194.915 112.8 194.791 112.521C193.755 110.185 192.713 107.836 191.618 105.478C188.952 99.6999 188.356 93.0032 189.333 86.7585C189.813 83.6254 190.724 80.5453 192.082 77.6822C192.961 75.8412 194.125 74.2706 195.298 72.6873C195.915 71.8552 196.534 71.0195 197.116 70.1392C197.43 69.6871 197.728 69.187 198.027 68.6422C198.176 68.369 198.325 68.0858 198.474 67.791L198.672 67.3688L198.888 66.8256C199.186 66.1086 199.418 65.4826 199.683 64.7291C199.914 64.0005 200.13 63.2537 200.328 62.4969C200.693 60.985 200.908 59.4383 200.925 57.9761C200.941 57.2441 200.891 56.542 200.809 55.8664C200.693 55.2056 200.577 54.5664 200.395 54.0001C200.288 53.5805 200.13 53.2101 199.982 52.8627C199.924 52.7248 199.867 52.5906 199.815 52.4584C199.708 52.2739 199.614 52.0946 199.525 51.926C199.407 51.7028 199.299 51.4984 199.186 51.3257C198.772 50.7262 198.523 50.3851 198.523 50.3851C198.523 50.3851 198.854 50.6434 199.451 51.0972C199.645 51.2607 199.855 51.4692 200.092 51.7043C200.198 51.8096 200.31 51.9202 200.428 52.0344C200.516 52.1429 200.612 52.254 200.711 52.3694C200.983 52.6857 201.282 53.0336 201.537 53.4437C201.918 53.9868 202.266 54.6211 202.614 55.3133C202.928 56.0138 203.226 56.7722 203.475 57.5836C203.955 59.2031 204.253 60.9999 204.386 62.8016C204.435 63.7024 204.452 64.6066 204.435 65.4942C204.419 66.3536 204.369 67.3108 204.286 68.1106L204.253 68.6935C204.22 68.9221 204.187 69.1473 204.154 69.3708C204.118 69.6749 204.066 69.9748 204.015 70.2681C203.994 70.3869 203.974 70.5046 203.955 70.6211C203.789 71.4309 203.607 72.1893 203.408 72.8798C202.724 75.2897 201.685 77.579 200.649 79.8641C199.003 83.4925 197.362 87.1106 197.149 91.1849C196.95 94.7254 197.364 98.6765 198.921 101.921L198.971 102.032C200.119 104.489 201.198 106.935 202.271 109.367C202.374 109.601 202.477 109.834 202.58 110.068L202.708 110.355C205.459 116.553 208.062 122.417 211.307 128.241C212.135 129.739 212.947 131.258 213.725 132.785C214.52 131.258 215.315 129.739 216.159 128.241C219.455 122.327 222.088 116.372 224.87 110.068C225.211 109.307 225.55 108.545 225.89 107.781C226.74 105.872 227.593 103.956 228.48 102.032L228.546 101.921C230.103 98.6765 230.517 94.7254 230.318 91.1849C230.095 87.113 228.458 83.4969 226.816 79.8707C225.781 77.5834 224.744 75.2921 224.058 72.8798C223.86 72.1893 223.678 71.4309 223.512 70.6211C223.429 70.217 223.363 69.7981 223.313 69.3708C223.28 69.1473 223.247 68.9221 223.214 68.6935L223.164 68.1106C223.098 67.3108 223.048 66.3536 223.032 65.4942C223.015 64.6066 223.032 63.7024 223.081 62.8016C223.214 60.9999 223.495 59.2031 223.992 57.5836C224.241 56.7722 224.539 56.0138 224.853 55.3133C225.201 54.6211 225.549 53.9868 225.93 53.4437C226.184 53.0336 226.484 52.6858 226.756 52.3695C226.855 52.2541 226.951 52.1429 227.039 52.0344C227.157 51.9198 227.269 51.8089 227.376 51.7033C227.612 51.4687 227.822 51.2605 228.016 51.0972C228.596 50.6434 228.944 50.3851 228.944 50.3851C228.944 50.3851 228.695 50.7262 228.281 51.3257C228.134 51.5498 227.987 51.8273 227.827 52.1301C227.771 52.2368 227.712 52.3466 227.652 52.4584C227.6 52.5906 227.543 52.7249 227.484 52.8628C227.337 53.2101 227.179 53.5805 227.072 54.0001C226.89 54.5664 226.774 55.2056 226.658 55.8664C226.576 56.542 226.526 57.2441 226.542 57.9761C226.542 59.4383 226.774 60.985 227.139 62.4969C227.321 63.2537 227.553 64.0005 227.784 64.7291C228.049 65.4826 228.281 66.1086 228.579 66.8256L228.794 67.3688L228.993 67.791C229.142 68.0858 229.291 68.369 229.44 68.6422C229.738 69.187 230.036 69.6871 230.335 70.1392C230.911 71.0034 231.522 71.8245 232.13 72.6415C233.32 74.2404 234.498 75.8235 235.385 77.6822C236.743 80.5453 237.637 83.6254 238.134 86.7585C239.111 93.0032 238.515 99.6999 235.849 105.478C234.754 107.835 233.713 110.184 232.677 112.519C232.553 112.799 232.429 113.078 232.305 113.357C229.573 119.552 226.741 125.957 223.264 132.197C221.442 135.444 219.753 138.768 218.196 142.146C220.034 146.369 221.707 150.664 223.181 155.014C223.27 155.28 223.344 155.548 223.418 155.816C223.454 155.947 223.491 156.078 223.529 156.208C229.921 147.776 238.548 138.64 249.56 128.557C253.8 124.672 257.807 120.504 261.318 115.943C263.255 113.436 265.044 110.805 266.584 108.036C267.742 105.949 268.703 103.766 269.666 101.582C269.983 100.862 270.3 100.142 270.624 99.4251C270.847 98.9796 270.987 98.5729 271.135 98.143C271.208 97.932 271.282 97.7154 271.37 97.4859C271.448 97.2304 271.544 96.9734 271.644 96.7079C271.817 96.2455 271.999 95.7575 272.115 95.2073C272.189 94.8873 272.27 94.5599 272.353 94.2254C272.492 93.6651 272.636 93.0849 272.761 92.4865C272.808 92.0976 272.866 91.7013 272.925 91.2988C273.011 90.714 273.099 90.1162 273.158 89.5091C273.164 89.1541 273.182 88.7941 273.2 88.4311C273.233 87.7528 273.267 87.0643 273.224 86.3793C273.206 86.0983 273.193 85.815 273.18 85.531C273.145 84.7572 273.109 83.9781 272.976 83.2247C272.936 82.974 272.9 82.7217 272.864 82.4703C272.825 82.202 272.787 81.9347 272.744 81.6714C272.667 81.3355 272.59 81.0025 272.513 80.673C272.474 80.5054 272.435 80.3386 272.396 80.1727C272.253 79.5068 272.051 78.8784 271.854 78.2648C271.755 77.9569 271.657 77.6526 271.568 77.3493C271.44 77.0448 271.322 76.7415 271.207 76.4442C270.994 75.8959 270.789 75.368 270.542 74.8901C269.167 71.8614 267.71 70.0978 267.71 70.0978C267.71 70.0978 269.531 71.4789 271.635 74.2294C272.006 74.6841 272.354 75.197 272.721 75.7373C272.895 75.992 273.072 76.2527 273.257 76.5163C273.418 76.8053 273.594 77.0973 273.773 77.3953C274.129 77.9871 274.5 78.6028 274.797 79.2669C274.946 79.5648 275.089 79.8662 275.233 80.1702C275.33 80.3731 275.427 80.5772 275.526 80.7821C275.694 81.1592 275.844 81.5476 275.996 81.9397C276.054 82.09 276.112 82.2408 276.172 82.3917C276.545 83.2619 276.8 84.1803 277.058 85.1089C277.121 85.3344 277.184 85.5604 277.248 85.7865C277.463 86.5361 277.601 87.301 277.739 88.0664C277.814 88.4828 277.889 88.8994 277.977 89.3137C278.093 90.2306 278.168 91.1436 278.243 92.0425C278.264 92.301 278.286 92.5584 278.308 92.8144C278.329 93.5327 278.317 94.2377 278.305 94.9263C278.298 95.33 278.292 95.728 278.292 96.1197C278.302 96.8153 278.213 97.5052 278.126 98.167C278.082 98.5087 278.038 98.843 278.01 99.1667C277.991 99.3176 277.973 99.4685 277.955 99.6182C277.861 100.405 277.771 101.157 277.646 101.677C277.513 102.351 277.397 102.939 277.298 103.423C276.884 105.459 276.122 107.187 275.211 109.05C274.35 110.833 273.39 112.57 272.347 114.261C273.119 114.365 273.892 114.537 274.679 114.712L274.797 114.738C275.169 114.813 275.533 114.94 275.899 115.067C276.088 115.133 276.278 115.199 276.47 115.258C276.63 115.316 276.792 115.37 276.954 115.425C277.349 115.556 277.746 115.688 278.109 115.885C278.332 115.993 278.555 116.099 278.779 116.204C279.622 116.602 280.464 116.999 281.223 117.526L282.696 118.455C282.986 118.658 283.262 118.881 283.537 119.103C283.704 119.237 283.87 119.371 284.038 119.5C284.468 119.85 284.899 120.196 285.329 120.539C285.587 120.755 285.818 120.991 286.048 121.226C286.188 121.369 286.328 121.511 286.472 121.648C286.726 121.912 286.985 122.162 287.241 122.408C287.719 122.868 288.181 123.313 288.559 123.803C288.815 124.116 289.069 124.421 289.315 124.718C289.641 125.11 289.955 125.488 290.248 125.849C290.745 126.406 291.133 126.984 291.474 127.492C291.507 127.542 291.54 127.591 291.572 127.639C291.953 128.184 292.284 128.658 292.549 129.047C293.079 129.824 293.394 130.266 293.394 130.266C293.394 130.266 292.997 129.905 292.285 129.274C292.15 129.152 292.002 129.021 291.844 128.88C291.595 128.658 291.32 128.413 291.026 128.146C290.943 128.072 290.859 127.996 290.774 127.918C290.36 127.541 289.902 127.125 289.353 126.745C288.921 126.417 288.457 126.071 287.972 125.71C287.752 125.546 287.528 125.379 287.3 125.209C286.854 124.845 286.332 124.54 285.802 124.229C285.505 124.055 285.206 123.88 284.915 123.692C284.787 123.616 284.659 123.536 284.531 123.456C284.242 123.278 283.949 123.096 283.64 122.945C283.521 122.888 283.401 122.832 283.281 122.775C282.952 122.621 282.622 122.465 282.282 122.307C282.135 122.24 281.988 122.169 281.841 122.097C281.539 121.951 281.236 121.804 280.924 121.685L279.5 121.206C278.815 120.932 278.102 120.786 277.409 120.644C277.164 120.594 276.923 120.545 276.685 120.491C276.365 120.403 276.045 120.379 275.73 120.356C275.589 120.346 275.449 120.336 275.311 120.32C275.139 120.311 274.971 120.293 274.807 120.275C274.528 120.246 274.257 120.217 273.986 120.232C273.847 120.237 273.71 120.241 273.574 120.245C272.853 120.266 272.176 120.285 271.535 120.415C270.994 120.465 270.494 120.603 270.031 120.73C269.842 120.782 269.659 120.833 269.482 120.875C269.327 120.934 269.176 120.989 269.03 121.043C268.599 121.201 268.209 121.343 267.875 121.524C267.562 121.659 267.305 121.811 267.077 121.947C266.98 122.005 266.888 122.06 266.799 122.109C263.487 126.247 259.579 130.402 255.042 134.552C240.138 148.21 230.732 159.182 225.069 168.201C224.853 177.757 221.657 187.178 218.511 194.985C218.479 195.052 218.45 195.119 218.422 195.186C218.392 195.255 218.363 195.325 218.329 195.395C218.66 196.677 219.074 197.896 219.538 199.06C219.775 199.578 220.012 200.077 220.25 200.576C220.294 200.669 220.338 200.762 220.382 200.855C221.111 198.518 222.171 196.114 223.694 193.781C228.248 186.816 235.7 182.249 245.851 180.207C267.561 175.843 294.951 162.064 307.254 141.119C315.634 126.868 314.441 111.707 308.778 96.7242C308.53 95.9873 308.215 95.2073 307.867 94.3859C307.661 93.8378 307.405 93.2911 307.141 92.7276C307.002 92.4314 306.862 92.1306 306.725 91.8225C306.626 91.6323 306.527 91.4393 306.427 91.2446C306.076 90.5579 305.713 89.8494 305.3 89.163C304.949 88.5218 304.549 87.9012 304.145 87.2763C303.978 87.0167 303.81 86.7564 303.644 86.4936C303.498 86.29 303.353 86.0847 303.207 85.8792C302.743 85.2237 302.277 84.5656 301.773 83.9516C301.346 83.3828 300.881 82.8521 300.424 82.331C300.208 82.0846 299.993 81.8403 299.786 81.5952C299.533 81.3425 299.288 81.086 299.046 80.8328C298.608 80.3743 298.181 79.9266 297.733 79.5319C297.07 78.8927 296.408 78.3015 295.779 77.7914C295.201 77.2872 294.623 76.858 294.115 76.4803L294.023 76.412C293.493 76.0046 293.013 75.6635 292.616 75.4068C291.804 74.872 291.357 74.5656 291.357 74.5656C291.357 74.5656 291.871 74.7593 292.781 75.0972C293.228 75.2578 293.775 75.483 294.404 75.7612L294.5 75.8031C295.09 76.0615 295.767 76.3577 296.474 76.7283C297.236 77.091 298.031 77.5315 298.859 78.0216C299.436 78.3315 299.999 78.6995 300.582 79.0806C300.868 79.2677 301.159 79.458 301.459 79.6461C301.645 79.7804 301.833 79.9149 302.023 80.0505C302.712 80.5415 303.42 81.0465 304.108 81.6085C304.848 82.1755 305.553 82.8036 306.262 83.4349C306.411 83.5669 306.559 83.699 306.708 83.8308C306.847 83.9657 306.987 84.1003 307.127 84.235C307.818 84.8998 308.509 85.5646 309.142 86.2683C309.797 86.9301 310.388 87.6242 310.965 88.3037C311.103 88.4659 311.241 88.6272 311.378 88.7871C311.588 89.0596 311.8 89.328 312.009 89.5937C312.461 90.1661 312.903 90.7266 313.299 91.2909C313.878 92.1057 314.425 92.8889 314.905 93.6341C315.385 94.3594 315.816 95.0715 316.18 95.7173C325.04 110.717 322.837 130.648 314.259 145.236C311.957 149.149 309.258 152.789 306.261 156.162C311.03 156.207 316.694 156.968 322.456 159.31C322.456 159.31 322.458 159.308 322.462 159.309C322.468 159.31 322.479 159.316 322.489 159.323C323.649 159.792 324.808 160.313 325.95 160.915L325.818 161.186C326.045 161.331 326.288 161.48 326.542 161.635C326.657 161.706 326.775 161.778 326.894 161.852C327.182 162.065 327.49 162.278 327.809 162.499C328.447 162.94 329.13 163.413 329.792 163.986C329.941 164.109 330.092 164.229 330.244 164.351C330.619 164.651 331.001 164.957 331.365 165.298C331.779 165.685 332.204 166.084 332.639 166.492C332.744 166.59 332.849 166.689 332.955 166.788C333.086 166.925 333.217 167.062 333.35 167.2C334.261 168.149 335.213 169.14 336.052 170.256C336.946 171.305 337.744 172.47 338.548 173.646C338.681 173.841 338.815 174.036 338.95 174.232C339.069 174.433 339.189 174.634 339.309 174.836C340.039 176.062 340.775 177.298 341.401 178.59C341.962 179.624 342.424 180.704 342.881 181.77C343.071 182.213 343.26 182.654 343.454 183.088C343.617 183.544 343.785 183.996 343.951 184.444C344.342 185.496 344.725 186.529 345.027 187.561C345.142 187.952 345.258 188.338 345.374 188.719C345.692 189.774 346.001 190.793 346.22 191.798C346.331 192.309 346.452 192.805 346.571 193.29C346.768 194.098 346.956 194.872 347.081 195.622C347.296 196.811 347.495 197.901 347.677 198.866C347.809 199.838 347.925 200.684 348.024 201.382C348.207 202.773 348.306 203.566 348.306 203.566C348.306 203.566 348.074 202.799 347.677 201.456C347.549 201.026 347.401 200.537 347.236 199.996C347.145 199.694 347.049 199.377 346.948 199.043C346.634 198.176 346.291 197.203 345.918 196.145L345.855 195.968C345.614 195.25 345.306 194.514 344.987 193.751C344.802 193.31 344.613 192.859 344.431 192.396C344.071 191.476 343.623 190.554 343.164 189.609C342.99 189.251 342.815 188.89 342.643 188.525C342.218 187.627 341.719 186.742 341.215 185.85C340.972 185.419 340.727 184.986 340.49 184.549C340.237 184.164 339.99 183.774 339.743 183.383C339.165 182.469 338.585 181.551 337.923 180.699C337.133 179.556 336.249 178.506 335.379 177.472C335.283 177.358 335.187 177.244 335.091 177.13C334.967 176.999 334.844 176.868 334.72 176.738C333.823 175.788 332.943 174.856 332.011 174.056C331.203 173.282 330.33 172.622 329.505 171.997C329.299 171.841 329.096 171.687 328.898 171.534C328.624 171.352 328.358 171.171 328.097 170.994C327.854 170.829 327.614 170.666 327.374 170.506C321.943 166.84 315.12 164.864 308.629 164.405C306.079 164.227 303.512 164.293 300.978 164.588C300.745 164.615 300.431 164.634 300.075 164.655C298.889 164.728 297.243 164.828 296.607 165.346C281.438 177.706 262.378 185.175 247.457 188.175C239.558 189.763 233.862 193.125 230.533 198.164C226.178 204.758 226.989 212.546 227.304 214.543C227.503 214.934 227.718 215.333 227.933 215.717C229.523 218.686 230.98 221.439 232.272 224.082C238.929 226.468 246.596 223.803 254.015 221.22C254.263 221.135 254.508 221.05 254.752 220.965C255.42 220.734 256.076 220.507 256.731 220.288C275.096 214.081 294.354 216.737 309.093 219.746C317.737 221.513 326.05 223.952 333.932 227.009C335.297 227.54 337.433 227.398 339.259 227.277C339.913 227.233 340.528 227.193 341.053 227.187C343.52 227.16 346.004 227.041 348.472 226.84C349.646 226.746 350.835 226.659 352.034 226.572C359.268 226.046 366.84 225.496 373.56 222.919C374.443 222.611 375.28 222.225 376.115 221.839L376.193 221.803C376.623 221.586 377.037 221.372 377.451 221.161C377.674 221.035 377.891 220.901 378.109 220.767C378.28 220.661 378.452 220.555 378.627 220.453C379.216 220.115 379.732 219.72 380.237 219.335C380.413 219.201 380.587 219.068 380.763 218.938C380.943 218.774 381.126 218.616 381.307 218.459C381.74 218.084 382.158 217.722 382.485 217.327C382.657 217.151 382.814 216.981 382.966 216.815C383.05 216.725 383.132 216.636 383.214 216.549C383.39 216.353 383.538 216.154 383.679 215.964C383.723 215.905 383.767 215.846 383.81 215.789C383.847 215.74 383.883 215.693 383.919 215.645Z" fill="#C7A96D"/>
</svg>
